<?xml version="1.0" encoding="UTF-8" standalone="no"?>
<!-- Created with Inkscape (http://www.inkscape.org/) -->

<svg
   xmlns:dc="http://purl.org/dc/elements/1.1/"
   xmlns:cc="http://creativecommons.org/ns#"
   xmlns:rdf="http://www.w3.org/1999/02/22-rdf-syntax-ns#"
   xmlns:svg="http://www.w3.org/2000/svg"
   xmlns="http://www.w3.org/2000/svg"
   xmlns:sodipodi="http://sodipodi.sourceforge.net/DTD/sodipodi-0.dtd"
   xmlns:inkscape="http://www.inkscape.org/namespaces/inkscape"
   width="210mm"
   height="297mm"
   viewBox="0 0 210 297"
   version="1.1"
   id="svg3745"
   inkscape:version="0.92.5 (2060ec1f9f, 2020-04-08)"
   sodipodi:docname="dictate.svg">
  <defs
     id="defs3739" />
  <sodipodi:namedview
     id="base"
     pagecolor="#ffffff"
     bordercolor="#666666"
     borderopacity="1.0"
     inkscape:pageopacity="0.0"
     inkscape:pageshadow="2"
     inkscape:zoom="1.2590604"
     inkscape:cx="125.71429"
     inkscape:cy="1055.7143"
     inkscape:document-units="mm"
     inkscape:current-layer="layer1"
     showgrid="false"
     inkscape:window-width="1366"
     inkscape:window-height="719"
     inkscape:window-x="0"
     inkscape:window-y="25"
     inkscape:window-maximized="1" />
  <metadata
     id="metadata3742">
    <rdf:RDF>
      <cc:Work
         rdf:about="">
        <dc:format>image/svg+xml</dc:format>
        <dc:type
           rdf:resource="http://purl.org/dc/dcmitype/StillImage" />
        <dc:title></dc:title>
      </cc:Work>
    </rdf:RDF>
  </metadata>
  <g
     inkscape:label="Layer 1"
     inkscape:groupmode="layer"
     id="layer1">
    <path
       style="fill:none;stroke:#000000;stroke-width:0.02298179px;stroke-linecap:butt;stroke-linejoin:miter;stroke-opacity:1"
       d="m 90.022755,19.843224 c -4.238065,0 -7.776334,2.670802 -8.62583,6.231145 l -0.0708,0.153995 -0.0021,0.191203 c -0.07933,0.424946 -0.122473,0.860794 -0.122473,1.305864 v 13.137182 c 0,4.353243 3.949144,7.882207 8.821167,7.882207 4.872022,0 8.821683,-3.528964 8.821683,-7.882207 h -7.840865 c -0.541234,0 -0.980818,-0.293901 -0.980818,-0.656808 v -1.314131 c 0,-0.362908 0.439584,-0.656807 0.980818,-0.656807 h 7.840865 v -2.62723 h -7.840865 c -0.541234,0 -0.980818,-0.293901 -0.980818,-0.656808 v -1.313615 c 0,-0.362907 0.439584,-0.656807 0.980818,-0.656807 h 7.840865 V 30.35266 h -7.840865 c -0.122755,0 -0.239455,-0.01631 -0.347782,-0.04393 -0.141347,-0.04255 -0.257839,-0.09286 -0.3514,-0.152962 -0.173745,-0.118496 -0.281636,-0.280631 -0.281636,-0.45992 v -1.313615 c 0,-0.362907 0.439584,-0.656807 0.980818,-0.656807 h 7.840865 c 0,-4.353245 -3.949661,-7.882207 -8.821683,-7.882207 z M 75.320293,35.607637 c -0.81231,0 -1.470194,0.5878 -1.470194,1.313615 v 3.297473 c 0,7.346683 5.857672,13.896769 13.924214,14.91175 0.01548,0.02531 0.03015,0.0565 0.04341,0.09302 v 2.717149 h -5.145939 c -0.81231,0 -1.470194,0.587798 -1.470194,1.313614 v 1.313614 c 0,0.725813 0.657884,1.313616 1.470194,1.313616 h 14.702462 c 0.81231,0 1.470194,-0.587803 1.470194,-1.313616 v -1.313614 c 0,-0.725816 -0.657884,-1.313614 -1.470194,-1.313614 h -5.145939 v -2.640666 c 0.02546,-0.06496 0.06199,-0.11022 0.10542,-0.147278 7.824453,-1.006564 13.861683,-7.023695 13.861683,-14.290084 v -3.941361 c 0,-0.725815 -0.65788,-1.313615 -1.47019,-1.313615 h -1.4702 c -0.81231,0 -1.47019,0.5878 -1.47019,1.313615 v 3.138309 c -0.0387,1.038157 -0.0824,1.828653 -0.1416,2.422075 -0.93213,5.36092 -6.413143,9.395337 -12.795595,8.839252 C 82.736929,50.788025 78.261199,45.879906 78.261199,40.394425 v -3.473173 c 0,-0.725815 -0.658401,-1.313615 -1.470712,-1.313615 z"
       id="path3747"
       inkscape:connector-curvature="0" />
    <path
       style="stroke-width:0.12137941"
       d="M 9.1686632,0.0872267 C 8.6928912,0.08983507 8.2335965,0.12790389 7.9845756,0.19050231 6.5107782,0.56098263 5.1909436,1.6210971 4.5931961,2.9144708 L 4.2505359,3.655309 4.210539,7.6875346 c -0.053517,5.3611164 0.055234,6.0074024 1.2252784,7.2767504 0.5943444,0.644789 1.3040237,1.081113 2.2496769,1.383476 1.2510651,0.400013 2.9431017,0.244133 4.1763937,-0.385045 1.147338,-0.585327 2.245027,-2.072099 2.373846,-3.214976 l 0.06029,-0.535182 h -2.295047 c -2.6570579,0 -2.8344072,-0.05291 -2.8344072,-0.847696 0,-0.826739 0.079569,-0.851576 2.7397882,-0.851576 h 2.358027 V 9.8455767 9.1781656 h -2.279227 c -2.6396958,0 -2.8185882,-0.05398 -2.8185882,-0.8479942 0,-0.8267385 0.079569,-0.8512773 2.7397882,-0.8512773 h 2.358027 V 6.8111844 6.1437734 h -2.279227 c -2.6396958,0 -2.8185882,-0.05398 -2.8185882,-0.8479942 0,-0.8267402 0.079569,-0.8515759 2.7397882,-0.8515759 h 2.358027 V 4.084828 c 0,-1.2300914 -1.15081,-2.7546819 -2.631737,-3.48659603 C 10.837396,0.20519568 10.586508,0.14190456 9.6426563,0.0967782 9.487547,0.08936232 9.3272538,0.08635725 9.1686632,0.0872267 Z M 1.2307694,9.1760762 C 0.81900126,9.1762559 0.39662316,9.2347031 0.23801037,9.3512866 0.02424932,9.5084052 0.00331392,9.6744152 0.01265465,11.141596 c 0.010875,1.708177 0.14186851,2.477155 0.6232354,3.661806 1.09430155,2.693092 3.62938025,4.733831 6.64933665,5.352423 l 0.7283019,0.148943 0.03552,0.869783 0.035818,0.869784 H 6.3888781 c -1.6874489,0 -1.6969854,0.0014 -1.9473122,0.319677 -0.4195633,0.533388 -0.2699932,1.525395 0.2623678,1.739269 0.4492549,0.180485 8.8328103,0.152454 9.1963043,-0.03074 0.263665,-0.132887 0.308288,-0.245749 0.340272,-0.861426 C 14.2987,22.090927 14.2165,22.04434 12.182162,22.04434 h -1.680468 v -0.847397 c 0,-0.825532 0.0085,-0.849098 0.333706,-0.921124 3.527177,-0.781188 5.661754,-2.308128 6.944538,-4.967973 0.616582,-1.278478 0.732779,-1.914089 0.732779,-4.002974 0,-2.1022021 -0.01338,-2.1267014 -1.161701,-2.1267014 -1.213819,0 -1.265872,0.089731 -1.265872,2.1884874 0,1.814173 -0.182362,2.681585 -0.765016,3.637629 -0.423682,0.695198 -1.310939,1.585185 -2.07775,2.084018 -1.732154,1.126814 -4.1951312,1.436478 -6.2195191,0.781731 C 5.0415874,17.229231 3.369693,15.606658 2.7458762,13.719009 2.5336239,13.076741 2.4526946,12.487102 2.4005297,11.201591 2.351238,9.9868874 2.2849567,9.4750979 2.1602498,9.350391 2.0437862,9.2339275 1.6425376,9.1758966 1.2307694,9.1760762 Z"
       id="path3755"
       inkscape:connector-curvature="0" />
  </g>
</svg>
