<?xml version="1.0" encoding="UTF-8" standalone="no"?>
<!-- Created with Inkscape (http://www.inkscape.org/) -->
<svg xmlns:dc="http://purl.org/dc/elements/1.1/" xmlns:cc="http://creativecommons.org/ns#" xmlns:rdf="http://www.w3.org/1999/02/22-rdf-syntax-ns#" xmlns:svg="http://www.w3.org/2000/svg" xmlns="http://www.w3.org/2000/svg" xmlns:xlink="http://www.w3.org/1999/xlink" xmlns:sodipodi="http://sodipodi.sourceforge.net/DTD/sodipodi-0.dtd" xmlns:inkscape="http://www.inkscape.org/namespaces/inkscape" version="1.0" width="48" height="48" id="svg3221" inkscape:version="0.48.2 r9819" sodipodi:docname="documentsave_as.svg">
  <metadata id="metadata71">
    <rdf:RDF>
      <cc:Work rdf:about="">
        <dc:format>image/svg+xml</dc:format>
        <dc:type rdf:resource="http://purl.org/dc/dcmitype/StillImage"/>
      </cc:Work>
    </rdf:RDF>
  </metadata>
  <sodipodi:namedview pagecolor="#ffffff" bordercolor="#666666" borderopacity="1" objecttolerance="10" gridtolerance="10" guidetolerance="10" inkscape:pageopacity="0" inkscape:pageshadow="2" inkscape:window-width="640" inkscape:window-height="480" id="namedview69" showgrid="false" inkscape:zoom="4.9166667" inkscape:cx="24" inkscape:cy="24" inkscape:window-x="0" inkscape:window-y="31" inkscape:window-maximized="0" inkscape:current-layer="svg3221"/>
  <defs id="defs3223">
    <linearGradient id="linearGradient2804">
      <stop id="stop2806" style="stop-color:black;stop-opacity:0" offset="0"/>
      <stop id="stop2812" style="stop-color:black;stop-opacity:1" offset="0.5"/>
      <stop id="stop2808" style="stop-color:black;stop-opacity:0" offset="1"/>
    </linearGradient>
    <linearGradient x1="21.875" y1="48.000977" x2="21.875" y2="40" id="linearGradient3936" xlink:href="#linearGradient2804" gradientUnits="userSpaceOnUse"/>
    <radialGradient cx="1" cy="44" r="5" fx="1" fy="44" id="radialGradient3934" xlink:href="#linearGradient2781" gradientUnits="userSpaceOnUse" gradientTransform="matrix(2,0,0,0.8,36,8.8)"/>
    <linearGradient id="linearGradient2781">
      <stop id="stop2783" style="stop-color:black;stop-opacity:1" offset="0"/>
      <stop id="stop2785" style="stop-color:black;stop-opacity:0" offset="1"/>
    </linearGradient>
    <radialGradient cx="1" cy="44" r="5" fx="1" fy="44" id="radialGradient3932" xlink:href="#linearGradient2781" gradientUnits="userSpaceOnUse" gradientTransform="matrix(2,0,0,0.8,-13,-79.2)"/>
    <linearGradient id="linearGradient6375">
      <stop id="stop6377" style="stop-color:#040404;stop-opacity:1" offset="0"/>
      <stop id="stop6379" style="stop-color:#606060;stop-opacity:1" offset="1"/>
    </linearGradient>
    <linearGradient x1="3.6261616" y1="2.5845432" x2="41.968018" y2="40.926399" id="linearGradient2475" xlink:href="#linearGradient6375" gradientUnits="userSpaceOnUse" gradientTransform="matrix(-1.03302,0,0,-1.0330201,47.242952,48.242957)"/>
    <linearGradient id="linearGradient2388">
      <stop id="stop2390" style="stop-color:#010306;stop-opacity:1" offset="0"/>
      <stop id="stop2392" style="stop-color:#010306;stop-opacity:0.39607844" offset="1"/>
    </linearGradient>
    <linearGradient x1="33.349056" y1="28.69302" x2="35.974056" y2="33.049397" id="linearGradient2472" xlink:href="#linearGradient2388" gradientUnits="userSpaceOnUse" gradientTransform="matrix(-1.0465566,0,0,-1.0194947,48.617356,47.680519)"/>
    <linearGradient id="linearGradient2294">
      <stop id="stop2296" style="stop-color:#262626;stop-opacity:1" offset="0"/>
      <stop id="stop2298" style="stop-color:#122339;stop-opacity:0" offset="1"/>
    </linearGradient>
    <linearGradient x1="18.75" y1="27.654568" x2="18.826717" y2="36.774681" id="linearGradient4733" xlink:href="#linearGradient2294" gradientUnits="userSpaceOnUse" gradientTransform="matrix(1.0625761,0,0,1.019071,-48.78281,-47.665691)"/>
    <linearGradient id="linearGradient4235">
      <stop id="stop4237" style="stop-color:#d4d4dc;stop-opacity:1" offset="0"/>
      <stop id="stop4239" style="stop-color:#848489;stop-opacity:1" offset="1"/>
    </linearGradient>
    <linearGradient x1="10" y1="27.996471" x2="31" y2="42" id="linearGradient4731" xlink:href="#linearGradient4235" gradientUnits="userSpaceOnUse" gradientTransform="matrix(-1.062576,0,0,-1.019071,48.782807,47.66569)"/>
    <linearGradient id="linearGradient2249">
      <stop id="stop2251" style="stop-color:#010306;stop-opacity:1" offset="0"/>
      <stop id="stop2253" style="stop-color:#010306;stop-opacity:0" offset="1"/>
    </linearGradient>
    <linearGradient x1="37.625" y1="7.625" x2="37.625" y2="3.4829895" id="linearGradient4727" xlink:href="#linearGradient2249" gradientUnits="userSpaceOnUse" gradientTransform="matrix(1.041515,0,0,-1.0566113,0.5659129,48.320867)"/>
    <linearGradient id="linearGradient2268">
      <stop id="stop2270" style="stop-color:#eeeeec;stop-opacity:1" offset="0"/>
      <stop id="stop2272" style="stop-color:white;stop-opacity:1" offset="1"/>
    </linearGradient>
    <linearGradient x1="21.875" y1="7.6059465" x2="21.875" y2="18.51421" id="linearGradient4725" xlink:href="#linearGradient2268" gradientUnits="userSpaceOnUse" gradientTransform="matrix(1.0444099,0,0,1.0592128,0.5007808,-48.328987)"/>
    <linearGradient id="linearGradient2555">
      <stop id="stop2557" style="stop-color:white;stop-opacity:1" offset="0"/>
      <stop id="stop2561" style="stop-color:#e6e6e6;stop-opacity:1" offset="0.5"/>
      <stop id="stop2563" style="stop-color:white;stop-opacity:1" offset="0.75"/>
      <stop id="stop2565" style="stop-color:#e1e1e1;stop-opacity:1" offset="0.84166664"/>
      <stop id="stop2559" style="stop-color:white;stop-opacity:1" offset="1"/>
    </linearGradient>
    <linearGradient x1="10" y1="27.996471" x2="31" y2="42" id="linearGradient4723" xlink:href="#linearGradient2555" gradientUnits="userSpaceOnUse" gradientTransform="matrix(-1.062576,0,0,-1.019071,48.782807,47.66569)"/>
    <linearGradient id="linearGradient2319">
      <stop id="stop2321" style="stop-color:white;stop-opacity:1" offset="0"/>
      <stop id="stop2323" style="stop-color:white;stop-opacity:0" offset="1"/>
    </linearGradient>
    <linearGradient x1="20.484835" y1="40.865391" x2="20.484835" y2="29.134611" id="linearGradient3219" xlink:href="#linearGradient2319" gradientUnits="userSpaceOnUse" gradientTransform="matrix(-1.093999,0,0,-1.0598351,49.384174,49.092432)"/>
    <linearGradient inkscape:collect="always" xlink:href="#linearGradient3290-678" id="linearGradient2670" gradientUnits="userSpaceOnUse" gradientTransform="matrix(0.6380091,-0.6411367,0.8596263,0.8553493,-2.6272328,16.676859)" x1="9" y1="29.056757" x2="9" y2="26.02973"/>
    <linearGradient id="linearGradient3290-678">
      <stop id="stop2607" style="stop-color:#ece5a5;stop-opacity:1" offset="0"/>
      <stop id="stop2609" style="stop-color:#fcfbf2;stop-opacity:1" offset="1"/>
    </linearGradient>
    <linearGradient inkscape:collect="always" xlink:href="#linearGradient3191-577" id="linearGradient2673" gradientUnits="userSpaceOnUse" gradientTransform="matrix(0.5603647,0.02418622,0.02415646,0.5596736,20.580659,13.050353)" x1="5.5178981" y1="37.371799" x2="9.5220556" y2="41.391716"/>
    <linearGradient id="linearGradient3191-577">
      <stop id="stop2613" style="stop-color:#dbce48;stop-opacity:1" offset="0"/>
      <stop id="stop2615" style="stop-color:#c5b625;stop-opacity:1" offset="1"/>
    </linearGradient>
    <linearGradient inkscape:collect="always" xlink:href="#linearGradient3223-699" id="linearGradient2676" gradientUnits="userSpaceOnUse" gradientTransform="matrix(0.6380091,-0.6411367,0.8596262,0.8553492,-1.2946748,15.337772)" x1="30.037716" y1="24.989594" x2="30.037716" y2="30.000141"/>
    <linearGradient id="linearGradient3223-699">
      <stop id="stop2599" style="stop-color:#b1b1b1;stop-opacity:1" offset="0"/>
      <stop id="stop2601" style="stop-color:#ffffff;stop-opacity:1" offset="0.5"/>
      <stop id="stop2603" style="stop-color:#8f8f8f;stop-opacity:1" offset="1"/>
    </linearGradient>
    <linearGradient inkscape:collect="always" xlink:href="#linearGradient3240-907" id="linearGradient2679" gradientUnits="userSpaceOnUse" gradientTransform="matrix(0.6380091,-0.6411367,0.8596262,0.8553492,-1.1119578,15.154158)" x1="30.037716" y1="24.989594" x2="30.037716" y2="30.000141"/>
    <linearGradient id="linearGradient3240-907">
      <stop id="stop2591" style="stop-color:#565656;stop-opacity:1" offset="0"/>
      <stop id="stop2593" style="stop-color:#9a9a9a;stop-opacity:1" offset="0.5"/>
      <stop id="stop2595" style="stop-color:#545454;stop-opacity:1" offset="1"/>
    </linearGradient>
    <linearGradient inkscape:collect="always" xlink:href="#linearGradient3223-768" id="linearGradient2682" gradientUnits="userSpaceOnUse" gradientTransform="matrix(0.6380091,-0.6411367,0.8596262,0.8553492,-1.9326848,15.978907)" x1="30.037716" y1="24.989594" x2="30.037716" y2="30.000141"/>
    <linearGradient id="linearGradient3223-768">
      <stop id="stop2583" style="stop-color:#b1b1b1;stop-opacity:1" offset="0"/>
      <stop id="stop2585" style="stop-color:#ffffff;stop-opacity:1" offset="0.5"/>
      <stop id="stop2587" style="stop-color:#8f8f8f;stop-opacity:1" offset="1"/>
    </linearGradient>
    <linearGradient inkscape:collect="always" xlink:href="#linearGradient3240-686" id="linearGradient2685" gradientUnits="userSpaceOnUse" gradientTransform="matrix(0.6380091,-0.6411367,0.8596262,0.8553492,-1.7499668,15.795295)" x1="30.037716" y1="24.989594" x2="30.037716" y2="30.000141"/>
    <linearGradient id="linearGradient3240-686">
      <stop id="stop2575" style="stop-color:#565656;stop-opacity:1" offset="0"/>
      <stop id="stop2577" style="stop-color:#9a9a9a;stop-opacity:1" offset="0.5"/>
      <stop id="stop2579" style="stop-color:#545454;stop-opacity:1" offset="1"/>
    </linearGradient>
    <linearGradient inkscape:collect="always" xlink:href="#linearGradient3223-789" id="linearGradient2688" gradientUnits="userSpaceOnUse" gradientTransform="matrix(0.6380091,-0.6411367,0.8596262,0.8553492,-2.5676238,16.616961)" x1="30.037716" y1="24.989594" x2="30.037716" y2="30.000141"/>
    <linearGradient id="linearGradient3223-789">
      <stop id="stop2567" style="stop-color:#b1b1b1;stop-opacity:1" offset="0"/>
      <stop id="stop2569" style="stop-color:#ffffff;stop-opacity:1" offset="0.5"/>
      <stop id="stop2571" style="stop-color:#8f8f8f;stop-opacity:1" offset="1"/>
    </linearGradient>
    <linearGradient inkscape:collect="always" xlink:href="#linearGradient3240-279" id="linearGradient2691" gradientUnits="userSpaceOnUse" gradientTransform="matrix(0.6380091,-0.6411367,0.8596262,0.8553492,-2.3849068,16.433348)" x1="30.037716" y1="24.989594" x2="30.037716" y2="30.000141"/>
    <linearGradient id="linearGradient3240-279">
      <stop id="stop2559-9" style="stop-color:#565656;stop-opacity:1" offset="0"/>
      <stop id="stop2561-3" style="stop-color:#9a9a9a;stop-opacity:1" offset="0.5"/>
      <stop id="stop2563-5" style="stop-color:#545454;stop-opacity:1" offset="1"/>
    </linearGradient>
    <linearGradient inkscape:collect="always" xlink:href="#linearGradient3155-40" id="linearGradient2697" gradientUnits="userSpaceOnUse" gradientTransform="matrix(0.6565695,-0.659788,0.7345237,0.7308691,0.02115019,19.809434)" spreadMethod="pad" x1="23.575972" y1="25.356892" x2="23.575972" y2="31.210939"/>
    <linearGradient id="linearGradient3155-40">
      <stop id="stop2541" style="stop-color:#181818;stop-opacity:1" offset="0"/>
      <stop id="stop2543" style="stop-color:#dbdbdb;stop-opacity:1" offset="0.13482948"/>
      <stop id="stop2545" style="stop-color:#a4a4a4;stop-opacity:1" offset="0.20224422"/>
      <stop id="stop2547" style="stop-color:#ffffff;stop-opacity:1" offset="0.26965895"/>
      <stop id="stop2549" style="stop-color:#8d8d8d;stop-opacity:1" offset="0.44650277"/>
      <stop id="stop2551" style="stop-color:#959595;stop-opacity:1" offset="0.57114136"/>
      <stop id="stop2553" style="stop-color:#cecece;stop-opacity:1" offset="0.72038066"/>
      <stop id="stop2555" style="stop-color:#181818;stop-opacity:1" offset="1"/>
    </linearGradient>
  </defs>
  <g id="layer1">
    <g transform="matrix(1.0212766,0,0,1.037397,-1.0212767,-1.795056)" id="g2822" style="opacity:0.3">
      <rect width="10" height="8" x="-11" y="-48" transform="scale(-1,-1)" id="rect1892" style="fill:url(#radialGradient3932);fill-opacity:1;fill-rule:nonzero;stroke:none;stroke-width:1;marker:none;visibility:visible;display:inline;overflow:visible"/>
      <rect width="10" height="8" x="38" y="40" id="rect2789" style="fill:url(#radialGradient3934);fill-opacity:1;fill-rule:nonzero;stroke:none;stroke-width:1;marker:none;visibility:visible;display:inline;overflow:visible"/>
      <rect width="27" height="8" x="11" y="40" id="rect2793" style="fill:url(#linearGradient3936);fill-opacity:1;fill-rule:nonzero;stroke:none;stroke-width:1;marker:none;visibility:visible;display:inline;overflow:visible"/>
    </g>
    <path d="m 42.832089,44.627381 -37.6641738,0 c -0.8599294,0 -0.795296,0.06464 -0.795296,-0.795291 l 0,-37.6641778 c 0,-0.8599306 -0.064633,-0.7952929 0.795296,-0.7952929 l 34.8438978,0 3.615568,3.6155716 0,34.8438991 c 0,0.859928 0.06464,0.795291 -0.795292,0.795291 z" id="rect1314" style="fill:url(#linearGradient2475);fill-opacity:1;fill-rule:nonzero;stroke:#121212;stroke-width:0.74303091;stroke-linecap:round;stroke-linejoin:round;stroke-miterlimit:4;stroke-opacity:1;stroke-dasharray:none;stroke-dashoffset:0;marker:none;visibility:visible;display:inline;overflow:visible"/>
    <path d="m 34.943988,18.624919 -23.934537,0 c -0.907433,0 -1.6379654,-0.711646 -1.6379654,-1.595615 l 0,-11.6578184 27.2104724,0 0,11.6578184 c 0,0.883969 -0.730533,1.595615 -1.63797,1.595615 z" id="rect2194" style="opacity:0.26190473;fill:none;stroke:url(#linearGradient2472);stroke-width:0.74297124;stroke-linecap:round;stroke-linejoin:round;stroke-miterlimit:4;stroke-opacity:1;stroke-dasharray:none;stroke-dashoffset:0;marker:none;visibility:visible;display:inline;overflow:visible"/>
    <rect width="7.4380317" height="10.190712" x="-34.43803" y="-17.603094" transform="scale(-1,-1)" id="rect2284" style="fill:url(#linearGradient4733);fill-opacity:1;fill-rule:nonzero;stroke:none;stroke-width:0.75;marker:none;visibility:visible;display:inline;overflow:visible"/>
    <path d="m 36.23113,18.622166 c 0.320361,-0.03883 0.631795,-0.189914 0.863342,-0.382154 0.321031,-0.279721 0.531288,-0.695788 0.531288,-1.146455 l 0,-11.7193169 -21.251519,0 0,11.7193169 c 0,0.848319 0.709329,1.528609 1.593864,1.528609 l 18.063792,0 c 0.0691,0 0.132489,0.0081 0.199233,0 z m -3.320552,-2.038145 c -0.03916,0.0076 -0.09124,0 -0.132821,0 l -4.117482,0 c -0.135142,0 -0.265133,-0.05566 -0.365261,-0.127386 -0.02963,-0.02343 -0.07518,-0.06712 -0.09962,-0.09553 -0.07479,-0.09603 -0.132822,-0.220697 -0.132822,-0.350305 l 0,-7.0061144 c 0,-0.1296085 0.05803,-0.2542743 0.132822,-0.3503048 0.02444,-0.028419 0.06998,-0.072105 0.09962,-0.09554 0.100128,-0.071724 0.230119,-0.1273835 0.365261,-0.1273835 l 4.117482,0 c 0.135142,0 0.265133,0.055659 0.365259,0.1273835 0.02963,0.023435 0.07518,0.067122 0.09962,0.09554 0.07479,0.09603 0.132824,0.2206963 0.132824,0.3503048 l 0,7.0061144 c 0,0.129608 -0.05803,0.254275 -0.132824,0.350305 -0.02443,0.02842 -0.06998,0.0721 -0.09962,0.09553 -0.06932,0.04966 -0.144332,0.110182 -0.232438,0.127386 z" id="rect2192" style="fill:url(#linearGradient4731);fill-opacity:1;fill-rule:nonzero;stroke:#555753;stroke-width:0.74848032;stroke-linecap:round;stroke-linejoin:round;stroke-miterlimit:4;stroke-opacity:1;stroke-dasharray:none;stroke-dashoffset:0;marker:none;visibility:visible;display:inline;overflow:visible"/>
    <rect width="2.06604" height="2.0660403" x="5.9221492" y="-42.044838" transform="scale(1,-1)" id="rect2278" style="opacity:0.2;fill:white;fill-opacity:1;fill-rule:nonzero;stroke:none;stroke-width:0.75;marker:none;visibility:visible;display:inline;overflow:visible"/>
    <rect width="1.03302" height="1.0330201" x="5.9221492" y="-42.044838" transform="scale(1,-1)" id="rect2276" style="fill:#010306;fill-opacity:1;fill-rule:nonzero;stroke:none;stroke-width:0.75;marker:none;visibility:visible;display:inline;overflow:visible"/>
    <rect width="2.06604" height="2.0660403" x="40.01181" y="-42.044838" transform="scale(1,-1)" id="rect2280" style="opacity:0.2;fill:white;fill-opacity:1;fill-rule:nonzero;stroke:none;stroke-width:0.75;marker:none;visibility:visible;display:inline;overflow:visible"/>
    <rect width="1.03302" height="1.0330201" x="40.01181" y="-42.044838" transform="scale(1,-1)" id="rect2282" style="fill:#010306;fill-opacity:1;fill-rule:nonzero;stroke:none;stroke-width:0.75;marker:none;visibility:visible;display:inline;overflow:visible"/>
    <path d="m 39.622725,44.622725 0,-21.644391 c 0,-0.886986 -0.703871,-1.601058 -1.578181,-1.601058 l -28.0890871,0 c -0.8743124,0 -1.5781813,0.714072 -1.5781813,1.601058 l 0,21.644391 31.2454494,0 z" id="rect2247" style="opacity:0.6;fill:none;stroke:url(#linearGradient4727);stroke-width:0.75455093;stroke-linecap:round;stroke-linejoin:round;stroke-miterlimit:4;stroke-opacity:1;stroke-dasharray:none;stroke-dashoffset:0;marker:none;visibility:visible;display:inline;overflow:visible"/>
    <rect width="29.243473" height="22.243471" rx="0.1971626" ry="0.19995712" x="9.3782635" y="-44.621731" transform="scale(1,-1)" id="rect2257" style="fill:url(#linearGradient4725);fill-opacity:1;fill-rule:nonzero;stroke:#e2e2df;stroke-width:0.75652844;stroke-linecap:round;stroke-linejoin:round;stroke-miterlimit:4;stroke-opacity:1;stroke-dasharray:none;stroke-dashoffset:0;marker:none;visibility:visible;display:inline;overflow:visible"/>
    <path d="m 9.4148795,44.626915 29.1702415,0" id="path2264" style="fill:#3f6cff;fill-opacity:0.75;fill-rule:evenodd;stroke:#575757;stroke-width:0.746171;stroke-linecap:round;stroke-linejoin:round;stroke-miterlimit:4;stroke-opacity:1;stroke-dasharray:none;display:inline"/>
    <path d="m 9.3744109,36.500663 29.2511781,0" id="path2329" style="fill:none;stroke:#d3d7cf;stroke-width:0.86457807;stroke-linecap:round;stroke-linejoin:round;stroke-miterlimit:4;stroke-opacity:1;stroke-dasharray:none;display:inline"/>
    <path d="m 9.3744109,28.500663 29.2511781,0" id="path2331" style="fill:none;stroke:#d3d7cf;stroke-width:0.86457807;stroke-linecap:round;stroke-linejoin:round;stroke-miterlimit:4;stroke-opacity:1;stroke-dasharray:none;display:inline"/>
    <path d="m 36.23113,18.622166 c 0.320361,-0.03883 0.631795,-0.189914 0.863342,-0.382154 0.321031,-0.279721 0.531288,-0.695788 0.531288,-1.146455 l 0,-11.7193169 -21.251519,0 0,11.7193169 c 0,0.848319 0.709329,1.528609 1.593864,1.528609 l 18.063792,0 c 0.0691,0 0.132489,0.0081 0.199233,0 z m -3.320552,-2.038145 c -0.03916,0.0076 -0.09124,0 -0.132821,0 l -4.117482,0 c -0.135142,0 -0.265133,-0.05566 -0.365261,-0.127386 -0.02963,-0.02343 -0.07518,-0.06712 -0.09962,-0.09553 -0.07479,-0.09603 -0.132822,-0.220697 -0.132822,-0.350305 l 0,-7.0061144 c 0,-0.1296085 0.05803,-0.2542743 0.132822,-0.3503048 0.02444,-0.028419 0.06998,-0.072105 0.09962,-0.09554 0.100128,-0.071724 0.230119,-0.1273835 0.365261,-0.1273835 l 4.117482,0 c 0.135142,0 0.265133,0.055659 0.365259,0.1273835 0.02963,0.023435 0.07518,0.067122 0.09962,0.09554 0.07479,0.09603 0.132824,0.2206963 0.132824,0.3503048 l 0,7.0061144 c 0,0.129608 -0.05803,0.254275 -0.132824,0.350305 -0.02443,0.02842 -0.06998,0.0721 -0.09962,0.09553 -0.06932,0.04966 -0.144332,0.110182 -0.232438,0.127386 z" id="path7255" style="opacity:0.5;fill:url(#linearGradient4723);fill-opacity:1;fill-rule:nonzero;stroke:#555753;stroke-width:0.74848032;stroke-linecap:round;stroke-linejoin:round;stroke-miterlimit:4;stroke-opacity:1;stroke-dasharray:none;stroke-dashoffset:0;marker:none;visibility:visible;display:inline;overflow:visible"/>
    <path d="m 36.256187,17.827295 -18.564803,0 c -0.321418,0 -0.58018,-0.250681 -0.58018,-0.562063 l 0,-11.0961234 19.725161,0 0,11.0961234 c 0,0.311382 -0.258759,0.562063 -0.580178,0.562063 z" id="rect2316" style="opacity:0.4;fill:none;stroke:url(#linearGradient3219);stroke-width:0.7745077;stroke-linecap:round;stroke-linejoin:round;stroke-miterlimit:4;stroke-opacity:1;stroke-dasharray:none;stroke-dashoffset:0;marker:none;visibility:visible;display:inline;overflow:visible"/>
  </g>
  <path inkscape:connector-curvature="0" style="opacity:0.15;fill:#0c0c0c;fill-opacity:1;fill-rule:evenodd;stroke:none" id="path2422" d="m 39.503165,23.890748 c -0.173257,-0.101989 -0.307317,-0.07546 -0.395883,-0.01871 l -11.796108,7.511424 -2.17105,1.386355 -0.06684,0.02805 -2.570398,5.792049 6.370142,0.191869 0.05288,-0.03539 2.18501,-1.379007 11.793169,-7.576206 c 0.354271,-0.226993 -0.206018,-1.731414 -1.256855,-3.380625 -0.788131,-1.236902 -1.624293,-2.213844 -2.144067,-2.519809 l 0,0 z"/>
  <path inkscape:connector-curvature="0" style="fill:url(#linearGradient2697);fill-opacity:1;stroke:#0c0c0c;stroke-width:0.5;stroke-linecap:butt;stroke-linejoin:round;stroke-miterlimit:4;stroke-opacity:1;stroke-dasharray:none;stroke-dashoffset:0" id="rect2383" d="m 25.968205,30.97471 c 0.445921,-0.334616 1.697104,0.293067 2.846888,1.43713 1.147034,1.141326 1.75142,2.362602 1.42438,2.812888 -0.0012,0.0017 0.02814,0.02504 0.02686,0.02673 L 46.276378,19.162932 C 46.68286,18.754457 46.051295,17.463626 44.865009,16.283244 43.678727,15.102862 42.38473,14.477708 41.978245,14.886185 L 25.968205,30.97471 z"/>
  <path inkscape:connector-curvature="0" style="opacity:0.8;fill:#ffb6ed;fill-opacity:1;stroke:#e28ccd;stroke-width:0.5;stroke-linecap:butt;stroke-linejoin:round;stroke-miterlimit:4;stroke-opacity:1;stroke-dasharray:none;stroke-dashoffset:0" id="rect3175" d="m 40.024344,16.849666 c 0.445921,-0.334616 1.697105,0.293068 2.846888,1.43713 1.147033,1.141325 1.75142,2.362602 1.424379,2.812887 -0.0012,0.0017 0.02814,0.02504 0.02686,0.02673 l 1.953903,-1.963482 0.03988,-0.04007 c 0.0013,-0.0017 -0.02811,-0.02502 -0.02686,-0.02673 0.327036,-0.450285 -0.277352,-1.671561 -1.424385,-2.812886 -1.149782,-1.144062 -2.400965,-1.771747 -2.846887,-1.43713 l -0.03988,0.04007 -1.953901,1.963481 3.0E-6,0 z"/>
  <path inkscape:connector-curvature="0" style="opacity:0.6;fill:#0c0c0c;fill-opacity:1;stroke:none" id="path3208" d="m 25.968205,30.974708 c 0.445921,-0.334616 1.697105,0.293068 2.846887,1.43713 1.147034,1.141326 1.751421,2.362602 1.42438,2.812888 -0.0012,0.0017 0.02814,0.02504 0.02687,0.02673 l 11.025592,-11.079643 0.03988,-0.04007 c 0.0013,-0.0017 -0.02811,-0.02502 -0.02686,-0.02673 0.327034,-0.450289 -0.277353,-1.671564 -1.424386,-2.81289 -1.149783,-1.144062 -2.400968,-1.771746 -2.846889,-1.437129 l -0.03988,0.04007 -11.025589,11.079644 -5.0E-6,0 z"/>
  <path inkscape:connector-curvature="0" style="fill:url(#linearGradient2691);fill-opacity:1;stroke:none" id="path3233" d="m 37.834255,19.050489 c 0.44592,-0.334617 1.697106,0.293068 2.846888,1.43713 1.147033,1.141325 1.751421,2.362601 1.424379,2.812888 -0.0012,0.0017 0.02814,0.02504 0.02686,0.02673 l 0.199378,-0.200358 c 0.0013,-0.0017 -0.02811,-0.02502 -0.02686,-0.02673 0.327042,-0.450286 -0.277346,-1.671563 -1.42438,-2.812886 -1.149782,-1.144063 -2.400967,-1.771747 -2.846887,-1.437131 l -0.199378,0.200356 0,1.0E-6 z"/>
  <path inkscape:connector-curvature="0" style="fill:url(#linearGradient2688);fill-opacity:1;stroke:none" id="path3216" d="m 37.651537,19.234102 c 0.445922,-0.334617 1.697107,0.293067 2.846888,1.437129 1.147035,1.141326 1.751422,2.362601 1.42438,2.812887 -0.0012,0.0017 0.02813,0.02504 0.02686,0.02673 l 0.199377,-0.200357 c 0.0013,-0.0017 -0.02811,-0.02502 -0.02686,-0.02673 0.327044,-0.450285 -0.277344,-1.671561 -1.424379,-2.812886 -1.149782,-1.144062 -2.400966,-1.771747 -2.846889,-1.43713 l -0.199377,0.200356 0,1.0E-6 z"/>
  <path inkscape:connector-curvature="0" style="fill:url(#linearGradient2685);fill-opacity:1;stroke:none" id="path3248" d="m 38.469195,18.412436 c 0.445921,-0.334617 1.697105,0.293067 2.846888,1.43713 1.147033,1.141325 1.751421,2.3626 1.42438,2.812887 -0.0012,0.0017 0.02813,0.02504 0.02686,0.02673 l 0.199378,-0.200355 c 0.0013,-0.0017 -0.02811,-0.02502 -0.02686,-0.02673 0.327041,-0.450286 -0.277346,-1.671563 -1.424381,-2.812887 -1.149782,-1.144063 -2.400964,-1.771747 -2.846888,-1.43713 l -0.199377,0.200355 0,0 z"/>
  <path inkscape:connector-curvature="0" style="fill:url(#linearGradient2682);fill-opacity:1;stroke:none" id="path3250" d="m 38.286477,18.596049 c 0.445923,-0.334617 1.697107,0.293067 2.846888,1.437129 1.147035,1.141326 1.751422,2.362601 1.424381,2.812887 -0.0012,0.0017 0.02814,0.02504 0.02686,0.02673 l 0.199377,-0.200356 c 0.0013,-0.0017 -0.02811,-0.02502 -0.02686,-0.02673 0.327042,-0.450286 -0.277345,-1.671563 -1.424379,-2.812886 -1.149781,-1.144063 -2.400966,-1.771748 -2.846889,-1.43713 l -0.199378,0.200356 z"/>
  <path inkscape:connector-curvature="0" style="fill:url(#linearGradient2679);fill-opacity:1;stroke:none" id="path3256" d="m 39.107205,17.771299 c 0.44592,-0.334616 1.697104,0.293068 2.846887,1.43713 1.147033,1.141325 1.751421,2.362601 1.42438,2.812887 -0.0012,0.0017 0.02813,0.02504 0.02686,0.02673 l 0.199376,-0.200356 c 0.0013,-0.0017 -0.02811,-0.02502 -0.02686,-0.02673 0.327042,-0.450285 -0.277346,-1.671562 -1.42438,-2.812887 -1.14978,-1.144062 -2.400965,-1.771747 -2.846887,-1.437129 l -0.199377,0.200355 1.0E-6,0 z"/>
  <path inkscape:connector-curvature="0" style="fill:url(#linearGradient2676);fill-opacity:1;stroke:none" id="path3258" d="m 38.924488,17.954912 c 0.445919,-0.334617 1.697105,0.293067 2.846887,1.437131 1.147033,1.141324 1.751422,2.3626 1.424379,2.812885 -0.0012,0.0017 0.02814,0.02504 0.02686,0.02673 l 0.199378,-0.200354 c 0.0013,-0.0017 -0.02811,-0.02502 -0.02686,-0.02673 0.327042,-0.450287 -0.277346,-1.671563 -1.424379,-2.812887 -1.149782,-1.144063 -2.400967,-1.771748 -2.846888,-1.43713 l -0.199377,0.200355 0,0 z"/>
  <path inkscape:connector-curvature="0" style="fill:url(#linearGradient2670);fill-opacity:1;fill-rule:evenodd;stroke:url(#linearGradient2673);stroke-width:0.5;stroke-linecap:butt;stroke-linejoin:miter;stroke-miterlimit:4;stroke-opacity:1;stroke-dasharray:none" id="path3270" d="m 22.900104,38.256616 7.283734,-2.970838 0.06206,-0.06205 c 0.327041,-0.450289 -0.285228,-1.67166 -1.432262,-2.812988 -1.149783,-1.144062 -2.399488,-1.768277 -2.845409,-1.43366 l -3.068118,7.279536 -5.0E-6,0 z"/>
  <path inkscape:connector-curvature="0" style="fill:#0c0c0c;fill-opacity:1;fill-rule:evenodd;stroke:#0c0c0c;stroke-width:0.5;stroke-linecap:butt;stroke-linejoin:miter;stroke-miterlimit:4;stroke-opacity:1;stroke-dasharray:none" id="path3281" d="m 23.731173,36.285015 -0.831516,1.96381 1.986639,-0.814434 C 24.72707,37.243667 24.580078,37.049948 24.388905,36.859727 24.168814,36.64073 23.952334,36.46304 23.731173,36.285015 z"/>
</svg>
