<?xml version="1.0" encoding="UTF-8" standalone="no"?>
<!-- Created with Inkscape (http://www.inkscape.org/) -->
<svg xmlns:dc="http://purl.org/dc/elements/1.1/" xmlns:cc="http://creativecommons.org/ns#" xmlns:rdf="http://www.w3.org/1999/02/22-rdf-syntax-ns#" xmlns:svg="http://www.w3.org/2000/svg" xmlns="http://www.w3.org/2000/svg" xmlns:xlink="http://www.w3.org/1999/xlink" xmlns:sodipodi="http://sodipodi.sourceforge.net/DTD/sodipodi-0.dtd" xmlns:inkscape="http://www.inkscape.org/namespaces/inkscape" version="1.1" width="240" height="240" id="svg3858" inkscape:version="0.48.2 r9819" sodipodi:docname="icon.svg">
  <metadata id="metadata115">
    <rdf:RDF>
      <cc:Work rdf:about="">
        <dc:format>image/svg+xml</dc:format>
        <dc:type rdf:resource="http://purl.org/dc/dcmitype/StillImage"/>
        <dc:title/>
      </cc:Work>
    </rdf:RDF>
  </metadata>
  <sodipodi:namedview pagecolor="#ffffff" bordercolor="#666666" borderopacity="1" objecttolerance="10" gridtolerance="10" guidetolerance="10" inkscape:pageopacity="0" inkscape:pageshadow="2" inkscape:window-width="1280" inkscape:window-height="930" id="namedview113" showgrid="false" inkscape:zoom="4.9166667" inkscape:cx="25.62712" inkscape:cy="30.507233" inkscape:window-x="0" inkscape:window-y="31" inkscape:window-maximized="1" inkscape:current-layer="layer1"/>
  <defs id="defs3860">
    <linearGradient id="linearGradient8589">
      <stop id="stop8591" style="stop-color:#fefefe;stop-opacity:1" offset="0"/>
      <stop id="stop8593" style="stop-color:#cbcbcb;stop-opacity:1" offset="1"/>
    </linearGradient>
    <linearGradient x1="164.46144" y1="40.2950575" x2="181.79186" y2="27.2826815" id="linearGradient5573" xlink:href="#linearGradient8589" gradientUnits="userSpaceOnUse" gradientTransform="matrix(0.9976985,0,0,1.0642049,399.6222,56.405035)"/>
    <linearGradient id="linearGradient3931">
      <stop id="stop3933" style="stop-color:#8d8f8a;stop-opacity:1" offset="0"/>
      <stop id="stop3935" style="stop-color:#cbcbcb;stop-opacity:1" offset="1"/>
    </linearGradient>
    <linearGradient x1="-258.93202" y1="253.93223" x2="-258.93202" y2="14.5312355" id="linearGradient5571" xlink:href="#linearGradient3931" gradientUnits="userSpaceOnUse" gradientTransform="matrix(0.8074968,0,0,0.9358511,695.85435,31.528937)"/>
    <linearGradient id="linearGradient3600">
      <stop id="stop3602" style="stop-color:#f4f4f4;stop-opacity:1" offset="0"/>
      <stop id="stop3604" style="stop-color:#dbdbdb;stop-opacity:1" offset="1"/>
    </linearGradient>
    <linearGradient x1="125.661375" y1="33.6436965" x2="125.661375" y2="235.06668" id="linearGradient5569" xlink:href="#linearGradient3600" gradientUnits="userSpaceOnUse" gradientTransform="translate(398.8032,37.101337)"/>
    <radialGradient cx="3028.57145" cy="2433.23945" r="585.7143" fx="3028.57145" fy="2433.23945" id="radialGradient5567" xlink:href="#linearGradient5060" gradientUnits="userSpaceOnUse" gradientTransform="matrix(0.02409717,0,0,0.01537476,132.38792,193.145195)"/>
    <linearGradient id="linearGradient5060">
      <stop id="stop5062" style="stop-color:#000000;stop-opacity:1" offset="0"/>
      <stop id="stop5064" style="stop-color:#000000;stop-opacity:0" offset="1"/>
    </linearGradient>
    <radialGradient cx="3028.57145" cy="2433.23945" r="585.7143" fx="3028.57145" fy="2433.23945" id="radialGradient5565" xlink:href="#linearGradient5060" gradientUnits="userSpaceOnUse" gradientTransform="matrix(-0.02409717,0,0,0.01537476,107.61206,193.145195)"/>
    <linearGradient id="linearGradient5048">
      <stop id="stop5050" style="stop-color:#000000;stop-opacity:0" offset="0"/>
      <stop id="stop5056" style="stop-color:#000000;stop-opacity:1" offset="0.5"/>
      <stop id="stop5052" style="stop-color:#000000;stop-opacity:0" offset="1"/>
    </linearGradient>
    <linearGradient x1="1514.28575" y1="1833.23945" x2="1514.28575" y2="3047.52535" id="linearGradient5563" xlink:href="#linearGradient5048" gradientUnits="userSpaceOnUse" gradientTransform="matrix(0.0704142,0,0,0.01537476,-7.2485235,193.145035)"/>
    <linearGradient id="linearGradient4873">
      <stop id="stop4875" style="stop-color:#ffffff;stop-opacity:1" offset="0"/>
      <stop id="stop4877" style="stop-color:#ffffff;stop-opacity:0" offset="1"/>
    </linearGradient>
    <linearGradient x1="108.144875" y1="10.551051" x2="111.22717" y2="216.83176" id="linearGradient2509" xlink:href="#linearGradient4873" gradientUnits="userSpaceOnUse" gradientTransform="matrix(0.4873978,0,0,0.4781595,-59.447805,8.503559)"/>
    <linearGradient id="linearGradient3533">
      <stop id="stop3535" style="stop-color:#93b9dd;stop-opacity:1" offset="0"/>
      <stop id="stop3545" style="stop-color:#6396cd;stop-opacity:1" offset="1"/>
    </linearGradient>
    <linearGradient x1="76.864735" y1="25.2358125" x2="76.864735" y2="112.99838" id="linearGradient2517" xlink:href="#linearGradient3533" gradientUnits="userSpaceOnUse" gradientTransform="matrix(0.4873978,0,0,0.4781595,-59.447805,8.503559)"/>
    <linearGradient x1="45" y1="145.283785" x2="45" y2="130.14865" id="linearGradient2863" xlink:href="#linearGradient3290" gradientUnits="userSpaceOnUse" gradientTransform="matrix(1.1213238,-1.1263648,1.3858308,1.3783152,-192.16254,35.0270305)"/>
    <linearGradient id="linearGradient3290">
      <stop id="stop3292" style="stop-color:#e4db7b;stop-opacity:1" offset="0"/>
      <stop id="stop3294" style="stop-color:#f4f0c8;stop-opacity:1" offset="1"/>
    </linearGradient>
    <linearGradient x1="27.5894905" y1="186.858995" x2="47.610278" y2="206.95858" id="linearGradient2865" xlink:href="#linearGradient3191" gradientUnits="userSpaceOnUse" gradientTransform="matrix(0.9421616,0,0,0.9409994,4.6212899,-3.9533649)"/>
    <linearGradient id="linearGradient3191">
      <stop id="stop3193" style="stop-color:#cbbd27;stop-opacity:1" offset="0"/>
      <stop id="stop3195" style="stop-color:#9b901d;stop-opacity:1" offset="1"/>
    </linearGradient>
    <linearGradient x1="150.18858" y1="124.94797" x2="150.18858" y2="150.000705" id="linearGradient2868" xlink:href="#linearGradient3223" gradientUnits="userSpaceOnUse" gradientTransform="matrix(1.1213238,-1.1263648,1.3858308,1.3783152,-180.452485,23.264325)"/>
    <linearGradient id="linearGradient3223">
      <stop id="stop3225" style="stop-color:#999;stop-opacity:1" offset="0"/>
      <stop id="stop3231" style="stop-color:white;stop-opacity:1" offset="0.5"/>
      <stop id="stop3227" style="stop-color:#777;stop-opacity:1" offset="1"/>
    </linearGradient>
    <linearGradient x1="150.18858" y1="124.94797" x2="150.18858" y2="150.000705" id="linearGradient2871" xlink:href="#linearGradient3240" gradientUnits="userSpaceOnUse" gradientTransform="matrix(1.1213238,-1.1263648,1.3858308,1.3783152,-178.84682,21.65145)"/>
    <linearGradient id="linearGradient3240">
      <stop id="stop3242" style="stop-color:#3e3e3e;stop-opacity:1" offset="0"/>
      <stop id="stop3244" style="stop-color:#828282;stop-opacity:1" offset="0.5"/>
      <stop id="stop3246" style="stop-color:#3c3c3c;stop-opacity:1" offset="1"/>
    </linearGradient>
    <linearGradient x1="150.18858" y1="124.94797" x2="150.18858" y2="150.000705" id="linearGradient2874" xlink:href="#linearGradient3223" gradientUnits="userSpaceOnUse" gradientTransform="matrix(1.1213238,-1.1263648,1.3858308,1.3783152,-186.0591,28.89615)"/>
    <linearGradient id="linearGradient3058">
      <stop id="stop3060" style="stop-color:#999;stop-opacity:1" offset="0"/>
      <stop id="stop3062" style="stop-color:white;stop-opacity:1" offset="0.5"/>
      <stop id="stop3064" style="stop-color:#777;stop-opacity:1" offset="1"/>
    </linearGradient>
    <linearGradient x1="150.18858" y1="124.94797" x2="150.18858" y2="150.000705" id="linearGradient2877" xlink:href="#linearGradient3240" gradientUnits="userSpaceOnUse" gradientTransform="matrix(1.1213238,-1.1263648,1.3858308,1.3783152,-184.45344,27.28327)"/>
    <linearGradient id="linearGradient3067">
      <stop id="stop3069" style="stop-color:#3e3e3e;stop-opacity:1" offset="0"/>
      <stop id="stop3071" style="stop-color:#828282;stop-opacity:1" offset="0.5"/>
      <stop id="stop3073" style="stop-color:#3c3c3c;stop-opacity:1" offset="1"/>
    </linearGradient>
    <linearGradient x1="150.18858" y1="124.94797" x2="150.18858" y2="150.000705" id="linearGradient2880" xlink:href="#linearGradient3223" gradientUnits="userSpaceOnUse" gradientTransform="matrix(1.1213238,-1.1263648,1.3858308,1.3783152,-191.638745,34.5008855)"/>
    <linearGradient id="linearGradient3076">
      <stop id="stop3078" style="stop-color:#999;stop-opacity:1" offset="0"/>
      <stop id="stop3080" style="stop-color:white;stop-opacity:1" offset="0.5"/>
      <stop id="stop3082" style="stop-color:#777;stop-opacity:1" offset="1"/>
    </linearGradient>
    <linearGradient x1="150.18858" y1="124.94797" x2="150.18858" y2="150.000705" id="linearGradient2883" xlink:href="#linearGradient3240" gradientUnits="userSpaceOnUse" gradientTransform="matrix(1.1213238,-1.1263648,1.3858308,1.3783152,-190.033085,32.8880105)"/>
    <linearGradient id="linearGradient3085">
      <stop id="stop3087" style="stop-color:#3e3e3e;stop-opacity:1" offset="0"/>
      <stop id="stop3089" style="stop-color:#828282;stop-opacity:1" offset="0.5"/>
      <stop id="stop3091" style="stop-color:#3c3c3c;stop-opacity:1" offset="1"/>
    </linearGradient>
    <linearGradient x1="117.87986" y1="126.78446" x2="117.87986" y2="156.054695" id="linearGradient2888" xlink:href="#linearGradient3155" gradientUnits="userSpaceOnUse" gradientTransform="matrix(1.1539441,-1.1591317,1.184149,1.1777273,-170.995645,60.448)" spreadMethod="pad"/>
    <linearGradient id="linearGradient3155">
      <stop id="stop3157" style="stop-color:black;stop-opacity:1" offset="0"/>
      <stop id="stop3171" style="stop-color:#c3c3c3;stop-opacity:1" offset="0.13482948"/>
      <stop id="stop3173" style="stop-color:#8c8c8c;stop-opacity:1" offset="0.20224422"/>
      <stop id="stop3163" style="stop-color:white;stop-opacity:1" offset="0.26965895"/>
      <stop id="stop3165" style="stop-color:#757575;stop-opacity:1" offset="0.44650277"/>
      <stop id="stop3167" style="stop-color:#7d7d7d;stop-opacity:1" offset="0.57114136"/>
      <stop id="stop3169" style="stop-color:#b6b6b6;stop-opacity:1" offset="0.72038066"/>
      <stop id="stop3159" style="stop-color:black;stop-opacity:1" offset="1"/>
    </linearGradient>
    <filter x="-0.29989073" y="-1.2017514" width="5.5997815" height="7.403503" color-interpolation-filters="sRGB" id="filter3699">
      <feGaussianBlur id="feGaussianBlur3701" stdDeviation="1.0014601"/>
    </filter>
    <filter x="-0.29989073" y="-1.2017514" width="5.5997815" height="7.403503" color-interpolation-filters="sRGB" id="filter3699-0">
      <feGaussianBlur id="feGaussianBlur3701-6" stdDeviation="1.0014601"/>
    </filter>
    <linearGradient inkscape:collect="always" xlink:href="#linearGradient3155-0" id="linearGradient3285-9" gradientUnits="userSpaceOnUse" gradientTransform="matrix(0.79708517,-0.79124093,0.81794916,0.80393457,-36.9729155,88.814875)" spreadMethod="pad" x1="117.87986" y1="126.78446" x2="117.87986" y2="156.054695"/>
    <linearGradient id="linearGradient3155-0">
      <stop id="stop3157-6" style="stop-color:black;stop-opacity:1" offset="0"/>
      <stop id="stop3171-0" style="stop-color:#c3c3c3;stop-opacity:1" offset="0.13482948"/>
      <stop id="stop3173-2" style="stop-color:#8c8c8c;stop-opacity:1" offset="0.20224422"/>
      <stop id="stop3163-3" style="stop-color:white;stop-opacity:1" offset="0.26965895"/>
      <stop id="stop3165-8" style="stop-color:#757575;stop-opacity:1" offset="0.44650277"/>
      <stop id="stop3167-9" style="stop-color:#7d7d7d;stop-opacity:1" offset="0.57114136"/>
      <stop id="stop3169-9" style="stop-color:#b6b6b6;stop-opacity:1" offset="0.72038066"/>
      <stop id="stop3159-3" style="stop-color:black;stop-opacity:1" offset="1"/>
    </linearGradient>
    <linearGradient inkscape:collect="always" xlink:href="#linearGradient3240-0" id="linearGradient3287-5" gradientUnits="userSpaceOnUse" gradientTransform="matrix(0.77455274,-0.76887375,0.95726056,0.94085893,-50.123,70.00201)" x1="150.18858" y1="124.94797" x2="150.18858" y2="150.000705"/>
    <linearGradient id="linearGradient3240-0">
      <stop id="stop3242-0" style="stop-color:#3e3e3e;stop-opacity:1" offset="0"/>
      <stop id="stop3244-8" style="stop-color:#828282;stop-opacity:1" offset="0.5"/>
      <stop id="stop3246-1" style="stop-color:#3c3c3c;stop-opacity:1" offset="1"/>
    </linearGradient>
    <linearGradient inkscape:collect="always" xlink:href="#linearGradient3223-7" id="linearGradient3289-3" gradientUnits="userSpaceOnUse" gradientTransform="matrix(0.77455274,-0.76887375,0.95726056,0.94085893,-51.232105,71.10298)" x1="150.18858" y1="124.94797" x2="150.18858" y2="150.000705"/>
    <linearGradient id="linearGradient3223-7">
      <stop id="stop3225-9" style="stop-color:#999;stop-opacity:1" offset="0"/>
      <stop id="stop3231-3" style="stop-color:white;stop-opacity:1" offset="0.5"/>
      <stop id="stop3227-1" style="stop-color:#777;stop-opacity:1" offset="1"/>
    </linearGradient>
    <linearGradient inkscape:collect="always" xlink:href="#linearGradient3240-0" id="linearGradient3291-1" gradientUnits="userSpaceOnUse" gradientTransform="matrix(0.77455274,-0.76887375,0.95726056,0.94085893,-46.268868,66.176125)" x1="150.18858" y1="124.94797" x2="150.18858" y2="150.000705"/>
    <linearGradient id="linearGradient3408">
      <stop id="stop3410" style="stop-color:#3e3e3e;stop-opacity:1" offset="0"/>
      <stop id="stop3412" style="stop-color:#828282;stop-opacity:1" offset="0.5"/>
      <stop id="stop3414" style="stop-color:#3c3c3c;stop-opacity:1" offset="1"/>
    </linearGradient>
    <linearGradient inkscape:collect="always" xlink:href="#linearGradient3223-7" id="linearGradient3293-8" gradientUnits="userSpaceOnUse" gradientTransform="matrix(0.77455274,-0.76887375,0.95726056,0.94085893,-47.377975,67.277105)" x1="150.18858" y1="124.94797" x2="150.18858" y2="150.000705"/>
    <linearGradient id="linearGradient3417">
      <stop id="stop3419" style="stop-color:#999;stop-opacity:1" offset="0"/>
      <stop id="stop3421" style="stop-color:white;stop-opacity:1" offset="0.5"/>
      <stop id="stop3423" style="stop-color:#777;stop-opacity:1" offset="1"/>
    </linearGradient>
    <linearGradient inkscape:collect="always" xlink:href="#linearGradient3240-0" id="linearGradient3295-3" gradientUnits="userSpaceOnUse" gradientTransform="matrix(0.77455274,-0.76887375,0.95726056,0.94085893,-42.3961035,62.33176)" x1="150.18858" y1="124.94797" x2="150.18858" y2="150.000705"/>
    <linearGradient id="linearGradient3426">
      <stop id="stop3428" style="stop-color:#3e3e3e;stop-opacity:1" offset="0"/>
      <stop id="stop3430" style="stop-color:#828282;stop-opacity:1" offset="0.5"/>
      <stop id="stop3432" style="stop-color:#3c3c3c;stop-opacity:1" offset="1"/>
    </linearGradient>
    <linearGradient inkscape:collect="always" xlink:href="#linearGradient3223-7" id="linearGradient3297-2" gradientUnits="userSpaceOnUse" gradientTransform="matrix(0.77455274,-0.76887375,0.95726056,0.94085893,-43.505214,63.432735)" x1="150.18858" y1="124.94797" x2="150.18858" y2="150.000705"/>
    <linearGradient id="linearGradient3435">
      <stop id="stop3437" style="stop-color:#999;stop-opacity:1" offset="0"/>
      <stop id="stop3439" style="stop-color:white;stop-opacity:1" offset="0.5"/>
      <stop id="stop3441" style="stop-color:#777;stop-opacity:1" offset="1"/>
    </linearGradient>
    <linearGradient inkscape:collect="always" xlink:href="#linearGradient3290-1" id="linearGradient3299-8" gradientUnits="userSpaceOnUse" gradientTransform="matrix(0.77455274,-0.76887374,0.95726056,0.94085893,-51.593915,71.462135)" x1="45" y1="145.283785" x2="45" y2="130.14865"/>
    <linearGradient id="linearGradient3290-1">
      <stop id="stop3292-4" style="stop-color:#e4db7b;stop-opacity:1" offset="0"/>
      <stop id="stop3294-6" style="stop-color:#f4f0c8;stop-opacity:1" offset="1"/>
    </linearGradient>
    <linearGradient inkscape:collect="always" xlink:href="#linearGradient3191-6" id="linearGradient3301-9" gradientUnits="userSpaceOnUse" gradientTransform="matrix(0.65079672,0,0,0.6423405,84.33422,44.853526)" x1="27.5894905" y1="186.858995" x2="47.610278" y2="206.95858"/>
    <linearGradient id="linearGradient3191-6">
      <stop id="stop3193-3" style="stop-color:#cbbd27;stop-opacity:1" offset="0"/>
      <stop id="stop3195-0" style="stop-color:#9b901d;stop-opacity:1" offset="1"/>
    </linearGradient>
  </defs>
  <g id="layer1">
    <g id="g3359" transform="matrix(0.76601766,0,0,0.71080146,-282.046605,42.1378345)">
      <g id="g4" transform="matrix(0.11258685,0,0,0.11853756,450.508475,-16.9922615)" style="fill:#a4c639">
        <use id="use6" xlink:href="#b" style="stroke:#ffffff;stroke-width:71.9999981" x="0" y="0" width="3720.4724" height="5261.811"/>
        <use id="use8" transform="scale(-1,1)" xlink:href="#a" x="0" y="0" width="3720.4724" height="5261.811"/>
        <g id="a" style="stroke:#ffffff;stroke-width:35.99999905">
          <rect id="rect11" x="70" y="-430" width="65" height="430" transform="matrix(0.87461971,0.48480962,-0.48480962,0.87461971,0,0)" rx="32.5"/>
          <rect x="-715" y="205" width="240" height="665" rx="120" id="c"/>
          <use id="use14" xlink:href="#c" x="425" y="485" width="3720.4724" height="5261.811"/>
        </g>
        <g id="b">
          <ellipse id="ellipse17" ry="420" rx="455" cy="205" d="m 455,205 c 0,231.959595 -203.71044,420 -455,420 -251.28956,0 -455,-188.040405 -455,-420 0,-231.959595 203.71044,-420 455,-420 251.28956,0 455,188.040405 455,420 z" cx="0" sodipodi:cx="0" sodipodi:cy="41" sodipodi:rx="91" sodipodi:ry="84"/>
          <rect id="rect19" x="-455" y="100" width="910" height="910" rx="110"/>
        </g>
      </g>
      <g id="g21" transform="matrix(0.11258685,0,0,0.11853756,450.508475,-16.9922615)" style="fill:#ffffff;stroke:#ffffff;stroke-width:35.99999905">
        <path id="path23" d="M -475,222.5 H 95" inkscape:connector-curvature="0"/>
        <circle id="circle25" r="20" cx="-210" d="m -190,0 c 0,11.045695 -8.954305,20 -20,20 -11.045695,0 -20,-8.954305 -20,-20 0,-11.045695 8.954305,-20 20,-20 11.045695,0 20,8.954305 20,20 z" cy="0" sodipodi:cx="-42" sodipodi:cy="0" sodipodi:rx="4" sodipodi:ry="4"/>
        <circle id="circle27" r="20" cx="210" d="m 230,0 c 0,11.045695 -8.954305,20 -20,20 -11.045695,0 -20,-8.954305 -20,-20 0,-11.045695 8.954305,-20 20,-20 11.045695,0 20,8.954305 20,20 z" cy="0" sodipodi:cx="42" sodipodi:cy="0" sodipodi:rx="4" sodipodi:ry="4"/>
      </g>
    </g>
    <g transform="matrix(-1.1897021,0,0,0.96676088,757.77,-28.7381905)" id="g5516" style="display:inline">
      <g transform="matrix(0.80159266,0,0,0.9561265,435.747455,47.630987)" id="g2877">
        <rect width="170" height="18.6693535" x="35" y="221.330645" id="rect2879" style="opacity:0.40206185;fill:url(#linearGradient5563);fill-opacity:1;fill-rule:nonzero;stroke:none;stroke-width:5;marker:none;visibility:visible;display:inline;overflow:visible"/>
        <path d="m 35,221.331455 c 0,0 0,18.668325 0,18.668325 -6.204724,0.035 -15,-4.182625 -15,-9.335365 0,-5.152735 6.9240035,-9.332955 15,-9.33296 z" id="path2881" style="opacity:0.40206185;fill:url(#radialGradient5565);fill-opacity:1;fill-rule:nonzero;stroke:none;stroke-width:5;marker:none;visibility:visible;display:inline;overflow:visible" inkscape:connector-curvature="0"/>
        <path d="m 205,221.331455 c 0,0 0,18.668325 0,18.668325 6.20472,0.035 15,-4.182625 15,-9.335365 0,-5.152735 -6.924005,-9.332955 -15,-9.33296 z" id="path2883" style="opacity:0.40206185;fill:url(#radialGradient5567);fill-opacity:1;fill-rule:nonzero;stroke:none;stroke-width:5;marker:none;visibility:visible;display:inline;overflow:visible" inkscape:connector-curvature="0"/>
      </g>
      <path d="m 451.3032,64.601135 c 40.10145,0 60.20275,0 100.3042,0 7.0347,2.4269 44.8273,30.0757 54.696,49.2198 0,58.5935 0,97.18705 0,155.7806 -58.33345,0 -96.66675,0 -155.0002,0 0,-75.00015 0,-130.00025 0,-205.0004 z" id="rect2594" style="fill:url(#linearGradient5569);fill-opacity:1;stroke:url(#linearGradient5571);stroke-width:4.999609;stroke-linecap:butt;stroke-linejoin:round;stroke-miterlimit:4;stroke-opacity:1;stroke-dasharray:none;stroke-dashoffset:0" inkscape:connector-curvature="0"/>
      <path d="m 547.6409,66.174435 c 3.1875,20.6253 3.0473,45.17235 3.0473,45.17235 0,0 24.34865,-0.5575 54.42625,2.96965 -24.4844,-23.939 -41.64225,-33.9209 -57.47355,-48.142 z" id="path8596" style="fill:#000000;fill-opacity:0.32663317;fill-rule:evenodd;stroke:#000000;stroke-width:2.5;stroke-linecap:butt;stroke-linejoin:round;stroke-miterlimit:4;stroke-opacity:0.16582917;stroke-dasharray:none;display:inline" inkscape:connector-curvature="0"/>
      <path d="m 547.0928,64.640985 c 7.0611,20.6125 6.47545,41.3035 6.47545,41.3035 0,0 39.165,2.73655 50.8757,7.96965 0,-8.5557 -46.4875,-49.1271 -57.35115,-49.27315 z" id="path12038" style="fill:url(#linearGradient5573);fill-opacity:1;fill-rule:evenodd;stroke:none;display:inline" inkscape:connector-curvature="0"/>
    </g>
    <g id="g3350" transform="matrix(1.2288135,0,0,1,249.898015,69.15254)">
      <rect style="fill:#babdb6;fill-opacity:1;stroke:none;display:inline" id="rect2874" y="46.271181" x="-158.813555" ry="2.5000003" rx="2.14285715" height="5.0000005" width="120"/>
      <rect style="fill:#babdb6;fill-opacity:1;stroke:none;display:inline" id="rect2890" y="61.27118" x="-158.813555" ry="2.5000003" rx="2.14285715" height="5.0000005" width="120"/>
      <rect style="fill:#babdb6;fill-opacity:1;stroke:none;display:inline" id="rect2892" y="76.27118" x="-158.813555" ry="2.5000003" rx="2.14285715" height="5.0000005" width="120"/>
      <rect style="fill:#babdb6;fill-opacity:1;stroke:none;display:inline" id="rect2894" y="106.2712" x="-158.813555" ry="2.5000003" rx="2.14285715" height="5.0000005" width="120"/>
      <rect style="fill:#babdb6;fill-opacity:1;stroke:none;display:inline" id="rect2898" y="121.27118" x="-158.813555" ry="2.5000003" rx="2.14285715" height="5.0000005" width="120"/>
      <rect style="fill:#babdb6;fill-opacity:1;stroke:none;display:inline" id="rect2900" y="136.27118" x="-158.813555" ry="2.5000003" rx="2.14285715" height="5.0000005" width="120"/>
      <rect style="fill:#babdb6;fill-opacity:1;stroke:none;display:inline" id="rect1984" y="91.27118" x="-158.813555" ry="2.5000003" rx="2.14285715" height="5.0000005" width="120"/>
    </g>
    <path inkscape:connector-curvature="0" style="opacity:0.15;fill:#0c0c0c;fill-opacity:1;fill-rule:evenodd;stroke:none" id="path2422-3" d="m 195.179985,82.606415 c -1.200105,-0.6052 -2.07516,-0.3542 -2.633335,0.07925 l -74.36763,57.412205 -13.68523,10.593165 -0.42875,0.22625 -14.09454,40.859105 42.317565,-2.021125 0.3325,-0.26915 13.781495,-10.55032 74.315255,-57.852545 c 2.232765,-1.733835 -2.244765,-11.704605 -10.04709,-22.406755 -5.85177,-8.02656 -11.88985,-14.254475 -15.49021,-16.07016 l 0,0 z"/>
    <g transform="matrix(1.1486611,-0.13956541,0.13493357,1.188091,-40.8249885,-21.725762)" id="g3336">
      <path style="fill:url(#linearGradient3285-9);fill-opacity:1;stroke:#000000;stroke-width:3.43334945;stroke-linecap:butt;stroke-linejoin:round;stroke-miterlimit:4;stroke-opacity:1;stroke-dasharray:none;stroke-dashoffset:0" id="rect2383" d="m 111.1767,146.568055 c 2.67828,-2.03445 9.799725,1.26377 16.20159,7.555955 6.386555,6.277115 9.596055,13.148555 7.58035,15.818505 -0.0075,0.0105 0.1574,0.137 0.1496,0.14705 L 232.29039,73.6199 C 234.757755,71.17062 231.4076,63.906035 224.802505,57.41411 218.197405,50.92218 210.82625,47.6491265 208.35886,50.098425 L 111.1767,146.568055 z" inkscape:connector-curvature="0"/>
      <path style="opacity:0.8;fill:#ff9de8;fill-opacity:1;stroke:#dd78c5;stroke-width:3.43334945;stroke-linecap:butt;stroke-linejoin:round;stroke-miterlimit:4;stroke-opacity:1;stroke-dasharray:none;stroke-dashoffset:0" id="rect3175" d="m 196.498525,61.871805 c 2.678275,-2.034445 9.799735,1.263785 16.20159,7.555955 6.386555,6.277125 9.59606,13.148555 7.58035,15.81851 -0.0075,0.0105 0.1574,0.137 0.1496,0.14705 l 11.860335,-11.77338 0.24205,-0.2403 c 0.008,-0.0105 -0.15725,-0.13685 -0.1496,-0.147 2.01571,-2.66997 -1.193795,-9.54141 -7.580345,-15.81853 -6.401865,-6.292175 -13.523315,-9.5904045 -16.201595,-7.5559585 l -0.24205,0.24025 -11.860335,11.77338 z" inkscape:connector-curvature="0"/>
      <path style="opacity:0.6;fill:#000000;fill-opacity:1;stroke:none" id="path3208" d="m 111.1767,146.568055 c 2.67828,-2.03445 9.799725,1.263775 16.20159,7.555955 6.386555,6.27712 9.596055,13.148555 7.58035,15.818505 -0.0075,0.0105 0.1574,0.137 0.1496,0.14705 l 66.926195,-66.43549 0.24205,-0.2403 c 0.008,-0.0105 -0.1572,-0.13685 -0.1496,-0.14705 2.015705,-2.66996 -1.1938,-9.54139 -7.58035,-15.81851 -6.40186,-6.29217 -13.523315,-9.590405 -16.201595,-7.55596 l -0.24205,0.2403 -66.926195,66.435495 z" inkscape:connector-curvature="0"/>
      <path style="fill:url(#linearGradient3287-5);fill-opacity:1;stroke:none" id="path3233" d="m 183.204525,75.068335 c 2.67828,-2.034455 9.799735,1.263775 16.201595,7.55595 6.386555,6.277125 9.59606,13.14856 7.580345,15.81851 -0.0075,0.0105 0.1574,0.137 0.1496,0.14705 l 1.210235,-1.20137 c 0.008,-0.0105 -0.1572,-0.13685 -0.1496,-0.14705 2.01571,-2.66995 -1.19379,-9.54139 -7.58035,-15.818505 -6.401895,-6.29217 -13.52334,-9.590405 -16.201625,-7.555955 l -1.210235,1.20137 z" inkscape:connector-curvature="0"/>
      <path style="fill:url(#linearGradient3289-3);fill-opacity:1;stroke:none" id="path3216" d="m 182.09542,76.169305 c 2.67828,-2.034445 9.799735,1.263785 16.20159,7.55596 6.38656,6.27712 9.596065,13.148545 7.58035,15.8185 -0.0075,0.0105 0.1574,0.137 0.1496,0.14705 l 1.210235,-1.20137 c 0.008,-0.0105 -0.1573,-0.1368 -0.1496,-0.14705 2.015705,-2.66995 -1.193795,-9.54139 -7.58035,-15.81851 -6.401865,-6.29217 -13.523315,-9.59041 -16.2016,-7.555955 l -1.21023,1.201375 z" inkscape:connector-curvature="0"/>
      <path style="fill:url(#linearGradient3291-1);fill-opacity:1;stroke:none" id="path3248" d="m 187.058665,71.24245 c 2.678275,-2.03444 9.799735,1.263785 16.20159,7.555955 6.38655,6.277125 9.596055,13.14856 7.58035,15.81851 -0.0075,0.0105 0.1574,0.137 0.1496,0.14705 l 1.210235,-1.201365 c 0.008,-0.0105 -0.1572,-0.1368 -0.1496,-0.14705 2.01571,-2.669955 -1.19379,-9.541385 -7.580355,-15.818505 -6.40185,-6.29218 -13.523295,-9.590405 -16.20159,-7.55596 l -1.21023,1.201365 z" inkscape:connector-curvature="0"/>
      <path style="fill:url(#linearGradient3293-8);fill-opacity:1;stroke:none" id="path3250" d="m 185.949555,72.34343 c 2.67828,-2.034455 9.79974,1.263775 16.201595,7.555955 6.386555,6.27712 9.59606,13.14855 7.580355,15.818505 -0.0075,0.0105 0.1574,0.13695 0.1496,0.14705 l 1.210235,-1.201375 c 0.008,-0.0105 -0.1572,-0.1368 -0.1496,-0.14705 2.01572,-2.669955 -1.193785,-9.54139 -7.580345,-15.818505 -6.401855,-6.292175 -13.52331,-9.59041 -16.201595,-7.555955 l -1.210235,1.201365 z" inkscape:connector-curvature="0"/>
      <path style="fill:url(#linearGradient3295-3);fill-opacity:1;stroke:none" id="path3256" d="m 190.93143,67.398085 c 2.678275,-2.03445 9.799725,1.263775 16.201585,7.555955 6.386555,6.277125 9.596065,13.148555 7.58035,15.81851 -0.0075,0.0105 0.1574,0.137 0.1496,0.14705 l 1.21024,-1.20137 c 0.008,-0.0105 -0.1572,-0.13685 -0.1496,-0.147 2.01571,-2.66996 -1.19379,-9.541395 -7.58035,-15.81851 -6.401855,-6.29218 -13.52331,-9.59041 -16.20159,-7.555965 l -1.210235,1.201365 z" inkscape:connector-curvature="0"/>
      <path style="fill:url(#linearGradient3297-2);fill-opacity:1;stroke:none" id="path3258" d="m 189.82232,68.499055 c 2.678275,-2.03445 9.799735,1.263785 16.201595,7.55596 6.38655,6.27712 9.596055,13.14855 7.580345,15.818505 -0.0075,0.0105 0.1574,0.137 0.1496,0.14705 l 1.21023,-1.20136 c 0.008,-0.0105 -0.15725,-0.13685 -0.1496,-0.14705 2.01571,-2.66996 -1.193795,-9.541395 -7.58035,-15.81851 -6.401855,-6.292175 -13.523305,-9.59041 -16.201585,-7.555955 l -1.210245,1.20136 z" inkscape:connector-curvature="0"/>
      <path style="fill:url(#linearGradient3299-8);fill-opacity:1;fill-rule:evenodd;stroke:url(#linearGradient3301-9);stroke-width:3.43334945;stroke-linecap:butt;stroke-linejoin:miter;stroke-miterlimit:4;stroke-opacity:1;stroke-dasharray:none" id="path3270" d="m 91.49877,189.19481 43.497475,-18.577375 C 137.01195,167.94749 133.756615,160.395175 127.370065,154.11805 120.9682,147.825875 113.51046,144.54722 110.83218,146.581665 l -19.33341,42.613145 z" inkscape:connector-curvature="0"/>
      <path style="fill:#000000;fill-opacity:1;fill-rule:evenodd;stroke:#000000;stroke-width:3.43334945;stroke-linecap:butt;stroke-linejoin:miter;stroke-miterlimit:4;stroke-opacity:1;stroke-dasharray:none" id="path3281" d="m 96.82879,177.653375 -5.33066,11.49675 11.762255,-5.175355 c -0.87844,-1.056995 -1.684965,-2.13426 -2.74939,-3.18045 -1.225435,-1.20445 -2.440245,-2.172315 -3.682205,-3.140945 z" inkscape:connector-curvature="0"/>
    </g>
  </g>
</svg>
