<?xml version="1.0" encoding="UTF-8" standalone="no"?>
<!-- Created with Inkscape (http://www.inkscape.org/) -->
<svg xmlns:dc="http://purl.org/dc/elements/1.1/" xmlns:cc="http://creativecommons.org/ns#" xmlns:rdf="http://www.w3.org/1999/02/22-rdf-syntax-ns#" xmlns:svg="http://www.w3.org/2000/svg" xmlns="http://www.w3.org/2000/svg" xmlns:xlink="http://www.w3.org/1999/xlink" xmlns:sodipodi="http://sodipodi.sourceforge.net/DTD/sodipodi-0.dtd" xmlns:inkscape="http://www.inkscape.org/namespaces/inkscape" version="1.0" width="24" height="24" id="svg3221" inkscape:version="0.48.2 r9819" sodipodi:docname="documentsave_as.svg">
  <metadata id="metadata71">
    <rdf:RDF>
      <cc:Work rdf:about="">
        <dc:format>image/svg+xml</dc:format>
        <dc:type rdf:resource="http://purl.org/dc/dcmitype/StillImage"/>
      </cc:Work>
    </rdf:RDF>
  </metadata>
  <sodipodi:namedview pagecolor="#ffffff" bordercolor="#666666" borderopacity="1" objecttolerance="10" gridtolerance="10" guidetolerance="10" inkscape:pageopacity="0" inkscape:pageshadow="2" inkscape:window-width="640" inkscape:window-height="480" id="namedview69" showgrid="false" inkscape:zoom="4.9166667" inkscape:cx="24" inkscape:cy="24" inkscape:window-x="0" inkscape:window-y="31" inkscape:window-maximized="0" inkscape:current-layer="svg3221"/>
  <defs id="defs3223">
    <linearGradient id="linearGradient2804">
      <stop id="stop2806" style="stop-color:black;stop-opacity:0" offset="0"/>
      <stop id="stop2812" style="stop-color:black;stop-opacity:1" offset="0.5"/>
      <stop id="stop2808" style="stop-color:black;stop-opacity:0" offset="1"/>
    </linearGradient>
    <linearGradient x1="10.9375" y1="24.0004885" x2="10.9375" y2="20" id="linearGradient3936" xlink:href="#linearGradient2804" gradientUnits="userSpaceOnUse"/>
    <radialGradient cx="0.5" cy="22" r="2.5" fx="0.5" fy="22" id="radialGradient3934" xlink:href="#linearGradient2781" gradientUnits="userSpaceOnUse" gradientTransform="matrix(2,0,0,0.8,18,4.4)"/>
    <linearGradient id="linearGradient2781">
      <stop id="stop2783" style="stop-color:black;stop-opacity:1" offset="0"/>
      <stop id="stop2785" style="stop-color:black;stop-opacity:0" offset="1"/>
    </linearGradient>
    <radialGradient cx="0.5" cy="22" r="2.5" fx="0.5" fy="22" id="radialGradient3932" xlink:href="#linearGradient2781" gradientUnits="userSpaceOnUse" gradientTransform="matrix(2,0,0,0.8,-6.5,-39.6)"/>
    <linearGradient id="linearGradient6375">
      <stop id="stop6377" style="stop-color:#040404;stop-opacity:1" offset="0"/>
      <stop id="stop6379" style="stop-color:#606060;stop-opacity:1" offset="1"/>
    </linearGradient>
    <linearGradient x1="1.8130808" y1="1.2922716" x2="20.984009" y2="20.4631995" id="linearGradient2475" xlink:href="#linearGradient6375" gradientUnits="userSpaceOnUse" gradientTransform="matrix(-1.03302,0,0,-1.0330201,23.621476,24.1214785)"/>
    <linearGradient id="linearGradient2388">
      <stop id="stop2390" style="stop-color:#010306;stop-opacity:1" offset="0"/>
      <stop id="stop2392" style="stop-color:#010306;stop-opacity:0.39607844" offset="1"/>
    </linearGradient>
    <linearGradient x1="16.674528" y1="14.34651" x2="17.987028" y2="16.5246985" id="linearGradient2472" xlink:href="#linearGradient2388" gradientUnits="userSpaceOnUse" gradientTransform="matrix(-1.0465566,0,0,-1.0194947,24.308678,23.8402595)"/>
    <linearGradient id="linearGradient2294">
      <stop id="stop2296" style="stop-color:#262626;stop-opacity:1" offset="0"/>
      <stop id="stop2298" style="stop-color:#122339;stop-opacity:0" offset="1"/>
    </linearGradient>
    <linearGradient x1="9.375" y1="13.827284" x2="9.4133585" y2="18.3873405" id="linearGradient4733" xlink:href="#linearGradient2294" gradientUnits="userSpaceOnUse" gradientTransform="matrix(1.0625761,0,0,1.019071,-24.391405,-23.8328455)"/>
    <linearGradient id="linearGradient4235">
      <stop id="stop4237" style="stop-color:#d4d4dc;stop-opacity:1" offset="0"/>
      <stop id="stop4239" style="stop-color:#848489;stop-opacity:1" offset="1"/>
    </linearGradient>
    <linearGradient x1="5" y1="13.9982355" x2="15.5" y2="21" id="linearGradient4731" xlink:href="#linearGradient4235" gradientUnits="userSpaceOnUse" gradientTransform="matrix(-1.062576,0,0,-1.019071,24.3914035,23.832845)"/>
    <linearGradient id="linearGradient2249">
      <stop id="stop2251" style="stop-color:#010306;stop-opacity:1" offset="0"/>
      <stop id="stop2253" style="stop-color:#010306;stop-opacity:0" offset="1"/>
    </linearGradient>
    <linearGradient x1="18.8125" y1="3.8125" x2="18.8125" y2="1.74149475" id="linearGradient4727" xlink:href="#linearGradient2249" gradientUnits="userSpaceOnUse" gradientTransform="matrix(1.041515,0,0,-1.0566113,0.28295645,24.1604335)"/>
    <linearGradient id="linearGradient2268">
      <stop id="stop2270" style="stop-color:#eeeeec;stop-opacity:1" offset="0"/>
      <stop id="stop2272" style="stop-color:white;stop-opacity:1" offset="1"/>
    </linearGradient>
    <linearGradient x1="10.9375" y1="3.80297325" x2="10.9375" y2="9.257105" id="linearGradient4725" xlink:href="#linearGradient2268" gradientUnits="userSpaceOnUse" gradientTransform="matrix(1.0444099,0,0,1.0592128,0.2503904,-24.1644935)"/>
    <linearGradient id="linearGradient2555">
      <stop id="stop2557" style="stop-color:white;stop-opacity:1" offset="0"/>
      <stop id="stop2561" style="stop-color:#e6e6e6;stop-opacity:1" offset="0.5"/>
      <stop id="stop2563" style="stop-color:white;stop-opacity:1" offset="0.75"/>
      <stop id="stop2565" style="stop-color:#e1e1e1;stop-opacity:1" offset="0.84166664"/>
      <stop id="stop2559" style="stop-color:white;stop-opacity:1" offset="1"/>
    </linearGradient>
    <linearGradient x1="5" y1="13.9982355" x2="15.5" y2="21" id="linearGradient4723" xlink:href="#linearGradient2555" gradientUnits="userSpaceOnUse" gradientTransform="matrix(-1.062576,0,0,-1.019071,24.3914035,23.832845)"/>
    <linearGradient id="linearGradient2319">
      <stop id="stop2321" style="stop-color:white;stop-opacity:1" offset="0"/>
      <stop id="stop2323" style="stop-color:white;stop-opacity:0" offset="1"/>
    </linearGradient>
    <linearGradient x1="10.2424175" y1="20.4326955" x2="10.2424175" y2="14.5673055" id="linearGradient3219" xlink:href="#linearGradient2319" gradientUnits="userSpaceOnUse" gradientTransform="matrix(-1.093999,0,0,-1.0598351,24.692087,24.546216)"/>
    <linearGradient inkscape:collect="always" xlink:href="#linearGradient3290-678" id="linearGradient2670" gradientUnits="userSpaceOnUse" gradientTransform="matrix(0.6380091,-0.6411367,0.8596263,0.8553493,-1.3136164,8.3384295)" x1="4.5" y1="14.5283785" x2="4.5" y2="13.014865"/>
    <linearGradient id="linearGradient3290-678">
      <stop id="stop2607" style="stop-color:#ece5a5;stop-opacity:1" offset="0"/>
      <stop id="stop2609" style="stop-color:#fcfbf2;stop-opacity:1" offset="1"/>
    </linearGradient>
    <linearGradient inkscape:collect="always" xlink:href="#linearGradient3191-577" id="linearGradient2673" gradientUnits="userSpaceOnUse" gradientTransform="matrix(0.5603647,0.02418622,0.02415646,0.5596736,10.2903295,6.5251765)" x1="2.75894905" y1="18.6858995" x2="4.7610278" y2="20.695858"/>
    <linearGradient id="linearGradient3191-577">
      <stop id="stop2613" style="stop-color:#dbce48;stop-opacity:1" offset="0"/>
      <stop id="stop2615" style="stop-color:#c5b625;stop-opacity:1" offset="1"/>
    </linearGradient>
    <linearGradient inkscape:collect="always" xlink:href="#linearGradient3223-699" id="linearGradient2676" gradientUnits="userSpaceOnUse" gradientTransform="matrix(0.6380091,-0.6411367,0.8596262,0.8553492,-0.6473374,7.668886)" x1="15.018858" y1="12.494797" x2="15.018858" y2="15.0000705"/>
    <linearGradient id="linearGradient3223-699">
      <stop id="stop2599" style="stop-color:#b1b1b1;stop-opacity:1" offset="0"/>
      <stop id="stop2601" style="stop-color:#ffffff;stop-opacity:1" offset="0.5"/>
      <stop id="stop2603" style="stop-color:#8f8f8f;stop-opacity:1" offset="1"/>
    </linearGradient>
    <linearGradient inkscape:collect="always" xlink:href="#linearGradient3240-907" id="linearGradient2679" gradientUnits="userSpaceOnUse" gradientTransform="matrix(0.6380091,-0.6411367,0.8596262,0.8553492,-0.5559789,7.577079)" x1="15.018858" y1="12.494797" x2="15.018858" y2="15.0000705"/>
    <linearGradient id="linearGradient3240-907">
      <stop id="stop2591" style="stop-color:#565656;stop-opacity:1" offset="0"/>
      <stop id="stop2593" style="stop-color:#9a9a9a;stop-opacity:1" offset="0.5"/>
      <stop id="stop2595" style="stop-color:#545454;stop-opacity:1" offset="1"/>
    </linearGradient>
    <linearGradient inkscape:collect="always" xlink:href="#linearGradient3223-768" id="linearGradient2682" gradientUnits="userSpaceOnUse" gradientTransform="matrix(0.6380091,-0.6411367,0.8596262,0.8553492,-0.9663424,7.9894535)" x1="15.018858" y1="12.494797" x2="15.018858" y2="15.0000705"/>
    <linearGradient id="linearGradient3223-768">
      <stop id="stop2583" style="stop-color:#b1b1b1;stop-opacity:1" offset="0"/>
      <stop id="stop2585" style="stop-color:#ffffff;stop-opacity:1" offset="0.5"/>
      <stop id="stop2587" style="stop-color:#8f8f8f;stop-opacity:1" offset="1"/>
    </linearGradient>
    <linearGradient inkscape:collect="always" xlink:href="#linearGradient3240-686" id="linearGradient2685" gradientUnits="userSpaceOnUse" gradientTransform="matrix(0.6380091,-0.6411367,0.8596262,0.8553492,-0.8749834,7.8976475)" x1="15.018858" y1="12.494797" x2="15.018858" y2="15.0000705"/>
    <linearGradient id="linearGradient3240-686">
      <stop id="stop2575" style="stop-color:#565656;stop-opacity:1" offset="0"/>
      <stop id="stop2577" style="stop-color:#9a9a9a;stop-opacity:1" offset="0.5"/>
      <stop id="stop2579" style="stop-color:#545454;stop-opacity:1" offset="1"/>
    </linearGradient>
    <linearGradient inkscape:collect="always" xlink:href="#linearGradient3223-789" id="linearGradient2688" gradientUnits="userSpaceOnUse" gradientTransform="matrix(0.6380091,-0.6411367,0.8596262,0.8553492,-1.2838119,8.3084805)" x1="15.018858" y1="12.494797" x2="15.018858" y2="15.0000705"/>
    <linearGradient id="linearGradient3223-789">
      <stop id="stop2567" style="stop-color:#b1b1b1;stop-opacity:1" offset="0"/>
      <stop id="stop2569" style="stop-color:#ffffff;stop-opacity:1" offset="0.5"/>
      <stop id="stop2571" style="stop-color:#8f8f8f;stop-opacity:1" offset="1"/>
    </linearGradient>
    <linearGradient inkscape:collect="always" xlink:href="#linearGradient3240-279" id="linearGradient2691" gradientUnits="userSpaceOnUse" gradientTransform="matrix(0.6380091,-0.6411367,0.8596262,0.8553492,-1.1924534,8.216674)" x1="15.018858" y1="12.494797" x2="15.018858" y2="15.0000705"/>
    <linearGradient id="linearGradient3240-279">
      <stop id="stop2559-9" style="stop-color:#565656;stop-opacity:1" offset="0"/>
      <stop id="stop2561-3" style="stop-color:#9a9a9a;stop-opacity:1" offset="0.5"/>
      <stop id="stop2563-5" style="stop-color:#545454;stop-opacity:1" offset="1"/>
    </linearGradient>
    <linearGradient inkscape:collect="always" xlink:href="#linearGradient3155-40" id="linearGradient2697" gradientUnits="userSpaceOnUse" gradientTransform="matrix(0.6565695,-0.659788,0.7345237,0.7308691,0.010575095,9.904717)" spreadMethod="pad" x1="11.787986" y1="12.678446" x2="11.787986" y2="15.6054695"/>
    <linearGradient id="linearGradient3155-40">
      <stop id="stop2541" style="stop-color:#181818;stop-opacity:1" offset="0"/>
      <stop id="stop2543" style="stop-color:#dbdbdb;stop-opacity:1" offset="0.13482948"/>
      <stop id="stop2545" style="stop-color:#a4a4a4;stop-opacity:1" offset="0.20224422"/>
      <stop id="stop2547" style="stop-color:#ffffff;stop-opacity:1" offset="0.26965895"/>
      <stop id="stop2549" style="stop-color:#8d8d8d;stop-opacity:1" offset="0.44650277"/>
      <stop id="stop2551" style="stop-color:#959595;stop-opacity:1" offset="0.57114136"/>
      <stop id="stop2553" style="stop-color:#cecece;stop-opacity:1" offset="0.72038066"/>
      <stop id="stop2555" style="stop-color:#181818;stop-opacity:1" offset="1"/>
    </linearGradient>
  </defs>
  <g id="layer1">
    <g transform="matrix(1.0212766,0,0,1.037397,-0.51063835,-0.897528)" id="g2822" style="opacity:0.3">
      <rect width="5" height="4" x="-5.5" y="-24" transform="scale(-1,-1)" id="rect1892" style="fill:url(#radialGradient3932);fill-opacity:1;fill-rule:nonzero;stroke:none;stroke-width:0.5;marker:none;visibility:visible;display:inline;overflow:visible"/>
      <rect width="5" height="4" x="19" y="20" id="rect2789" style="fill:url(#radialGradient3934);fill-opacity:1;fill-rule:nonzero;stroke:none;stroke-width:0.5;marker:none;visibility:visible;display:inline;overflow:visible"/>
      <rect width="13.5" height="4" x="5.5" y="20" id="rect2793" style="fill:url(#linearGradient3936);fill-opacity:1;fill-rule:nonzero;stroke:none;stroke-width:0.5;marker:none;visibility:visible;display:inline;overflow:visible"/>
    </g>
    <path d="m 21.4160445,22.3136905 -18.8320869,0 c -0.4299647,0 -0.397648,0.03232 -0.397648,-0.3976455 l 0,-18.8320889 c 0,-0.4299653 -0.0323165,-0.39764645 0.397648,-0.39764645 l 17.4219489,0 1.807784,1.8077858 0,17.42194955 c 0,0.429964 0.03232,0.3976455 -0.397646,0.3976455 z" id="rect1314" style="fill:url(#linearGradient2475);fill-opacity:1;fill-rule:nonzero;stroke:#121212;stroke-width:0.371515455;stroke-linecap:round;stroke-linejoin:round;stroke-miterlimit:4;stroke-opacity:1;stroke-dasharray:none;stroke-dashoffset:0;marker:none;visibility:visible;display:inline;overflow:visible"/>
    <path d="m 17.471994,9.3124595 -11.9672685,0 c -0.4537165,0 -0.8189827,-0.355823 -0.8189827,-0.7978075 l 0,-5.8289092 13.6052362,0 0,5.8289092 c 0,0.4419845 -0.3652665,0.7978075 -0.818985,0.7978075 z" id="rect2194" style="opacity:0.26190473;fill:none;stroke:url(#linearGradient2472);stroke-width:0.37148562;stroke-linecap:round;stroke-linejoin:round;stroke-miterlimit:4;stroke-opacity:1;stroke-dasharray:none;stroke-dashoffset:0;marker:none;visibility:visible;display:inline;overflow:visible"/>
    <rect width="3.71901585" height="5.095356" x="-17.219015" y="-8.801547" transform="scale(-1,-1)" id="rect2284" style="fill:url(#linearGradient4733);fill-opacity:1;fill-rule:nonzero;stroke:none;stroke-width:0.375;marker:none;visibility:visible;display:inline;overflow:visible"/>
    <path d="m 18.115565,9.311083 c 0.1601805,-0.019415 0.3158975,-0.094957 0.431671,-0.191077 0.1605155,-0.1398605 0.265644,-0.347894 0.265644,-0.5732275 l 0,-5.85965845 -10.6257595,0 0,5.85965845 c 0,0.4241595 0.3546645,0.7643045 0.796932,0.7643045 l 9.031896,0 c 0.03455,0 0.0662445,0.00405 0.0996165,0 z m -1.660276,-1.0190725 c -0.01958,0.0038 -0.04562,0 -0.0664105,0 l -2.058741,0 c -0.067571,0 -0.1325665,-0.02783 -0.1826305,-0.063693 -0.014815,-0.011715 -0.03759,-0.03356 -0.04981,-0.047765 -0.037395,-0.048015 -0.066411,-0.1103485 -0.066411,-0.1751525 l 0,-3.5030572 c 0,-0.06480425 0.029015,-0.12713715 0.066411,-0.1751524 0.01222,-0.0142095 0.03499,-0.0360525 0.04981,-0.04777 0.050064,-0.035862 0.1150595,-0.06369175 0.1826305,-0.06369175 l 2.058741,0 c 0.067571,0 0.1325665,0.0278295 0.1826295,0.06369175 0.014815,0.0117175 0.03759,0.033561 0.04981,0.04777 0.037395,0.048015 0.066412,0.11034815 0.066412,0.1751524 l 0,3.5030572 c 0,0.064804 -0.029015,0.1271375 -0.066412,0.1751525 -0.012215,0.01421 -0.03499,0.03605 -0.04981,0.047765 -0.03466,0.02483 -0.072166,0.055091 -0.116219,0.063693 z" id="rect2192" style="fill:url(#linearGradient4731);fill-opacity:1;fill-rule:nonzero;stroke:#555753;stroke-width:0.37424016;stroke-linecap:round;stroke-linejoin:round;stroke-miterlimit:4;stroke-opacity:1;stroke-dasharray:none;stroke-dashoffset:0;marker:none;visibility:visible;display:inline;overflow:visible"/>
    <rect width="1.03302" height="1.03302015" x="2.9610746" y="-21.022419" transform="scale(1,-1)" id="rect2278" style="opacity:0.2;fill:white;fill-opacity:1;fill-rule:nonzero;stroke:none;stroke-width:0.375;marker:none;visibility:visible;display:inline;overflow:visible"/>
    <rect width="0.51651" height="0.51651005" x="2.9610746" y="-21.022419" transform="scale(1,-1)" id="rect2276" style="fill:#010306;fill-opacity:1;fill-rule:nonzero;stroke:none;stroke-width:0.375;marker:none;visibility:visible;display:inline;overflow:visible"/>
    <rect width="1.03302" height="1.03302015" x="20.005905" y="-21.022419" transform="scale(1,-1)" id="rect2280" style="opacity:0.2;fill:white;fill-opacity:1;fill-rule:nonzero;stroke:none;stroke-width:0.375;marker:none;visibility:visible;display:inline;overflow:visible"/>
    <rect width="0.51651" height="0.51651005" x="20.005905" y="-21.022419" transform="scale(1,-1)" id="rect2282" style="fill:#010306;fill-opacity:1;fill-rule:nonzero;stroke:none;stroke-width:0.375;marker:none;visibility:visible;display:inline;overflow:visible"/>
    <path d="m 19.8113625,22.3113625 0,-10.8221955 c 0,-0.443493 -0.3519355,-0.800529 -0.7890905,-0.800529 l -14.04454355,0 c -0.4371562,0 -0.78909065,0.357036 -0.78909065,0.800529 l 0,10.8221955 15.6227247,0 z" id="rect2247" style="opacity:0.6;fill:none;stroke:url(#linearGradient4727);stroke-width:0.377275465;stroke-linecap:round;stroke-linejoin:round;stroke-miterlimit:4;stroke-opacity:1;stroke-dasharray:none;stroke-dashoffset:0;marker:none;visibility:visible;display:inline;overflow:visible"/>
    <rect width="14.6217365" height="11.1217355" rx="0.0985813" ry="0.09997856" x="4.68913175" y="-22.3108655" transform="scale(1,-1)" id="rect2257" style="fill:url(#linearGradient4725);fill-opacity:1;fill-rule:nonzero;stroke:#e2e2df;stroke-width:0.37826422;stroke-linecap:round;stroke-linejoin:round;stroke-miterlimit:4;stroke-opacity:1;stroke-dasharray:none;stroke-dashoffset:0;marker:none;visibility:visible;display:inline;overflow:visible"/>
    <path d="m 4.70743975,22.3134575 14.58512075,0" id="path2264" style="fill:#3f6cff;fill-opacity:0.75;fill-rule:evenodd;stroke:#575757;stroke-width:0.3730855;stroke-linecap:round;stroke-linejoin:round;stroke-miterlimit:4;stroke-opacity:1;stroke-dasharray:none;display:inline"/>
    <path d="m 4.68720545,18.2503315 14.62558905,0" id="path2329" style="fill:none;stroke:#d3d7cf;stroke-width:0.432289035;stroke-linecap:round;stroke-linejoin:round;stroke-miterlimit:4;stroke-opacity:1;stroke-dasharray:none;display:inline"/>
    <path d="m 4.68720545,14.2503315 14.62558905,0" id="path2331" style="fill:none;stroke:#d3d7cf;stroke-width:0.432289035;stroke-linecap:round;stroke-linejoin:round;stroke-miterlimit:4;stroke-opacity:1;stroke-dasharray:none;display:inline"/>
    <path d="m 18.115565,9.311083 c 0.1601805,-0.019415 0.3158975,-0.094957 0.431671,-0.191077 0.1605155,-0.1398605 0.265644,-0.347894 0.265644,-0.5732275 l 0,-5.85965845 -10.6257595,0 0,5.85965845 c 0,0.4241595 0.3546645,0.7643045 0.796932,0.7643045 l 9.031896,0 c 0.03455,0 0.0662445,0.00405 0.0996165,0 z m -1.660276,-1.0190725 c -0.01958,0.0038 -0.04562,0 -0.0664105,0 l -2.058741,0 c -0.067571,0 -0.1325665,-0.02783 -0.1826305,-0.063693 -0.014815,-0.011715 -0.03759,-0.03356 -0.04981,-0.047765 -0.037395,-0.048015 -0.066411,-0.1103485 -0.066411,-0.1751525 l 0,-3.5030572 c 0,-0.06480425 0.029015,-0.12713715 0.066411,-0.1751524 0.01222,-0.0142095 0.03499,-0.0360525 0.04981,-0.04777 0.050064,-0.035862 0.1150595,-0.06369175 0.1826305,-0.06369175 l 2.058741,0 c 0.067571,0 0.1325665,0.0278295 0.1826295,0.06369175 0.014815,0.0117175 0.03759,0.033561 0.04981,0.04777 0.037395,0.048015 0.066412,0.11034815 0.066412,0.1751524 l 0,3.5030572 c 0,0.064804 -0.029015,0.1271375 -0.066412,0.1751525 -0.012215,0.01421 -0.03499,0.03605 -0.04981,0.047765 -0.03466,0.02483 -0.072166,0.055091 -0.116219,0.063693 z" id="path7255" style="opacity:0.5;fill:url(#linearGradient4723);fill-opacity:1;fill-rule:nonzero;stroke:#555753;stroke-width:0.37424016;stroke-linecap:round;stroke-linejoin:round;stroke-miterlimit:4;stroke-opacity:1;stroke-dasharray:none;stroke-dashoffset:0;marker:none;visibility:visible;display:inline;overflow:visible"/>
    <path d="m 18.1280935,8.9136475 -9.2824015,0 c -0.160709,0 -0.29009,-0.1253405 -0.29009,-0.2810315 l 0,-5.5480617 9.8625805,0 0,5.5480617 c 0,0.155691 -0.1293795,0.2810315 -0.290089,0.2810315 z" id="rect2316" style="opacity:0.4;fill:none;stroke:url(#linearGradient3219);stroke-width:0.38725385;stroke-linecap:round;stroke-linejoin:round;stroke-miterlimit:4;stroke-opacity:1;stroke-dasharray:none;stroke-dashoffset:0;marker:none;visibility:visible;display:inline;overflow:visible"/>
  </g>
  <path inkscape:connector-curvature="0" style="opacity:0.15;fill:#0c0c0c;fill-opacity:1;fill-rule:evenodd;stroke:none" id="path2422" d="m 19.7515825,11.945374 c -0.0866285,-0.0509945 -0.1536585,-0.03773 -0.1979415,-0.009355 l -5.898054,3.755712 -1.085525,0.6931775 -0.03342,0.014025 -1.285199,2.8960245 3.185071,0.0959345 0.02644,-0.017695 1.092505,-0.6895035 5.8965845,-3.788103 c 0.1771355,-0.1134965 -0.103009,-0.865707 -0.6284275,-1.6903125 -0.3940655,-0.618451 -0.8121465,-1.106922 -1.0720335,-1.2599045 l 0,0 z"/>
  <path inkscape:connector-curvature="0" style="fill:url(#linearGradient2697);fill-opacity:1;stroke:#0c0c0c;stroke-width:0.25;stroke-linecap:butt;stroke-linejoin:round;stroke-miterlimit:4;stroke-opacity:1;stroke-dasharray:none;stroke-dashoffset:0" id="rect2383" d="m 12.9841025,15.487355 c 0.2229605,-0.167308 0.848552,0.1465335 1.423444,0.718565 0.573517,0.570663 0.87571,1.181301 0.71219,1.406444 -0.0006,0.00085 0.01407,0.01252 0.01343,0.013365 L 23.138189,9.581466 C 23.34143,9.3772285 23.0256475,8.731813 22.4325045,8.141622 21.8393635,7.551431 21.192365,7.238854 20.9891225,7.4430925 L 12.9841025,15.487355 z"/>
  <path inkscape:connector-curvature="0" style="opacity:0.8;fill:#ffb6ed;fill-opacity:1;stroke:#e28ccd;stroke-width:0.25;stroke-linecap:butt;stroke-linejoin:round;stroke-miterlimit:4;stroke-opacity:1;stroke-dasharray:none;stroke-dashoffset:0" id="rect3175" d="m 20.012172,8.424833 c 0.2229605,-0.167308 0.8485525,0.146534 1.423444,0.718565 0.5735165,0.5706625 0.87571,1.181301 0.7121895,1.4064435 -0.0006,0.00085 0.01407,0.01252 0.01343,0.013365 l 0.9769515,-0.981741 0.01994,-0.020035 c 0.00065,-0.00085 -0.014055,-0.01251 -0.01343,-0.013365 0.163518,-0.2251425 -0.138676,-0.8357805 -0.7121925,-1.406443 -0.574891,-0.572031 -1.2004825,-0.8858735 -1.4234435,-0.718565 l -0.01994,0.020035 -0.9769505,0.9817405 1.5E-6,0 z"/>
  <path inkscape:connector-curvature="0" style="opacity:0.6;fill:#0c0c0c;fill-opacity:1;stroke:none" id="path3208" d="m 12.9841025,15.487354 c 0.2229605,-0.167308 0.8485525,0.146534 1.4234435,0.718565 0.573517,0.570663 0.8757105,1.181301 0.71219,1.406444 -0.0006,0.00085 0.01407,0.01252 0.013435,0.013365 l 5.512796,-5.5398215 0.01994,-0.020035 c 0.00065,-0.00085 -0.014055,-0.01251 -0.01343,-0.013365 0.163517,-0.2251445 -0.1386765,-0.835782 -0.712193,-1.406445 -0.5748915,-0.572031 -1.200484,-0.885873 -1.4234445,-0.7185645 l -0.01994,0.020035 -5.5127945,5.539822 -2.5E-6,0 z"/>
  <path inkscape:connector-curvature="0" style="fill:url(#linearGradient2691);fill-opacity:1;stroke:none" id="path3233" d="m 18.9171275,9.5252445 c 0.22296,-0.1673085 0.848553,0.146534 1.423444,0.718565 0.5735165,0.5706625 0.8757105,1.1813005 0.7121895,1.406444 -0.0006,0.00085 0.01407,0.01252 0.01343,0.013365 l 0.099689,-0.100179 c 0.00065,-0.00085 -0.014055,-0.01251 -0.01343,-0.013365 0.163521,-0.225143 -0.138673,-0.8357815 -0.71219,-1.406443 -0.574891,-0.5720315 -1.2004835,-0.8858735 -1.4234435,-0.7185655 l -0.099689,0.100178 0,5.0E-7 z"/>
  <path inkscape:connector-curvature="0" style="fill:url(#linearGradient2688);fill-opacity:1;stroke:none" id="path3216" d="m 18.8257685,9.617051 c 0.222961,-0.1673085 0.8485535,0.1465335 1.423444,0.7185645 0.5735175,0.570663 0.875711,1.1813005 0.71219,1.4064435 -0.0006,0.00085 0.014065,0.01252 0.01343,0.013365 l 0.0996885,-0.1001785 c 0.00065,-0.00085 -0.014055,-0.01251 -0.01343,-0.013365 0.163522,-0.2251425 -0.138672,-0.8357805 -0.7121895,-1.406443 -0.574891,-0.572031 -1.200483,-0.8858735 -1.4234445,-0.718565 l -0.0996885,0.100178 0,5.0E-7 z"/>
  <path inkscape:connector-curvature="0" style="fill:url(#linearGradient2685);fill-opacity:1;stroke:none" id="path3248" d="m 19.2345975,9.206218 c 0.2229605,-0.1673085 0.8485525,0.1465335 1.423444,0.718565 0.5735165,0.5706625 0.8757105,1.1813 0.71219,1.4064435 -0.0006,0.00085 0.014065,0.01252 0.01343,0.013365 l 0.099689,-0.1001775 c 0.00065,-0.00085 -0.014055,-0.01251 -0.01343,-0.013365 0.1635205,-0.225143 -0.138673,-0.8357815 -0.7121905,-1.4064435 -0.574891,-0.5720315 -1.200482,-0.8858735 -1.423444,-0.718565 l -0.0996885,0.1001775 0,0 z"/>
  <path inkscape:connector-curvature="0" style="fill:url(#linearGradient2682);fill-opacity:1;stroke:none" id="path3250" d="m 19.1432385,9.2980245 c 0.2229615,-0.1673085 0.8485535,0.1465335 1.423444,0.7185645 0.5735175,0.570663 0.875711,1.1813005 0.7121905,1.4064435 -0.0006,0.00085 0.01407,0.01252 0.01343,0.013365 l 0.0996885,-0.100178 c 0.00065,-0.00085 -0.014055,-0.01251 -0.01343,-0.013365 0.163521,-0.225143 -0.1386725,-0.8357815 -0.7121895,-1.406443 -0.5748905,-0.5720315 -1.200483,-0.885874 -1.4234445,-0.718565 l -0.099689,0.100178 z"/>
  <path inkscape:connector-curvature="0" style="fill:url(#linearGradient2679);fill-opacity:1;stroke:none" id="path3256" d="m 19.5536025,8.8856495 c 0.22296,-0.167308 0.848552,0.146534 1.4234435,0.718565 0.5735165,0.5706625 0.8757105,1.1813005 0.71219,1.4064435 -0.0006,0.00085 0.014065,0.01252 0.01343,0.013365 l 0.099688,-0.100178 c 0.00065,-0.00085 -0.014055,-0.01251 -0.01343,-0.013365 0.163521,-0.2251425 -0.138673,-0.835781 -0.71219,-1.4064435 -0.57489,-0.572031 -1.2004825,-0.8858735 -1.4234435,-0.7185645 l -0.0996885,0.1001775 5.0E-7,0 z"/>
  <path inkscape:connector-curvature="0" style="fill:url(#linearGradient2676);fill-opacity:1;stroke:none" id="path3258" d="m 19.462244,8.977456 c 0.2229595,-0.1673085 0.8485525,0.1465335 1.4234435,0.7185655 0.5735165,0.570662 0.875711,1.1813 0.7121895,1.4064425 -0.0006,0.00085 0.01407,0.01252 0.01343,0.013365 l 0.099689,-0.100177 c 0.00065,-0.00085 -0.014055,-0.01251 -0.01343,-0.013365 0.163521,-0.2251435 -0.138673,-0.8357815 -0.7121895,-1.4064435 -0.574891,-0.5720315 -1.2004835,-0.885874 -1.423444,-0.718565 l -0.0996885,0.1001775 0,0 z"/>
  <path inkscape:connector-curvature="0" style="fill:url(#linearGradient2670);fill-opacity:1;fill-rule:evenodd;stroke:url(#linearGradient2673);stroke-width:0.25;stroke-linecap:butt;stroke-linejoin:miter;stroke-miterlimit:4;stroke-opacity:1;stroke-dasharray:none" id="path3270" d="m 11.450052,19.128308 3.641867,-1.485419 0.03103,-0.031025 c 0.1635205,-0.2251445 -0.142614,-0.83583 -0.716131,-1.406494 -0.5748915,-0.572031 -1.199744,-0.8841385 -1.4227045,-0.71683 l -1.534059,3.639768 -2.5E-6,0 z"/>
  <path inkscape:connector-curvature="0" style="fill:#0c0c0c;fill-opacity:1;fill-rule:evenodd;stroke:#0c0c0c;stroke-width:0.25;stroke-linecap:butt;stroke-linejoin:miter;stroke-miterlimit:4;stroke-opacity:1;stroke-dasharray:none" id="path3281" d="m 11.8655865,18.1425075 -0.415758,0.981905 0.9933195,-0.407217 C 12.363535,18.6218335 12.290039,18.524974 12.1944525,18.4298635 12.084407,18.320365 11.976167,18.23152 11.8655865,18.1425075 z"/>
</svg>
