<?xml version="1.0" encoding="UTF-8" standalone="no"?>
<!-- Created with Inkscape (http://www.inkscape.org/) -->
<svg xmlns:dc="http://purl.org/dc/elements/1.1/" xmlns:cc="http://creativecommons.org/ns#" xmlns:rdf="http://www.w3.org/1999/02/22-rdf-syntax-ns#" xmlns:svg="http://www.w3.org/2000/svg" xmlns="http://www.w3.org/2000/svg" xmlns:xlink="http://www.w3.org/1999/xlink" xmlns:sodipodi="http://sodipodi.sourceforge.net/DTD/sodipodi-0.dtd" xmlns:inkscape="http://www.inkscape.org/namespaces/inkscape" version="1.1" width="48" height="48" id="svg3858" inkscape:version="0.48.2 r9819" sodipodi:docname="icon.svg">
  <metadata id="metadata115">
    <rdf:RDF>
      <cc:Work rdf:about="">
        <dc:format>image/svg+xml</dc:format>
        <dc:type rdf:resource="http://purl.org/dc/dcmitype/StillImage"/>
        <dc:title/>
      </cc:Work>
    </rdf:RDF>
  </metadata>
  <sodipodi:namedview pagecolor="#ffffff" bordercolor="#666666" borderopacity="1" objecttolerance="10" gridtolerance="10" guidetolerance="10" inkscape:pageopacity="0" inkscape:pageshadow="2" inkscape:window-width="1280" inkscape:window-height="930" id="namedview113" showgrid="false" inkscape:zoom="4.9166667" inkscape:cx="25.62712" inkscape:cy="30.507233" inkscape:window-x="0" inkscape:window-y="31" inkscape:window-maximized="1" inkscape:current-layer="layer1"/>
  <defs id="defs3860">
    <linearGradient id="linearGradient8589">
      <stop id="stop8591" style="stop-color:#fefefe;stop-opacity:1" offset="0"/>
      <stop id="stop8593" style="stop-color:#cbcbcb;stop-opacity:1" offset="1"/>
    </linearGradient>
    <linearGradient x1="32.892288" y1="8.0590115" x2="36.358372" y2="5.4565363" id="linearGradient5573" xlink:href="#linearGradient8589" gradientUnits="userSpaceOnUse" gradientTransform="matrix(0.9976985,0,0,1.0642049,79.92444,11.281007)"/>
    <linearGradient id="linearGradient3931">
      <stop id="stop3933" style="stop-color:#8d8f8a;stop-opacity:1" offset="0"/>
      <stop id="stop3935" style="stop-color:#cbcbcb;stop-opacity:1" offset="1"/>
    </linearGradient>
    <linearGradient x1="-51.786404" y1="50.786446" x2="-51.786404" y2="2.9062471" id="linearGradient5571" xlink:href="#linearGradient3931" gradientUnits="userSpaceOnUse" gradientTransform="matrix(0.8074968,0,0,0.9358511,139.17087,6.3057874)"/>
    <linearGradient id="linearGradient3600">
      <stop id="stop3602" style="stop-color:#f4f4f4;stop-opacity:1" offset="0"/>
      <stop id="stop3604" style="stop-color:#dbdbdb;stop-opacity:1" offset="1"/>
    </linearGradient>
    <linearGradient x1="25.132275" y1="6.7287393" x2="25.132275" y2="47.013336" id="linearGradient5569" xlink:href="#linearGradient3600" gradientUnits="userSpaceOnUse" gradientTransform="translate(79.76064,7.4202674)"/>
    <radialGradient cx="605.71429" cy="486.64789" r="117.14286" fx="605.71429" fy="486.64789" id="radialGradient5567" xlink:href="#linearGradient5060" gradientUnits="userSpaceOnUse" gradientTransform="matrix(0.02409717,0,0,0.01537476,26.477584,38.629039)"/>
    <linearGradient id="linearGradient5060">
      <stop id="stop5062" style="stop-color:#000000;stop-opacity:1" offset="0"/>
      <stop id="stop5064" style="stop-color:#000000;stop-opacity:0" offset="1"/>
    </linearGradient>
    <radialGradient cx="605.71429" cy="486.64789" r="117.14286" fx="605.71429" fy="486.64789" id="radialGradient5565" xlink:href="#linearGradient5060" gradientUnits="userSpaceOnUse" gradientTransform="matrix(-0.02409717,0,0,0.01537476,21.522412,38.629039)"/>
    <linearGradient id="linearGradient5048">
      <stop id="stop5050" style="stop-color:#000000;stop-opacity:0" offset="0"/>
      <stop id="stop5056" style="stop-color:#000000;stop-opacity:1" offset="0.5"/>
      <stop id="stop5052" style="stop-color:#000000;stop-opacity:0" offset="1"/>
    </linearGradient>
    <linearGradient x1="302.85715" y1="366.64789" x2="302.85715" y2="609.50507" id="linearGradient5563" xlink:href="#linearGradient5048" gradientUnits="userSpaceOnUse" gradientTransform="matrix(0.0704142,0,0,0.01537476,-1.4497047,38.629007)"/>
    <linearGradient id="linearGradient4873">
      <stop id="stop4875" style="stop-color:#ffffff;stop-opacity:1" offset="0"/>
      <stop id="stop4877" style="stop-color:#ffffff;stop-opacity:0" offset="1"/>
    </linearGradient>
    <linearGradient x1="21.628975" y1="2.1102102" x2="22.245434" y2="43.366352" id="linearGradient2509" xlink:href="#linearGradient4873" gradientUnits="userSpaceOnUse" gradientTransform="matrix(0.4873978,0,0,0.4781595,-11.889561,1.7007118)"/>
    <linearGradient id="linearGradient3533">
      <stop id="stop3535" style="stop-color:#93b9dd;stop-opacity:1" offset="0"/>
      <stop id="stop3545" style="stop-color:#6396cd;stop-opacity:1" offset="1"/>
    </linearGradient>
    <linearGradient x1="15.372947" y1="5.0471625" x2="15.372947" y2="22.599676" id="linearGradient2517" xlink:href="#linearGradient3533" gradientUnits="userSpaceOnUse" gradientTransform="matrix(0.4873978,0,0,0.4781595,-11.889561,1.7007118)"/>
    <linearGradient x1="9" y1="29.056757" x2="9" y2="26.02973" id="linearGradient2863" xlink:href="#linearGradient3290" gradientUnits="userSpaceOnUse" gradientTransform="matrix(1.1213238,-1.1263648,1.3858308,1.3783152,-38.432508,7.0054061)"/>
    <linearGradient id="linearGradient3290">
      <stop id="stop3292" style="stop-color:#e4db7b;stop-opacity:1" offset="0"/>
      <stop id="stop3294" style="stop-color:#f4f0c8;stop-opacity:1" offset="1"/>
    </linearGradient>
    <linearGradient x1="5.5178981" y1="37.371799" x2="9.5220556" y2="41.391716" id="linearGradient2865" xlink:href="#linearGradient3191" gradientUnits="userSpaceOnUse" gradientTransform="matrix(0.9421616,0,0,0.9409994,0.92425798,-0.79067298)"/>
    <linearGradient id="linearGradient3191">
      <stop id="stop3193" style="stop-color:#cbbd27;stop-opacity:1" offset="0"/>
      <stop id="stop3195" style="stop-color:#9b901d;stop-opacity:1" offset="1"/>
    </linearGradient>
    <linearGradient x1="30.037716" y1="24.989594" x2="30.037716" y2="30.000141" id="linearGradient2868" xlink:href="#linearGradient3223" gradientUnits="userSpaceOnUse" gradientTransform="matrix(1.1213238,-1.1263648,1.3858308,1.3783152,-36.090497,4.652865)"/>
    <linearGradient id="linearGradient3223">
      <stop id="stop3225" style="stop-color:#999;stop-opacity:1" offset="0"/>
      <stop id="stop3231" style="stop-color:white;stop-opacity:1" offset="0.5"/>
      <stop id="stop3227" style="stop-color:#777;stop-opacity:1" offset="1"/>
    </linearGradient>
    <linearGradient x1="30.037716" y1="24.989594" x2="30.037716" y2="30.000141" id="linearGradient2871" xlink:href="#linearGradient3240" gradientUnits="userSpaceOnUse" gradientTransform="matrix(1.1213238,-1.1263648,1.3858308,1.3783152,-35.769364,4.33029)"/>
    <linearGradient id="linearGradient3240">
      <stop id="stop3242" style="stop-color:#3e3e3e;stop-opacity:1" offset="0"/>
      <stop id="stop3244" style="stop-color:#828282;stop-opacity:1" offset="0.5"/>
      <stop id="stop3246" style="stop-color:#3c3c3c;stop-opacity:1" offset="1"/>
    </linearGradient>
    <linearGradient x1="30.037716" y1="24.989594" x2="30.037716" y2="30.000141" id="linearGradient2874" xlink:href="#linearGradient3223" gradientUnits="userSpaceOnUse" gradientTransform="matrix(1.1213238,-1.1263648,1.3858308,1.3783152,-37.21182,5.77923)"/>
    <linearGradient id="linearGradient3058">
      <stop id="stop3060" style="stop-color:#999;stop-opacity:1" offset="0"/>
      <stop id="stop3062" style="stop-color:white;stop-opacity:1" offset="0.5"/>
      <stop id="stop3064" style="stop-color:#777;stop-opacity:1" offset="1"/>
    </linearGradient>
    <linearGradient x1="30.037716" y1="24.989594" x2="30.037716" y2="30.000141" id="linearGradient2877" xlink:href="#linearGradient3240" gradientUnits="userSpaceOnUse" gradientTransform="matrix(1.1213238,-1.1263648,1.3858308,1.3783152,-36.890688,5.456654)"/>
    <linearGradient id="linearGradient3067">
      <stop id="stop3069" style="stop-color:#3e3e3e;stop-opacity:1" offset="0"/>
      <stop id="stop3071" style="stop-color:#828282;stop-opacity:1" offset="0.5"/>
      <stop id="stop3073" style="stop-color:#3c3c3c;stop-opacity:1" offset="1"/>
    </linearGradient>
    <linearGradient x1="30.037716" y1="24.989594" x2="30.037716" y2="30.000141" id="linearGradient2880" xlink:href="#linearGradient3223" gradientUnits="userSpaceOnUse" gradientTransform="matrix(1.1213238,-1.1263648,1.3858308,1.3783152,-38.327749,6.9001771)"/>
    <linearGradient id="linearGradient3076">
      <stop id="stop3078" style="stop-color:#999;stop-opacity:1" offset="0"/>
      <stop id="stop3080" style="stop-color:white;stop-opacity:1" offset="0.5"/>
      <stop id="stop3082" style="stop-color:#777;stop-opacity:1" offset="1"/>
    </linearGradient>
    <linearGradient x1="30.037716" y1="24.989594" x2="30.037716" y2="30.000141" id="linearGradient2883" xlink:href="#linearGradient3240" gradientUnits="userSpaceOnUse" gradientTransform="matrix(1.1213238,-1.1263648,1.3858308,1.3783152,-38.006617,6.5776021)"/>
    <linearGradient id="linearGradient3085">
      <stop id="stop3087" style="stop-color:#3e3e3e;stop-opacity:1" offset="0"/>
      <stop id="stop3089" style="stop-color:#828282;stop-opacity:1" offset="0.5"/>
      <stop id="stop3091" style="stop-color:#3c3c3c;stop-opacity:1" offset="1"/>
    </linearGradient>
    <linearGradient x1="23.575972" y1="25.356892" x2="23.575972" y2="31.210939" id="linearGradient2888" xlink:href="#linearGradient3155" gradientUnits="userSpaceOnUse" gradientTransform="matrix(1.1539441,-1.1591317,1.184149,1.1777273,-34.199129,12.0896)" spreadMethod="pad"/>
    <linearGradient id="linearGradient3155">
      <stop id="stop3157" style="stop-color:black;stop-opacity:1" offset="0"/>
      <stop id="stop3171" style="stop-color:#c3c3c3;stop-opacity:1" offset="0.13482948"/>
      <stop id="stop3173" style="stop-color:#8c8c8c;stop-opacity:1" offset="0.20224422"/>
      <stop id="stop3163" style="stop-color:white;stop-opacity:1" offset="0.26965895"/>
      <stop id="stop3165" style="stop-color:#757575;stop-opacity:1" offset="0.44650277"/>
      <stop id="stop3167" style="stop-color:#7d7d7d;stop-opacity:1" offset="0.57114136"/>
      <stop id="stop3169" style="stop-color:#b6b6b6;stop-opacity:1" offset="0.72038066"/>
      <stop id="stop3159" style="stop-color:black;stop-opacity:1" offset="1"/>
    </linearGradient>
    <filter x="-0.059978146" y="-0.24035028" width="1.1199563" height="1.4807006" color-interpolation-filters="sRGB" id="filter3699">
      <feGaussianBlur id="feGaussianBlur3701" stdDeviation="1.0014601"/>
    </filter>
    <filter x="-0.059978146" y="-0.24035028" width="1.1199563" height="1.4807006" color-interpolation-filters="sRGB" id="filter3699-0">
      <feGaussianBlur id="feGaussianBlur3701-6" stdDeviation="1.0014601"/>
    </filter>
    <linearGradient inkscape:collect="always" xlink:href="#linearGradient3155-0" id="linearGradient3285-9" gradientUnits="userSpaceOnUse" gradientTransform="matrix(0.79708517,-0.79124093,0.81794916,0.80393457,-7.3945831,17.762975)" spreadMethod="pad" x1="23.575972" y1="25.356892" x2="23.575972" y2="31.210939"/>
    <linearGradient id="linearGradient3155-0">
      <stop id="stop3157-6" style="stop-color:black;stop-opacity:1" offset="0"/>
      <stop id="stop3171-0" style="stop-color:#c3c3c3;stop-opacity:1" offset="0.13482948"/>
      <stop id="stop3173-2" style="stop-color:#8c8c8c;stop-opacity:1" offset="0.20224422"/>
      <stop id="stop3163-3" style="stop-color:white;stop-opacity:1" offset="0.26965895"/>
      <stop id="stop3165-8" style="stop-color:#757575;stop-opacity:1" offset="0.44650277"/>
      <stop id="stop3167-9" style="stop-color:#7d7d7d;stop-opacity:1" offset="0.57114136"/>
      <stop id="stop3169-9" style="stop-color:#b6b6b6;stop-opacity:1" offset="0.72038066"/>
      <stop id="stop3159-3" style="stop-color:black;stop-opacity:1" offset="1"/>
    </linearGradient>
    <linearGradient inkscape:collect="always" xlink:href="#linearGradient3240-0" id="linearGradient3287-5" gradientUnits="userSpaceOnUse" gradientTransform="matrix(0.77455274,-0.76887375,0.95726056,0.94085893,-10.0246,14.000402)" x1="30.037716" y1="24.989594" x2="30.037716" y2="30.000141"/>
    <linearGradient id="linearGradient3240-0">
      <stop id="stop3242-0" style="stop-color:#3e3e3e;stop-opacity:1" offset="0"/>
      <stop id="stop3244-8" style="stop-color:#828282;stop-opacity:1" offset="0.5"/>
      <stop id="stop3246-1" style="stop-color:#3c3c3c;stop-opacity:1" offset="1"/>
    </linearGradient>
    <linearGradient inkscape:collect="always" xlink:href="#linearGradient3223-7" id="linearGradient3289-3" gradientUnits="userSpaceOnUse" gradientTransform="matrix(0.77455274,-0.76887375,0.95726056,0.94085893,-10.246421,14.220596)" x1="30.037716" y1="24.989594" x2="30.037716" y2="30.000141"/>
    <linearGradient id="linearGradient3223-7">
      <stop id="stop3225-9" style="stop-color:#999;stop-opacity:1" offset="0"/>
      <stop id="stop3231-3" style="stop-color:white;stop-opacity:1" offset="0.5"/>
      <stop id="stop3227-1" style="stop-color:#777;stop-opacity:1" offset="1"/>
    </linearGradient>
    <linearGradient inkscape:collect="always" xlink:href="#linearGradient3240-0" id="linearGradient3291-1" gradientUnits="userSpaceOnUse" gradientTransform="matrix(0.77455274,-0.76887375,0.95726056,0.94085893,-9.2537736,13.235225)" x1="30.037716" y1="24.989594" x2="30.037716" y2="30.000141"/>
    <linearGradient id="linearGradient3408">
      <stop id="stop3410" style="stop-color:#3e3e3e;stop-opacity:1" offset="0"/>
      <stop id="stop3412" style="stop-color:#828282;stop-opacity:1" offset="0.5"/>
      <stop id="stop3414" style="stop-color:#3c3c3c;stop-opacity:1" offset="1"/>
    </linearGradient>
    <linearGradient inkscape:collect="always" xlink:href="#linearGradient3223-7" id="linearGradient3293-8" gradientUnits="userSpaceOnUse" gradientTransform="matrix(0.77455274,-0.76887375,0.95726056,0.94085893,-9.475595,13.455421)" x1="30.037716" y1="24.989594" x2="30.037716" y2="30.000141"/>
    <linearGradient id="linearGradient3417">
      <stop id="stop3419" style="stop-color:#999;stop-opacity:1" offset="0"/>
      <stop id="stop3421" style="stop-color:white;stop-opacity:1" offset="0.5"/>
      <stop id="stop3423" style="stop-color:#777;stop-opacity:1" offset="1"/>
    </linearGradient>
    <linearGradient inkscape:collect="always" xlink:href="#linearGradient3240-0" id="linearGradient3295-3" gradientUnits="userSpaceOnUse" gradientTransform="matrix(0.77455274,-0.76887375,0.95726056,0.94085893,-8.4792207,12.466352)" x1="30.037716" y1="24.989594" x2="30.037716" y2="30.000141"/>
    <linearGradient id="linearGradient3426">
      <stop id="stop3428" style="stop-color:#3e3e3e;stop-opacity:1" offset="0"/>
      <stop id="stop3430" style="stop-color:#828282;stop-opacity:1" offset="0.5"/>
      <stop id="stop3432" style="stop-color:#3c3c3c;stop-opacity:1" offset="1"/>
    </linearGradient>
    <linearGradient inkscape:collect="always" xlink:href="#linearGradient3223-7" id="linearGradient3297-2" gradientUnits="userSpaceOnUse" gradientTransform="matrix(0.77455274,-0.76887375,0.95726056,0.94085893,-8.7010428,12.686547)" x1="30.037716" y1="24.989594" x2="30.037716" y2="30.000141"/>
    <linearGradient id="linearGradient3435">
      <stop id="stop3437" style="stop-color:#999;stop-opacity:1" offset="0"/>
      <stop id="stop3439" style="stop-color:white;stop-opacity:1" offset="0.5"/>
      <stop id="stop3441" style="stop-color:#777;stop-opacity:1" offset="1"/>
    </linearGradient>
    <linearGradient inkscape:collect="always" xlink:href="#linearGradient3290-1" id="linearGradient3299-8" gradientUnits="userSpaceOnUse" gradientTransform="matrix(0.77455274,-0.76887374,0.95726056,0.94085893,-10.318783,14.292427)" x1="9" y1="29.056757" x2="9" y2="26.02973"/>
    <linearGradient id="linearGradient3290-1">
      <stop id="stop3292-4" style="stop-color:#e4db7b;stop-opacity:1" offset="0"/>
      <stop id="stop3294-6" style="stop-color:#f4f0c8;stop-opacity:1" offset="1"/>
    </linearGradient>
    <linearGradient inkscape:collect="always" xlink:href="#linearGradient3191-6" id="linearGradient3301-9" gradientUnits="userSpaceOnUse" gradientTransform="matrix(0.65079672,0,0,0.6423405,16.866844,8.9707052)" x1="5.5178981" y1="37.371799" x2="9.5220556" y2="41.391716"/>
    <linearGradient id="linearGradient3191-6">
      <stop id="stop3193-3" style="stop-color:#cbbd27;stop-opacity:1" offset="0"/>
      <stop id="stop3195-0" style="stop-color:#9b901d;stop-opacity:1" offset="1"/>
    </linearGradient>
  </defs>
  <g id="layer1">
    <g id="g3359" transform="matrix(0.76601766,0,0,0.71080146,-56.409321,8.4275669)">
      <g id="g4" transform="matrix(0.11258685,0,0,0.11853756,90.101695,-3.3984523)" style="fill:#a4c639">
        <use id="use6" xlink:href="#b" style="stroke:#ffffff;stroke-width:14.39999962" x="0" y="0" width="744.09448" height="1052.3622"/>
        <use id="use8" transform="scale(-1,1)" xlink:href="#a" x="0" y="0" width="744.09448" height="1052.3622"/>
        <g id="a" style="stroke:#ffffff;stroke-width:7.19999981">
          <rect id="rect11" x="14" y="-86" width="13" height="86" transform="matrix(0.87461971,0.48480962,-0.48480962,0.87461971,0,0)" rx="6.5"/>
          <rect x="-143" y="41" width="48" height="133" rx="24" id="c"/>
          <use id="use14" xlink:href="#c" x="85" y="97" width="744.09448" height="1052.3622"/>
        </g>
        <g id="b">
          <ellipse id="ellipse17" ry="84" rx="91" cy="41" d="m 91,41 c 0,46.391919 -40.742088,84 -91,84 -50.257912,0 -91,-37.608081 -91,-84 0,-46.391919 40.742088,-84 91,-84 50.257912,0 91,37.608081 91,84 z" cx="0" sodipodi:cx="0" sodipodi:cy="41" sodipodi:rx="91" sodipodi:ry="84"/>
          <rect id="rect19" x="-91" y="20" width="182" height="182" rx="22"/>
        </g>
      </g>
      <g id="g21" transform="matrix(0.11258685,0,0,0.11853756,90.101695,-3.3984523)" style="fill:#ffffff;stroke:#ffffff;stroke-width:7.19999981">
        <path id="path23" d="M -95,44.5 H 95" inkscape:connector-curvature="0"/>
        <circle id="circle25" r="4" cx="-42" d="m -38,0 c 0,2.209139 -1.790861,4 -4,4 -2.209139,0 -4,-1.790861 -4,-4 0,-2.209139 1.790861,-4 4,-4 2.209139,0 4,1.790861 4,4 z" cy="0" sodipodi:cx="-42" sodipodi:cy="0" sodipodi:rx="4" sodipodi:ry="4"/>
        <circle id="circle27" r="4" cx="42" d="m 46,0 c 0,2.209139 -1.790861,4 -4,4 -2.209139,0 -4,-1.790861 -4,-4 0,-2.209139 1.790861,-4 4,-4 2.209139,0 4,1.790861 4,4 z" cy="0" sodipodi:cx="42" sodipodi:cy="0" sodipodi:rx="4" sodipodi:ry="4"/>
      </g>
    </g>
    <g transform="matrix(-1.1897021,0,0,0.96676088,151.554,-5.7476381)" id="g5516" style="display:inline">
      <g transform="matrix(0.80159266,0,0,0.9561265,87.149491,9.5261974)" id="g2877">
        <rect width="34" height="3.7338707" x="7" y="44.266129" id="rect2879" style="opacity:0.40206185;fill:url(#linearGradient5563);fill-opacity:1;fill-rule:nonzero;stroke:none;stroke-width:1;marker:none;visibility:visible;display:inline;overflow:visible"/>
        <path d="m 7,44.266291 c 0,0 0,3.733665 0,3.733665 -1.2409448,0.007 -3,-0.836525 -3,-1.867073 0,-1.030547 1.3848007,-1.866591 3,-1.866592 z" id="path2881" style="opacity:0.40206185;fill:url(#radialGradient5565);fill-opacity:1;fill-rule:nonzero;stroke:none;stroke-width:1;marker:none;visibility:visible;display:inline;overflow:visible" inkscape:connector-curvature="0"/>
        <path d="m 41,44.266291 c 0,0 0,3.733665 0,3.733665 1.240944,0.007 3,-0.836525 3,-1.867073 0,-1.030547 -1.384801,-1.866591 -3,-1.866592 z" id="path2883" style="opacity:0.40206185;fill:url(#radialGradient5567);fill-opacity:1;fill-rule:nonzero;stroke:none;stroke-width:1;marker:none;visibility:visible;display:inline;overflow:visible" inkscape:connector-curvature="0"/>
      </g>
      <path d="m 90.26064,12.920227 c 8.02029,0 12.04055,0 20.06084,0 1.40694,0.48538 8.96546,6.01514 10.9392,9.84396 0,11.7187 0,19.43741 0,31.15612 -11.66669,0 -19.33335,0 -31.00004,0 0,-15.00003 0,-26.00005 0,-41.00008 z" id="rect2594" style="fill:url(#linearGradient5569);fill-opacity:1;stroke:url(#linearGradient5571);stroke-width:0.9999218;stroke-linecap:butt;stroke-linejoin:round;stroke-miterlimit:4;stroke-opacity:1;stroke-dasharray:none;stroke-dashoffset:0" inkscape:connector-curvature="0"/>
      <path d="m 109.52818,13.234887 c 0.6375,4.12506 0.60946,9.03447 0.60946,9.03447 0,0 4.86973,-0.1115 10.88525,0.59393 -4.89688,-4.7878 -8.32845,-6.78418 -11.49471,-9.6284 z" id="path8596" style="fill:#000000;fill-opacity:0.32663317;fill-rule:evenodd;stroke:#000000;stroke-width:0.5;stroke-linecap:butt;stroke-linejoin:round;stroke-miterlimit:4;stroke-opacity:0.16582917;stroke-dasharray:none;display:inline" inkscape:connector-curvature="0"/>
      <path d="m 109.41856,12.928197 c 1.41222,4.1225 1.29509,8.2607 1.29509,8.2607 0,0 7.833,0.54731 10.17514,1.59393 0,-1.71114 -9.2975,-9.82542 -11.47023,-9.85463 z" id="path12038" style="fill:url(#linearGradient5573);fill-opacity:1;fill-rule:evenodd;stroke:none;display:inline" inkscape:connector-curvature="0"/>
    </g>
    <g id="g3350" transform="matrix(1.2288135,0,0,1,49.979603,13.830508)">
      <rect style="fill:#babdb6;fill-opacity:1;stroke:none;display:inline" id="rect2874" y="9.2542362" x="-31.762711" ry="0.50000006" rx="0.42857143" height="1.0000001" width="24"/>
      <rect style="fill:#babdb6;fill-opacity:1;stroke:none;display:inline" id="rect2890" y="12.254236" x="-31.762711" ry="0.50000006" rx="0.42857143" height="1.0000001" width="24"/>
      <rect style="fill:#babdb6;fill-opacity:1;stroke:none;display:inline" id="rect2892" y="15.254236" x="-31.762711" ry="0.50000006" rx="0.42857143" height="1.0000001" width="24"/>
      <rect style="fill:#babdb6;fill-opacity:1;stroke:none;display:inline" id="rect2894" y="21.25424" x="-31.762711" ry="0.50000006" rx="0.42857143" height="1.0000001" width="24"/>
      <rect style="fill:#babdb6;fill-opacity:1;stroke:none;display:inline" id="rect2898" y="24.254236" x="-31.762711" ry="0.50000006" rx="0.42857143" height="1.0000001" width="24"/>
      <rect style="fill:#babdb6;fill-opacity:1;stroke:none;display:inline" id="rect2900" y="27.254236" x="-31.762711" ry="0.50000006" rx="0.42857143" height="1.0000001" width="24"/>
      <rect style="fill:#babdb6;fill-opacity:1;stroke:none;display:inline" id="rect1984" y="18.254236" x="-31.762711" ry="0.50000006" rx="0.42857143" height="1.0000001" width="24"/>
    </g>
    <path inkscape:connector-curvature="0" style="opacity:0.15;fill:#0c0c0c;fill-opacity:1;fill-rule:evenodd;stroke:none" id="path2422-3" d="m 39.035997,16.521283 c -0.240021,-0.12104 -0.415032,-0.07084 -0.526667,0.01585 l -14.873526,11.482441 -2.737046,2.118633 -0.08575,0.04525 -2.818908,8.171821 8.463513,-0.404225 0.0665,-0.05383 2.756299,-2.110064 14.863051,-11.570509 c 0.446553,-0.346767 -0.448953,-2.340921 -2.009418,-4.481351 -1.170354,-1.605312 -2.37797,-2.850895 -3.098042,-3.214032 l 0,0 z"/>
    <g transform="matrix(1.1486611,-0.13956541,0.13493357,1.188091,-8.1649977,-4.3451524)" id="g3336">
      <path style="fill:url(#linearGradient3285-9);fill-opacity:1;stroke:#000000;stroke-width:0.68666989;stroke-linecap:butt;stroke-linejoin:round;stroke-miterlimit:4;stroke-opacity:1;stroke-dasharray:none;stroke-dashoffset:0" id="rect2383" d="m 22.23534,29.313611 c 0.535656,-0.40689 1.959945,0.252754 3.240318,1.511191 1.277311,1.255423 1.919211,2.629711 1.51607,3.163701 -0.0015,0.0021 0.03148,0.0274 0.02992,0.02941 L 46.458078,14.72398 C 46.951551,14.234124 46.28152,12.781207 44.960501,11.482822 43.639481,10.184436 42.16525,9.5298253 41.671772,10.019685 L 22.23534,29.313611 z" inkscape:connector-curvature="0"/>
      <path style="opacity:0.8;fill:#ff9de8;fill-opacity:1;stroke:#dd78c5;stroke-width:0.68666989;stroke-linecap:butt;stroke-linejoin:round;stroke-miterlimit:4;stroke-opacity:1;stroke-dasharray:none;stroke-dashoffset:0" id="rect3175" d="m 39.299705,12.374361 c 0.535655,-0.406889 1.959947,0.252757 3.240318,1.511191 1.277311,1.255425 1.919212,2.629711 1.51607,3.163702 -0.0015,0.0021 0.03148,0.0274 0.02992,0.02941 l 2.372067,-2.354676 0.04841,-0.04806 c 0.0016,-0.0021 -0.03145,-0.02737 -0.02992,-0.0294 0.403142,-0.533994 -0.238759,-1.908282 -1.516069,-3.163706 -1.280373,-1.258435 -2.704663,-1.9180809 -3.240319,-1.5111917 l -0.04841,0.04805 -2.372067,2.354676 z" inkscape:connector-curvature="0"/>
      <path style="opacity:0.6;fill:#000000;fill-opacity:1;stroke:none" id="path3208" d="m 22.23534,29.313611 c 0.535656,-0.40689 1.959945,0.252755 3.240318,1.511191 1.277311,1.255424 1.919211,2.629711 1.51607,3.163701 -0.0015,0.0021 0.03148,0.0274 0.02992,0.02941 l 13.385239,-13.287098 0.04841,-0.04806 c 0.0016,-0.0021 -0.03144,-0.02737 -0.02992,-0.02941 0.403141,-0.533992 -0.23876,-1.908278 -1.51607,-3.163702 -1.280372,-1.258434 -2.704663,-1.918081 -3.240319,-1.511192 l -0.04841,0.04806 -13.385239,13.287099 z" inkscape:connector-curvature="0"/>
      <path style="fill:url(#linearGradient3287-5);fill-opacity:1;stroke:none" id="path3233" d="m 36.640905,15.013667 c 0.535656,-0.406891 1.959947,0.252755 3.240319,1.51119 1.277311,1.255425 1.919212,2.629712 1.516069,3.163702 -0.0015,0.0021 0.03148,0.0274 0.02992,0.02941 l 0.242047,-0.240274 c 0.0016,-0.0021 -0.03144,-0.02737 -0.02992,-0.02941 0.403142,-0.53399 -0.238758,-1.908278 -1.51607,-3.163701 -1.280379,-1.258434 -2.704668,-1.918081 -3.240325,-1.511191 l -0.242047,0.240274 z" inkscape:connector-curvature="0"/>
      <path style="fill:url(#linearGradient3289-3);fill-opacity:1;stroke:none" id="path3216" d="m 36.419084,15.233861 c 0.535656,-0.406889 1.959947,0.252757 3.240318,1.511192 1.277312,1.255424 1.919213,2.629709 1.51607,3.1637 -0.0015,0.0021 0.03148,0.0274 0.02992,0.02941 l 0.242047,-0.240274 c 0.0016,-0.0021 -0.03146,-0.02736 -0.02992,-0.02941 0.403141,-0.53399 -0.238759,-1.908278 -1.51607,-3.163702 -1.280373,-1.258434 -2.704663,-1.918082 -3.24032,-1.511191 l -0.242046,0.240275 z" inkscape:connector-curvature="0"/>
      <path style="fill:url(#linearGradient3291-1);fill-opacity:1;stroke:none" id="path3248" d="m 37.411733,14.24849 c 0.535655,-0.406888 1.959947,0.252757 3.240318,1.511191 1.27731,1.255425 1.919211,2.629712 1.51607,3.163702 -0.0015,0.0021 0.03148,0.0274 0.02992,0.02941 l 0.242047,-0.240273 c 0.0016,-0.0021 -0.03144,-0.02736 -0.02992,-0.02941 0.403142,-0.533991 -0.238758,-1.908277 -1.516071,-3.163701 -1.28037,-1.258436 -2.704659,-1.918081 -3.240318,-1.511192 l -0.242046,0.240273 z" inkscape:connector-curvature="0"/>
      <path style="fill:url(#linearGradient3293-8);fill-opacity:1;stroke:none" id="path3250" d="m 37.189911,14.468686 c 0.535656,-0.406891 1.959948,0.252755 3.240319,1.511191 1.277311,1.255424 1.919212,2.62971 1.516071,3.163701 -0.0015,0.0021 0.03148,0.02739 0.02992,0.02941 l 0.242047,-0.240275 c 0.0016,-0.0021 -0.03144,-0.02736 -0.02992,-0.02941 0.403144,-0.533991 -0.238757,-1.908278 -1.516069,-3.163701 -1.280371,-1.258435 -2.704662,-1.918082 -3.240319,-1.511191 l -0.242047,0.240273 z" inkscape:connector-curvature="0"/>
      <path style="fill:url(#linearGradient3295-3);fill-opacity:1;stroke:none" id="path3256" d="m 38.186286,13.479617 c 0.535655,-0.40689 1.959945,0.252755 3.240317,1.511191 1.277311,1.255425 1.919213,2.629711 1.51607,3.163702 -0.0015,0.0021 0.03148,0.0274 0.02992,0.02941 l 0.242048,-0.240274 c 0.0016,-0.0021 -0.03144,-0.02737 -0.02992,-0.0294 0.403142,-0.533992 -0.238758,-1.908279 -1.51607,-3.163702 -1.280371,-1.258436 -2.704662,-1.918082 -3.240318,-1.511193 l -0.242047,0.240273 z" inkscape:connector-curvature="0"/>
      <path style="fill:url(#linearGradient3297-2);fill-opacity:1;stroke:none" id="path3258" d="m 37.964464,13.699811 c 0.535655,-0.40689 1.959947,0.252757 3.240319,1.511192 1.27731,1.255424 1.919211,2.62971 1.516069,3.163701 -0.0015,0.0021 0.03148,0.0274 0.02992,0.02941 l 0.242046,-0.240272 c 0.0016,-0.0021 -0.03145,-0.02737 -0.02992,-0.02941 0.403142,-0.533992 -0.238759,-1.908279 -1.51607,-3.163702 -1.280371,-1.258435 -2.704661,-1.918082 -3.240317,-1.511191 l -0.242049,0.240272 z" inkscape:connector-curvature="0"/>
      <path style="fill:url(#linearGradient3299-8);fill-opacity:1;fill-rule:evenodd;stroke:url(#linearGradient3301-9);stroke-width:0.68666989;stroke-linecap:butt;stroke-linejoin:miter;stroke-miterlimit:4;stroke-opacity:1;stroke-dasharray:none" id="path3270" d="m 18.299754,37.838962 8.699495,-3.715475 C 27.40239,33.589498 26.751323,32.079035 25.474013,30.82361 24.19364,29.565175 22.702092,28.909444 22.166436,29.316333 l -3.866682,8.522629 z" inkscape:connector-curvature="0"/>
      <path style="fill:#000000;fill-opacity:1;fill-rule:evenodd;stroke:#000000;stroke-width:0.68666989;stroke-linecap:butt;stroke-linejoin:miter;stroke-miterlimit:4;stroke-opacity:1;stroke-dasharray:none" id="path3281" d="m 19.365758,35.530675 -1.066132,2.29935 2.352451,-1.035071 c -0.175688,-0.211399 -0.336993,-0.426852 -0.549878,-0.63609 -0.245087,-0.24089 -0.488049,-0.434463 -0.736441,-0.628189 z" inkscape:connector-curvature="0"/>
    </g>
  </g>
</svg>
