<?xml version="1.0" encoding="UTF-8" standalone="no"?>
<!-- Created with Inkscape (http://www.inkscape.org/) -->
<svg xmlns:svg="http://www.w3.org/2000/svg" xmlns="http://www.w3.org/2000/svg" xmlns:xlink="http://www.w3.org/1999/xlink" version="1.0" width="32" height="32" id="svg11300">
  <defs id="defs3">
    <linearGradient id="linearGradient4956">
      <stop id="stop4958" style="stop-color:#f8b17e;stop-opacity:1" offset="0"/>
      <stop id="stop4960" style="stop-color:#e35d4f;stop-opacity:1" offset="0.26238"/>
      <stop id="stop4962" style="stop-color:#c6262e;stop-opacity:1" offset="0.66347069"/>
      <stop id="stop4964" style="stop-color:#690b54;stop-opacity:1" offset="1"/>
    </linearGradient>
    <linearGradient id="linearGradient4099">
      <stop id="stop4101" style="stop-color:#edd563;stop-opacity:1" offset="0"/>
      <stop id="stop4103" style="stop-color:#e08223;stop-opacity:1" offset="1"/>
    </linearGradient>
    <linearGradient id="linearGradient4093">
      <stop id="stop4095" style="stop-color:#bb5e12;stop-opacity:1" offset="0"/>
      <stop id="stop4097" style="stop-color:#cd8033;stop-opacity:1" offset="1"/>
    </linearGradient>
    <linearGradient id="linearGradient6221">
      <stop id="stop6223" style="stop-color:black;stop-opacity:1" offset="0"/>
      <stop id="stop6225" style="stop-color:black;stop-opacity:0" offset="1"/>
    </linearGradient>
    <linearGradient id="linearGradient5443">
      <stop id="stop5445" style="stop-color:white;stop-opacity:1" offset="0"/>
      <stop id="stop5447" style="stop-color:white;stop-opacity:0" offset="1"/>
    </linearGradient>
    <radialGradient cx="14.64032" cy="22.998904" r="8.4852813333333" fx="14.64032" fy="22.998904" id="radialGradient2912" xlink:href="#linearGradient6221" gradientUnits="userSpaceOnUse" gradientTransform="matrix(0.23695139,0,0,0.0905974,23.793071333333,27.527184)"/>
    <radialGradient cx="14.64032" cy="22.998904" r="8.4852813333333" fx="14.64032" fy="22.998904" id="radialGradient2915" xlink:href="#linearGradient6221" gradientUnits="userSpaceOnUse" gradientTransform="matrix(0.57921468,0,0,0.23991807,18.60532,23.846681333333)"/>
    <radialGradient cx="14.64032" cy="22.998904" r="8.4852813333333" fx="14.64032" fy="22.998904" id="radialGradient2918" xlink:href="#linearGradient6221" gradientUnits="userSpaceOnUse" gradientTransform="matrix(0.18131971,0,0,0.07549778,1.2223164,28.184812666667)"/>
    <radialGradient cx="14.64032" cy="22.998904" r="8.4852813333333" fx="14.64032" fy="22.998904" id="radialGradient2921" xlink:href="#linearGradient6221" gradientUnits="userSpaceOnUse" gradientTransform="matrix(0.46337318,0,0,0.19993169,-2.7157524,25.094459333333)"/>
    <linearGradient id="linearGradient4434">
      <stop id="stop4436" style="stop-color:#d3d7cf;stop-opacity:1" offset="0"/>
      <stop id="stop4438" style="stop-color:#babdb6;stop-opacity:1" offset="0.18303643"/>
      <stop id="stop4440" style="stop-color:white;stop-opacity:1" offset="0.31893486"/>
      <stop id="stop4442" style="stop-color:#babdb6;stop-opacity:1" offset="0.87643671"/>
      <stop id="stop4444" style="stop-color:#eeeeec;stop-opacity:1" offset="1"/>
    </linearGradient>
    <linearGradient id="linearGradient7444">
      <stop id="stop7446" style="stop-color:#888a85;stop-opacity:1" offset="0"/>
      <stop id="stop7448" style="stop-color:#555753;stop-opacity:1" offset="1"/>
    </linearGradient>
    <linearGradient id="linearGradient7381">
      <stop id="stop7383" style="stop-color:#babdb6;stop-opacity:1" offset="0"/>
      <stop id="stop7385" style="stop-color:white;stop-opacity:1" offset="1"/>
    </linearGradient>
    <linearGradient id="linearGradient7421">
      <stop id="stop7423" style="stop-color:white;stop-opacity:1" offset="0"/>
      <stop id="stop7425" style="stop-color:white;stop-opacity:0" offset="1"/>
    </linearGradient>
    <linearGradient x1="-4.2051687333333" y1="29.485994666667" x2="-6.5164820666667" y2="29.426940666667" id="linearGradient4665" xlink:href="#linearGradient6221" gradientUnits="userSpaceOnUse" gradientTransform="matrix(0.50045082,-0.49965052,0.84917342,0.84785213,-0.0741413,-6.0064366666667)"/>
    <linearGradient x1="64.961420666667" y1="23.434956666667" x2="60.147201333333" y2="23.386243333333" id="linearGradient4668" xlink:href="#linearGradient4956" gradientUnits="userSpaceOnUse" gradientTransform="matrix(0.82274296,-0.82218552,0.71961224,0.71912451,-48.068470666667,54.364506666667)"/>
    <linearGradient x1="201.52801333333" y1="38.961845333333" x2="205.76609333333" y2="40.511675333333" id="linearGradient4734" xlink:href="#linearGradient7381" gradientUnits="userSpaceOnUse" gradientTransform="matrix(1.3630182,0,0,1.3616941,-269.21109333333,-45.305642666667)"/>
    <linearGradient x1="203.17484666667" y1="42.86351" x2="223.53342666667" y2="54.617543333333" id="linearGradient4737" xlink:href="#linearGradient4434" gradientUnits="userSpaceOnUse" gradientTransform="matrix(1.3630182,0,0,1.3616941,-269.21109333333,-45.305642666667)"/>
    <linearGradient x1="216.33154" y1="46.854909333333" x2="220.04050666667" y2="66.18249" id="linearGradient4739" xlink:href="#linearGradient7444" gradientUnits="userSpaceOnUse" gradientTransform="matrix(1.3630182,0,0,1.3616941,-269.21109333333,-45.305642666667)"/>
    <linearGradient x1="217.73464" y1="50.383575333333" x2="211.44077333333" y2="58.670832" id="linearGradient4758" xlink:href="#linearGradient7421" gradientUnits="userSpaceOnUse" gradientTransform="matrix(1.3630182,0,0,1.3616941,-269.21109333333,-45.305642666667)"/>
    <linearGradient id="linearGradient2490">
      <stop id="stop2492" style="stop-color:#791235;stop-opacity:1" offset="0"/>
      <stop id="stop2494" style="stop-color:#dd3b27;stop-opacity:1" offset="1"/>
    </linearGradient>
    <linearGradient x1="19.518707333333" y1="22.681803333333" x2="24.000350666667" y2="18.181803333333" id="linearGradient4972" xlink:href="#linearGradient2490" gradientUnits="userSpaceOnUse"/>
    <linearGradient x1="36.510108666667" y1="0.6666672" x2="36.480646666667" y2="8.3899113333333" id="linearGradient4987" xlink:href="#linearGradient5443" gradientUnits="userSpaceOnUse" gradientTransform="matrix(-0.73220338,-0.7338647,0.73220338,-0.7338647,29.024598,56.823832)"/>
    <linearGradient x1="39.032308" y1="25.000943333333" x2="37.631271333333" y2="25.057309333333" id="linearGradient4990" xlink:href="#linearGradient5443" gradientUnits="userSpaceOnUse" gradientTransform="matrix(1.0366781,0,0,2.1488993,-60.706317333333,-44.549053333333)"/>
    <linearGradient x1="-4.7315931333333" y1="26.882408" x2="-6.7862693333333" y2="26.872767333333" id="linearGradient4993" xlink:href="#linearGradient6221" gradientUnits="userSpaceOnUse" gradientTransform="matrix(0.50479505,0,0,1.4199623,-19.941358,-27.935464)"/>
    <linearGradient x1="-7.292682" y1="24.608006666667" x2="-4.6200780666667" y2="24.594528" id="linearGradient4996" xlink:href="#linearGradient6221" gradientUnits="userSpaceOnUse" gradientTransform="matrix(0.60312184,0,0,1.4585579,-20.936810666667,-29.498085333333)"/>
    <linearGradient x1="17.047844" y1="13.841092666667" x2="18.245126" y2="14.984301333333" id="linearGradient4999" xlink:href="#linearGradient7381" gradientUnits="userSpaceOnUse" gradientTransform="matrix(-1.0423996,0,0,-1.0378417,29.667624666667,35.650726666667)"/>
    <linearGradient x1="14.917185333333" y1="23.749512" x2="20.725796" y2="17.923474666667" id="linearGradient5001" xlink:href="#linearGradient7444" gradientUnits="userSpaceOnUse" gradientTransform="matrix(1.0468682,0,0,1.0468717,-4.2658282666667,-4.2134296666667)"/>
    <radialGradient cx="-26.30543" cy="7.8930346666667" r="2.6039835333333" fx="-26.30543" fy="7.8930346666667" id="radialGradient5004" xlink:href="#linearGradient5443" gradientUnits="userSpaceOnUse" gradientTransform="matrix(2.3533908,-0.16336681,0.28682268,5.972601,39.376454,-43.577676666667)"/>
    <linearGradient x1="-1.4644252666667" y1="27.314595333333" x2="-7.04379" y2="27.29922" id="linearGradient5007" xlink:href="#linearGradient4099" gradientUnits="userSpaceOnUse" gradientTransform="matrix(0.84492232,-2.9977401e-8,0,1.6837108,-18.086368,-38.082165333333)"/>
    <linearGradient x1="-30.379104666667" y1="5.1426948" x2="-24.055277333333" y2="8.2161026666667" id="linearGradient5009" xlink:href="#linearGradient4093" gradientUnits="userSpaceOnUse" gradientTransform="matrix(1.0468699,0,0,1.04687,5.995829,-0.00412496)"/>
    <radialGradient cx="17.318038" cy="14.415213333333" r="1.3333333333333" fx="17.318038" fy="14.415213333333" id="radialGradient5017" xlink:href="#linearGradient6221" gradientUnits="userSpaceOnUse" gradientTransform="matrix(0.80803421,-0.02610843,0.00943568,1.3973911,3.1732036666667,-5.2726219333333)"/>
  </defs>
  <path d="M 8.1041666666667,1.625 C 7.9949453333333,1.6195651333333 7.885476,1.6637502666667 7.8125,1.75 7.71519,1.8649724 7.7153393333333,2.0355446 7.7916666666667,2.1666666666667 L 9.8333333333333,5.8125 c 0.18333533333333,0.32772346666667 0.087151333333333,0.75640613333333 -0.20833333333333,1.1875 -0.29828266666667,0.43517933333333 -0.80249733333333,0.86254466666667 -1.4375,1.2083333333333 -0.63513066666667,0.34584333333333 -1.260762,0.54457066666667 -1.7916666666667,0.5625 -0.52776973333333,0.017886666666667 -0.94120153333333,-0.12974733333333 -1.125,-0.45833333333333 L 3.2083333333333,4.625 C 3.1510866,4.5229819333333 3.0540198666667,4.4718776666667 2.9375,4.4583333333333 2.8209892,4.4448072 2.7027283333333,4.4761685333333 2.625,4.5625 c -0.041980666666667,0.044845333333333 -0.0689762,0.10699726666667 -0.083333333333333,0.16666666666667 -0.39538433333333,1.7022538 -0.20828406666667,3.659358 0.54166666666667,5 1.0241900666667,1.830898 3.1612472666667,2.7028886666667 5.25,2.3333333333333 0.853522,0.286864 2.3040993333333,0.785196 3.646,2.1168333333333 l 2.7666666666667,-2.946 C 13.536312666667,10.032909333333 12.970986,8.9375866666667 12.645833333333,8.125 12.927942,7.001666 12.801973333333,5.8112408 12.208333333333,4.75 11.458691333333,3.4099296 9.8962293333333,2.2236546 8.2291666666667,1.6458333333333 8.1934033333333,1.632761 8.140574,1.6268116 8.1041666666667,1.625 z" id="path6912" style="fill:url(#linearGradient4737);fill-opacity:1;fill-rule:evenodd;stroke:url(#linearGradient4739);stroke-width:0.66666658666667;stroke-linecap:round;stroke-linejoin:round;stroke-miterlimit:4;stroke-opacity:1;stroke-dasharray:none;stroke-dashoffset:0.3612;display:inline;enable-background:new"/>
  <path d="m 8.1063146666667,1.9564898 c 0.016993333333333,0.0063533333333333 0.0063333333333333,0.028323333333333 0,0.028414 l 2.0445273333333,3.6595528666667 c 0.27581066666667,0.49300593333333 0.076874,1.0752393333333 -0.255566,1.5602746666667 -0.335748,0.48983733333333 -0.855976,0.96444266666667 -1.533396,1.3333253333333 -0.67887333333333,0.36967266666667 -1.3909326666667,0.54721066666667 -1.9877346,0.56737266666667 -0.59549353333333,0.020153333333333 -1.1544491333333,-0.14970466666667 -1.4198106,-0.62411 L 2.9098074666667,4.7933978666667 c -0.011722,-0.0018133333333333 -0.03035,0.0018133333333333 -0.028441333333333,0 0.018718666666667,-0.019971333333333 0.0036333333333333,0.014524666666667 0,0.028414 -0.377029,1.6232574 -0.18148133333333,3.4994174666667 0.5111318,4.7375608 0.94740666666667,1.6936386666667 2.9254096,2.5025666666667 4.8841480666667,2.1560153333333 1.9495433333333,-0.34861133333333 3.6165053333333,-2.0454186666667 4.0322626666667,-3.6595526666667 0.262526,-1.0454 0.150686,-2.1688518666667 -0.39754733333333,-3.1489175333333 C 11.220629333333,3.6721608 9.7011186666667,2.5093738666667 8.1062686666667,1.9565805333333 l 4.6E-5,-9.0733333333333E-5 z" id="path7379" style="fill:url(#linearGradient4734);fill-opacity:1;fill-rule:evenodd;stroke:none;display:inline;enable-background:new"/>
  <path d="m 9.125,2.9791666666667 1.375,2.4583333333333 c 0.387606,0.69283266666667 0.106314,1.4497553333333 -0.27083333333333,2 -0.38104533333333,0.555928 -0.93797,1.0406973333333 -1.6666666666667,1.4375 -0.73175933333333,0.39846933333333 -1.4902006666667,0.62298066666667 -2.1666666666667,0.64583333333333 -0.67736553333333,0.022893333333333 -1.4277044666667,-0.182656 -1.7916666666667,-0.83333333333333 L 3.1875,6.125 c -0.060518,1.1965746666667 0.078013333333333,2.4003066666667 0.54166666666667,3.2291666666667 0.8545852,1.5277033333333 2.6567684666667,2.277076 4.4583333333333,1.9583333333333 0.13188533333333,-0.026026666666667 0.268982,-0.0028 0.39583333333333,0.041666666666667 0.97645733333333,0.32817066666667 2.1956146666667,0.99806466666667 3.6041666666667,2.3958333333333 l 0.66666666666667,0.66666666666667 2.0625,-2.0625 -0.64583333333333,-0.64583333333333 c -1.269942,-1.260208 -1.9656453333333,-2.372792 -2.3333333333333,-3.2916666666667 C 11.882073333333,8.2729806666667 11.879593333333,8.1286186666667 11.916666666667,7.9791666666667 12.155533333333,7.0279846666667 12.05584,5.9861023333333 11.5625,5.1041666666667 11.111604666667,4.2981372666667 10.161811333333,3.5623203333333 9.125,2.9791666666667 z" id="path4756" style="fill:none;stroke:url(#linearGradient4758);stroke-width:0.46666658;stroke-linecap:round;stroke-linejoin:miter;stroke-miterlimit:4;stroke-opacity:1;stroke-dasharray:none;stroke-dashoffset:0.3612;display:inline;enable-background:new"/>
  <path d="m 12.083333333333,10.854166666667 c -0.09127,0.0078133333333333 -0.171848,0.026066666666667 -0.22916666666667,0.083333333333333 l -0.41666666666667,0.4375 c -0.22927533333333,0.22905266666667 -0.062173333333333,0.79243733333333 0.39583333333333,1.25 l 1.4166666666667,1.3958333333333 1.25,-1.2708333333333 -1.3958333333333,-1.3958333333333 c -0.343506,-0.343172 -0.74702266666667,-0.523444 -1.0208333333333,-0.5 z" id="rect7166" style="opacity:0.07999998;fill:black;fill-opacity:1;fill-rule:evenodd;stroke:none;display:inline;enable-background:new"/>
  <g transform="matrix(1.3630182,0,0,1.3616941,-269.21109333333,-45.305642666667)" id="g7440" style="opacity:0.48858445;display:inline;enable-background:new"/>
  <path d="M 8,29.666668 A 4.0000001333333,1.6666668 0 1 1 -1.4338533333333E-8,29.666668 4.0000001333333,1.6666668 0 1 1 8,29.666668 z" id="path5331" style="opacity:0.25;fill:url(#radialGradient2921);fill-opacity:1;stroke:none"/>
  <path d="m 5.4154316666667,29.91136 a 1.5652154666667,0.62936313333333 0 1 1 -3.1304308666667,0 1.5652154666667,0.62936313333333 0 1 1 3.1304308666667,0 z" id="path6769" style="opacity:0.3;fill:url(#radialGradient2918);fill-opacity:1;stroke:none"/>
  <path d="m 31.999969333333,29.333332666667 a 4.9999846666667,2.0000005333333 0 0 1 -9.9999693333333,0 4.9999846666667,2.0000005333333 0 1 1 9.9999693333333,0 z" id="path6765" style="opacity:0.25;fill:url(#radialGradient2915);fill-opacity:1;stroke:none"/>
  <path d="m 29.272698666667,29.599042666667 a 2.0454476666667,0.75523633333333 0 1 1 -4.0908953333333,0 2.0454476666667,0.75523633333333 0 1 1 4.0908953333333,0 z" id="path6773" style="opacity:0.3;fill:url(#radialGradient2912);fill-opacity:1;stroke:none"/>
  <path d="m 11.685264,13.909646 14.180324666667,15.130425333333 c 0.93021666666667,0.92959 2.522814,0.80788733333333 3.5863466666667,-0.25492266666667 1.063532,-1.0628133333333 1.1853133333333,-2.6543286666667 0.255096,-3.5839166666667 L 14.566346,11.030516666667 11.685250666667,13.909632666667 z m 14.885588666667,11.996372666667 c 0.52871066666667,-0.52835133333333 1.3920126666667,-0.52835133333333 1.920722,0 0.52870933333333,0.528352 0.52870933333333,1.3910686666667 6.6666666666667E-7,1.9194193333333 -0.52871066666667,0.52835 -1.392012,0.52835133333333 -1.9207226666667,0 -0.52870866666667,-0.528352 -0.52870933333333,-1.3910673333333 0,-1.9194193333333 z" id="path6899" style="fill:url(#linearGradient4668);fill-opacity:1;stroke:url(#linearGradient4972);stroke-width:0.66642185333333;stroke-linecap:round;stroke-linejoin:round;stroke-miterlimit:4;stroke-opacity:1;stroke-dasharray:none;stroke-dashoffset:0.7;display:inline;enable-background:new"/>
  <path d="m 14.31047,13.685503333333 c 0.36966533333333,-0.36907266666667 1.0463313333333,-0.287722 1.5171913333333,0.1824 l 9.794464,8.8894946666667 c 0.47085666666667,0.470126 0.10701133333333,1.590842 -0.262654,1.9599146666667 -0.369668,0.36907666666667 -1.4918913333333,0.73308666666667 -1.9627493333333,0.26296266666667 L 14.493122666667,15.200307333333 C 14.022266666667,14.73018 13.940802,14.054580666667 14.31047,13.685503333333 z" id="rect6533" style="opacity:0.23106061;fill:url(#linearGradient4665);fill-opacity:1;stroke:none;display:inline"/>
  <rect width="6.1703662666667" height="20.011450666667" rx="2.6378398" ry="2.6378687333333" x="-25.690678666667" y="-1.4086583333333" transform="matrix(-0.71097924,-0.703213,0.70748499,-0.70672837,0,0)" id="rect5288" style="fill:url(#linearGradient5007);fill-opacity:1;stroke:url(#linearGradient5009);stroke-width:0.6667908;stroke-linecap:round;stroke-linejoin:round;stroke-miterlimit:4;stroke-opacity:1;stroke-dasharray:none"/>
  <path d="m 18.666666666667,15 a 1.3333333333333,1.6666666666667 0 1 1 -2.6666666666667,0 1.3333333333333,1.6666666666667 0 1 1 2.6666666666667,0 z" transform="matrix(-1.2190264,-1.2555774,0.57397825,-0.55726921,29.483075333333,45.093544)" id="path4983" style="opacity:0.3;fill:url(#radialGradient5017);fill-opacity:1;stroke:none"/>
  <rect width="4.7852684666667" height="18.625544" rx="1.978371" ry="1.978402" x="-24.998237333333" y="-0.76125066666667" transform="matrix(-0.71239463,-0.70177909,0.70750329,-0.70671005,0,0)" id="rect5292" style="opacity:0.6;fill:none;stroke:url(#radialGradient5004);stroke-width:0.66667747333333;stroke-linecap:round;stroke-linejoin:round;stroke-miterlimit:4;stroke-opacity:1;stroke-dasharray:none"/>
  <path d="M 3.0813272666667,30.333274 6.3558884,28.071163333333 6.753382,26.705347333333 16.903361333333,16.539425333333 c 0.690328,-0.77838266666667 -0.61126666666667,-2.1596233333333 -1.4741753333333,-1.46773 L 5.2753822666667,25.223994 3.9034084,25.613118666667 1.6664867333333,28.900994666667 c 0,0 1.4148405333333,1.4322793333333 1.4148405333333,1.4322793333333 z" id="path5286" style="fill:url(#linearGradient4999);fill-opacity:1;stroke:url(#linearGradient5001);stroke-width:0.66666666666667;stroke-linecap:round;stroke-linejoin:round;stroke-miterlimit:4;stroke-opacity:1;stroke-dasharray:none"/>
  <rect width="0.98144486666667" height="15.204146" rx="0.65946324666667" ry="0.72541306666667" x="-24.957634" y="1.6178030666667" transform="matrix(-0.71258595,-0.70158482,0.70777179,-0.70644115,0,0)" id="rect2804" style="opacity:0.3;fill:url(#linearGradient4996);fill-opacity:1;stroke:none"/>
  <rect width="1.3461202" height="15.146266666667" rx="0.65943829333333" ry="0.72537606666667" x="-23.306656" y="2.3570585333333" transform="matrix(-0.71337531,-0.70078219,0.70733391,-0.70687958,0,0)" id="rect5290" style="opacity:0.3;fill:url(#linearGradient4993);fill-opacity:1;stroke:none"/>
  <rect width="0.9814454" height="15.204147333333" rx="0.65946324666667" ry="0.72541306666667" x="-21.221163333333" y="1.6511028666667" transform="matrix(-0.71258595,-0.70158482,0.70777179,-0.70644115,0,0)" id="rect5398" style="opacity:0.25;fill:url(#linearGradient4990);fill-opacity:1;stroke:none"/>
  <path d="M 3.1139567333333,29.875908666667 6.0287302666667,27.920369333333 6.3550488,26.675978666667 C 6.62347,26.365541333333 5.5709934,25.385278666667 5.2872516666667,25.605758666667 l -1.2263188666667,0.342348 -1.9510713333333,2.921428 c 0.3830556,0.383924 0.62103993333333,0.62244866666667 1.0040952666667,1.006374 z" id="path5450" style="fill:url(#linearGradient4987);fill-opacity:1;stroke:none"/>
  <path d="m 16.478433333333,16.076674 c 0.05114,-0.25523 -0.30462266666667,-0.57487133333333 -0.54842933333333,-0.57402 -3.4462506666667,3.34708 -6.8959553333333,6.8668366666667 -10.290298333333,10.268522666667 l -1.3576422,0.40898266666667 c -0.59562266666667,0.87549666666667 -1.1912453333333,1.7509926666667 -1.7868679333333,2.6264893333333 0.22536766666667,0.232638 0.45073466666667,0.46527666666667 0.6761024,0.69791466666667 0.88692973333333,-0.61067533333333 1.7738602,-1.2213506666667 2.66079,-1.832026 0.121101,-0.38248466666667 0.20562306666667,-0.78655466666667 0.34895606666667,-1.1559206666667" id="path4979" style="opacity:0.7;fill:none;stroke:white;stroke-width:0.66666666666667;stroke-linecap:round;stroke-linejoin:round;stroke-miterlimit:4;stroke-opacity:1"/>
</svg>
