<?xml version="1.0" encoding="UTF-8" standalone="no"?>
<!-- Created with Inkscape (http://www.inkscape.org/) -->
<svg xmlns:dc="http://purl.org/dc/elements/1.1/" xmlns:cc="http://creativecommons.org/ns#" xmlns:rdf="http://www.w3.org/1999/02/22-rdf-syntax-ns#" xmlns:svg="http://www.w3.org/2000/svg" xmlns="http://www.w3.org/2000/svg" xmlns:xlink="http://www.w3.org/1999/xlink" xmlns:sodipodi="http://sodipodi.sourceforge.net/DTD/sodipodi-0.dtd" xmlns:inkscape="http://www.inkscape.org/namespaces/inkscape" version="1.1" width="96" height="96" id="svg3858" inkscape:version="0.48.2 r9819" sodipodi:docname="icon.svg">
  <metadata id="metadata115">
    <rdf:RDF>
      <cc:Work rdf:about="">
        <dc:format>image/svg+xml</dc:format>
        <dc:type rdf:resource="http://purl.org/dc/dcmitype/StillImage"/>
        <dc:title/>
      </cc:Work>
    </rdf:RDF>
  </metadata>
  <sodipodi:namedview pagecolor="#ffffff" bordercolor="#666666" borderopacity="1" objecttolerance="10" gridtolerance="10" guidetolerance="10" inkscape:pageopacity="0" inkscape:pageshadow="2" inkscape:window-width="1280" inkscape:window-height="930" id="namedview113" showgrid="false" inkscape:zoom="4.9166667" inkscape:cx="25.62712" inkscape:cy="30.507233" inkscape:window-x="0" inkscape:window-y="31" inkscape:window-maximized="1" inkscape:current-layer="layer1"/>
  <defs id="defs3860">
    <linearGradient id="linearGradient8589">
      <stop id="stop8591" style="stop-color:#fefefe;stop-opacity:1" offset="0"/>
      <stop id="stop8593" style="stop-color:#cbcbcb;stop-opacity:1" offset="1"/>
    </linearGradient>
    <linearGradient x1="65.784576" y1="16.118023" x2="72.716744" y2="10.9130726" id="linearGradient5573" xlink:href="#linearGradient8589" gradientUnits="userSpaceOnUse" gradientTransform="matrix(0.9976985,0,0,1.0642049,159.84888,22.562014)"/>
    <linearGradient id="linearGradient3931">
      <stop id="stop3933" style="stop-color:#8d8f8a;stop-opacity:1" offset="0"/>
      <stop id="stop3935" style="stop-color:#cbcbcb;stop-opacity:1" offset="1"/>
    </linearGradient>
    <linearGradient x1="-103.572808" y1="101.572892" x2="-103.572808" y2="5.8124942" id="linearGradient5571" xlink:href="#linearGradient3931" gradientUnits="userSpaceOnUse" gradientTransform="matrix(0.8074968,0,0,0.9358511,278.34174,12.6115748)"/>
    <linearGradient id="linearGradient3600">
      <stop id="stop3602" style="stop-color:#f4f4f4;stop-opacity:1" offset="0"/>
      <stop id="stop3604" style="stop-color:#dbdbdb;stop-opacity:1" offset="1"/>
    </linearGradient>
    <linearGradient x1="50.26455" y1="13.4574786" x2="50.26455" y2="94.026672" id="linearGradient5569" xlink:href="#linearGradient3600" gradientUnits="userSpaceOnUse" gradientTransform="translate(159.52128,14.8405348)"/>
    <radialGradient cx="1211.42858" cy="973.29578" r="234.28572" fx="1211.42858" fy="973.29578" id="radialGradient5567" xlink:href="#linearGradient5060" gradientUnits="userSpaceOnUse" gradientTransform="matrix(0.02409717,0,0,0.01537476,52.955168,77.258078)"/>
    <linearGradient id="linearGradient5060">
      <stop id="stop5062" style="stop-color:#000000;stop-opacity:1" offset="0"/>
      <stop id="stop5064" style="stop-color:#000000;stop-opacity:0" offset="1"/>
    </linearGradient>
    <radialGradient cx="1211.42858" cy="973.29578" r="234.28572" fx="1211.42858" fy="973.29578" id="radialGradient5565" xlink:href="#linearGradient5060" gradientUnits="userSpaceOnUse" gradientTransform="matrix(-0.02409717,0,0,0.01537476,43.044824,77.258078)"/>
    <linearGradient id="linearGradient5048">
      <stop id="stop5050" style="stop-color:#000000;stop-opacity:0" offset="0"/>
      <stop id="stop5056" style="stop-color:#000000;stop-opacity:1" offset="0.5"/>
      <stop id="stop5052" style="stop-color:#000000;stop-opacity:0" offset="1"/>
    </linearGradient>
    <linearGradient x1="605.7143" y1="733.29578" x2="605.7143" y2="1219.01014" id="linearGradient5563" xlink:href="#linearGradient5048" gradientUnits="userSpaceOnUse" gradientTransform="matrix(0.0704142,0,0,0.01537476,-2.8994094,77.258014)"/>
    <linearGradient id="linearGradient4873">
      <stop id="stop4875" style="stop-color:#ffffff;stop-opacity:1" offset="0"/>
      <stop id="stop4877" style="stop-color:#ffffff;stop-opacity:0" offset="1"/>
    </linearGradient>
    <linearGradient x1="43.25795" y1="4.2204204" x2="44.490868" y2="86.732704" id="linearGradient2509" xlink:href="#linearGradient4873" gradientUnits="userSpaceOnUse" gradientTransform="matrix(0.4873978,0,0,0.4781595,-23.779122,3.4014236)"/>
    <linearGradient id="linearGradient3533">
      <stop id="stop3535" style="stop-color:#93b9dd;stop-opacity:1" offset="0"/>
      <stop id="stop3545" style="stop-color:#6396cd;stop-opacity:1" offset="1"/>
    </linearGradient>
    <linearGradient x1="30.745894" y1="10.094325" x2="30.745894" y2="45.199352" id="linearGradient2517" xlink:href="#linearGradient3533" gradientUnits="userSpaceOnUse" gradientTransform="matrix(0.4873978,0,0,0.4781595,-23.779122,3.4014236)"/>
    <linearGradient x1="18" y1="58.113514" x2="18" y2="52.05946" id="linearGradient2863" xlink:href="#linearGradient3290" gradientUnits="userSpaceOnUse" gradientTransform="matrix(1.1213238,-1.1263648,1.3858308,1.3783152,-76.865016,14.0108122)"/>
    <linearGradient id="linearGradient3290">
      <stop id="stop3292" style="stop-color:#e4db7b;stop-opacity:1" offset="0"/>
      <stop id="stop3294" style="stop-color:#f4f0c8;stop-opacity:1" offset="1"/>
    </linearGradient>
    <linearGradient x1="11.0357962" y1="74.743598" x2="19.0441112" y2="82.783432" id="linearGradient2865" xlink:href="#linearGradient3191" gradientUnits="userSpaceOnUse" gradientTransform="matrix(0.9421616,0,0,0.9409994,1.84851596,-1.58134596)"/>
    <linearGradient id="linearGradient3191">
      <stop id="stop3193" style="stop-color:#cbbd27;stop-opacity:1" offset="0"/>
      <stop id="stop3195" style="stop-color:#9b901d;stop-opacity:1" offset="1"/>
    </linearGradient>
    <linearGradient x1="60.075432" y1="49.979188" x2="60.075432" y2="60.000282" id="linearGradient2868" xlink:href="#linearGradient3223" gradientUnits="userSpaceOnUse" gradientTransform="matrix(1.1213238,-1.1263648,1.3858308,1.3783152,-72.180994,9.30573)"/>
    <linearGradient id="linearGradient3223">
      <stop id="stop3225" style="stop-color:#999;stop-opacity:1" offset="0"/>
      <stop id="stop3231" style="stop-color:white;stop-opacity:1" offset="0.5"/>
      <stop id="stop3227" style="stop-color:#777;stop-opacity:1" offset="1"/>
    </linearGradient>
    <linearGradient x1="60.075432" y1="49.979188" x2="60.075432" y2="60.000282" id="linearGradient2871" xlink:href="#linearGradient3240" gradientUnits="userSpaceOnUse" gradientTransform="matrix(1.1213238,-1.1263648,1.3858308,1.3783152,-71.538728,8.66058)"/>
    <linearGradient id="linearGradient3240">
      <stop id="stop3242" style="stop-color:#3e3e3e;stop-opacity:1" offset="0"/>
      <stop id="stop3244" style="stop-color:#828282;stop-opacity:1" offset="0.5"/>
      <stop id="stop3246" style="stop-color:#3c3c3c;stop-opacity:1" offset="1"/>
    </linearGradient>
    <linearGradient x1="60.075432" y1="49.979188" x2="60.075432" y2="60.000282" id="linearGradient2874" xlink:href="#linearGradient3223" gradientUnits="userSpaceOnUse" gradientTransform="matrix(1.1213238,-1.1263648,1.3858308,1.3783152,-74.42364,11.55846)"/>
    <linearGradient id="linearGradient3058">
      <stop id="stop3060" style="stop-color:#999;stop-opacity:1" offset="0"/>
      <stop id="stop3062" style="stop-color:white;stop-opacity:1" offset="0.5"/>
      <stop id="stop3064" style="stop-color:#777;stop-opacity:1" offset="1"/>
    </linearGradient>
    <linearGradient x1="60.075432" y1="49.979188" x2="60.075432" y2="60.000282" id="linearGradient2877" xlink:href="#linearGradient3240" gradientUnits="userSpaceOnUse" gradientTransform="matrix(1.1213238,-1.1263648,1.3858308,1.3783152,-73.781376,10.913308)"/>
    <linearGradient id="linearGradient3067">
      <stop id="stop3069" style="stop-color:#3e3e3e;stop-opacity:1" offset="0"/>
      <stop id="stop3071" style="stop-color:#828282;stop-opacity:1" offset="0.5"/>
      <stop id="stop3073" style="stop-color:#3c3c3c;stop-opacity:1" offset="1"/>
    </linearGradient>
    <linearGradient x1="60.075432" y1="49.979188" x2="60.075432" y2="60.000282" id="linearGradient2880" xlink:href="#linearGradient3223" gradientUnits="userSpaceOnUse" gradientTransform="matrix(1.1213238,-1.1263648,1.3858308,1.3783152,-76.655498,13.8003542)"/>
    <linearGradient id="linearGradient3076">
      <stop id="stop3078" style="stop-color:#999;stop-opacity:1" offset="0"/>
      <stop id="stop3080" style="stop-color:white;stop-opacity:1" offset="0.5"/>
      <stop id="stop3082" style="stop-color:#777;stop-opacity:1" offset="1"/>
    </linearGradient>
    <linearGradient x1="60.075432" y1="49.979188" x2="60.075432" y2="60.000282" id="linearGradient2883" xlink:href="#linearGradient3240" gradientUnits="userSpaceOnUse" gradientTransform="matrix(1.1213238,-1.1263648,1.3858308,1.3783152,-76.013234,13.1552042)"/>
    <linearGradient id="linearGradient3085">
      <stop id="stop3087" style="stop-color:#3e3e3e;stop-opacity:1" offset="0"/>
      <stop id="stop3089" style="stop-color:#828282;stop-opacity:1" offset="0.5"/>
      <stop id="stop3091" style="stop-color:#3c3c3c;stop-opacity:1" offset="1"/>
    </linearGradient>
    <linearGradient x1="47.151944" y1="50.713784" x2="47.151944" y2="62.421878" id="linearGradient2888" xlink:href="#linearGradient3155" gradientUnits="userSpaceOnUse" gradientTransform="matrix(1.1539441,-1.1591317,1.184149,1.1777273,-68.398258,24.1792)" spreadMethod="pad"/>
    <linearGradient id="linearGradient3155">
      <stop id="stop3157" style="stop-color:black;stop-opacity:1" offset="0"/>
      <stop id="stop3171" style="stop-color:#c3c3c3;stop-opacity:1" offset="0.13482948"/>
      <stop id="stop3173" style="stop-color:#8c8c8c;stop-opacity:1" offset="0.20224422"/>
      <stop id="stop3163" style="stop-color:white;stop-opacity:1" offset="0.26965895"/>
      <stop id="stop3165" style="stop-color:#757575;stop-opacity:1" offset="0.44650277"/>
      <stop id="stop3167" style="stop-color:#7d7d7d;stop-opacity:1" offset="0.57114136"/>
      <stop id="stop3169" style="stop-color:#b6b6b6;stop-opacity:1" offset="0.72038066"/>
      <stop id="stop3159" style="stop-color:black;stop-opacity:1" offset="1"/>
    </linearGradient>
    <filter x="-0.119956292" y="-0.48070056" width="2.2399126" height="2.9614012" color-interpolation-filters="sRGB" id="filter3699">
      <feGaussianBlur id="feGaussianBlur3701" stdDeviation="1.0014601"/>
    </filter>
    <filter x="-0.119956292" y="-0.48070056" width="2.2399126" height="2.9614012" color-interpolation-filters="sRGB" id="filter3699-0">
      <feGaussianBlur id="feGaussianBlur3701-6" stdDeviation="1.0014601"/>
    </filter>
    <linearGradient inkscape:collect="always" xlink:href="#linearGradient3155-0" id="linearGradient3285-9" gradientUnits="userSpaceOnUse" gradientTransform="matrix(0.79708517,-0.79124093,0.81794916,0.80393457,-14.7891662,35.52595)" spreadMethod="pad" x1="47.151944" y1="50.713784" x2="47.151944" y2="62.421878"/>
    <linearGradient id="linearGradient3155-0">
      <stop id="stop3157-6" style="stop-color:black;stop-opacity:1" offset="0"/>
      <stop id="stop3171-0" style="stop-color:#c3c3c3;stop-opacity:1" offset="0.13482948"/>
      <stop id="stop3173-2" style="stop-color:#8c8c8c;stop-opacity:1" offset="0.20224422"/>
      <stop id="stop3163-3" style="stop-color:white;stop-opacity:1" offset="0.26965895"/>
      <stop id="stop3165-8" style="stop-color:#757575;stop-opacity:1" offset="0.44650277"/>
      <stop id="stop3167-9" style="stop-color:#7d7d7d;stop-opacity:1" offset="0.57114136"/>
      <stop id="stop3169-9" style="stop-color:#b6b6b6;stop-opacity:1" offset="0.72038066"/>
      <stop id="stop3159-3" style="stop-color:black;stop-opacity:1" offset="1"/>
    </linearGradient>
    <linearGradient inkscape:collect="always" xlink:href="#linearGradient3240-0" id="linearGradient3287-5" gradientUnits="userSpaceOnUse" gradientTransform="matrix(0.77455274,-0.76887375,0.95726056,0.94085893,-20.0492,28.000804)" x1="60.075432" y1="49.979188" x2="60.075432" y2="60.000282"/>
    <linearGradient id="linearGradient3240-0">
      <stop id="stop3242-0" style="stop-color:#3e3e3e;stop-opacity:1" offset="0"/>
      <stop id="stop3244-8" style="stop-color:#828282;stop-opacity:1" offset="0.5"/>
      <stop id="stop3246-1" style="stop-color:#3c3c3c;stop-opacity:1" offset="1"/>
    </linearGradient>
    <linearGradient inkscape:collect="always" xlink:href="#linearGradient3223-7" id="linearGradient3289-3" gradientUnits="userSpaceOnUse" gradientTransform="matrix(0.77455274,-0.76887375,0.95726056,0.94085893,-20.492842,28.441192)" x1="60.075432" y1="49.979188" x2="60.075432" y2="60.000282"/>
    <linearGradient id="linearGradient3223-7">
      <stop id="stop3225-9" style="stop-color:#999;stop-opacity:1" offset="0"/>
      <stop id="stop3231-3" style="stop-color:white;stop-opacity:1" offset="0.5"/>
      <stop id="stop3227-1" style="stop-color:#777;stop-opacity:1" offset="1"/>
    </linearGradient>
    <linearGradient inkscape:collect="always" xlink:href="#linearGradient3240-0" id="linearGradient3291-1" gradientUnits="userSpaceOnUse" gradientTransform="matrix(0.77455274,-0.76887375,0.95726056,0.94085893,-18.5075472,26.47045)" x1="60.075432" y1="49.979188" x2="60.075432" y2="60.000282"/>
    <linearGradient id="linearGradient3408">
      <stop id="stop3410" style="stop-color:#3e3e3e;stop-opacity:1" offset="0"/>
      <stop id="stop3412" style="stop-color:#828282;stop-opacity:1" offset="0.5"/>
      <stop id="stop3414" style="stop-color:#3c3c3c;stop-opacity:1" offset="1"/>
    </linearGradient>
    <linearGradient inkscape:collect="always" xlink:href="#linearGradient3223-7" id="linearGradient3293-8" gradientUnits="userSpaceOnUse" gradientTransform="matrix(0.77455274,-0.76887375,0.95726056,0.94085893,-18.95119,26.910842)" x1="60.075432" y1="49.979188" x2="60.075432" y2="60.000282"/>
    <linearGradient id="linearGradient3417">
      <stop id="stop3419" style="stop-color:#999;stop-opacity:1" offset="0"/>
      <stop id="stop3421" style="stop-color:white;stop-opacity:1" offset="0.5"/>
      <stop id="stop3423" style="stop-color:#777;stop-opacity:1" offset="1"/>
    </linearGradient>
    <linearGradient inkscape:collect="always" xlink:href="#linearGradient3240-0" id="linearGradient3295-3" gradientUnits="userSpaceOnUse" gradientTransform="matrix(0.77455274,-0.76887375,0.95726056,0.94085893,-16.9584414,24.932704)" x1="60.075432" y1="49.979188" x2="60.075432" y2="60.000282"/>
    <linearGradient id="linearGradient3426">
      <stop id="stop3428" style="stop-color:#3e3e3e;stop-opacity:1" offset="0"/>
      <stop id="stop3430" style="stop-color:#828282;stop-opacity:1" offset="0.5"/>
      <stop id="stop3432" style="stop-color:#3c3c3c;stop-opacity:1" offset="1"/>
    </linearGradient>
    <linearGradient inkscape:collect="always" xlink:href="#linearGradient3223-7" id="linearGradient3297-2" gradientUnits="userSpaceOnUse" gradientTransform="matrix(0.77455274,-0.76887375,0.95726056,0.94085893,-17.4020856,25.373094)" x1="60.075432" y1="49.979188" x2="60.075432" y2="60.000282"/>
    <linearGradient id="linearGradient3435">
      <stop id="stop3437" style="stop-color:#999;stop-opacity:1" offset="0"/>
      <stop id="stop3439" style="stop-color:white;stop-opacity:1" offset="0.5"/>
      <stop id="stop3441" style="stop-color:#777;stop-opacity:1" offset="1"/>
    </linearGradient>
    <linearGradient inkscape:collect="always" xlink:href="#linearGradient3290-1" id="linearGradient3299-8" gradientUnits="userSpaceOnUse" gradientTransform="matrix(0.77455274,-0.76887374,0.95726056,0.94085893,-20.637566,28.584854)" x1="18" y1="58.113514" x2="18" y2="52.05946"/>
    <linearGradient id="linearGradient3290-1">
      <stop id="stop3292-4" style="stop-color:#e4db7b;stop-opacity:1" offset="0"/>
      <stop id="stop3294-6" style="stop-color:#f4f0c8;stop-opacity:1" offset="1"/>
    </linearGradient>
    <linearGradient inkscape:collect="always" xlink:href="#linearGradient3191-6" id="linearGradient3301-9" gradientUnits="userSpaceOnUse" gradientTransform="matrix(0.65079672,0,0,0.6423405,33.733688,17.9414104)" x1="11.0357962" y1="74.743598" x2="19.0441112" y2="82.783432"/>
    <linearGradient id="linearGradient3191-6">
      <stop id="stop3193-3" style="stop-color:#cbbd27;stop-opacity:1" offset="0"/>
      <stop id="stop3195-0" style="stop-color:#9b901d;stop-opacity:1" offset="1"/>
    </linearGradient>
  </defs>
  <g id="layer1">
    <g id="g3359" transform="matrix(0.76601766,0,0,0.71080146,-112.818642,16.8551338)">
      <g id="g4" transform="matrix(0.11258685,0,0,0.11853756,180.20339,-6.7969046)" style="fill:#a4c639">
        <use id="use6" xlink:href="#b" style="stroke:#ffffff;stroke-width:28.79999924" x="0" y="0" width="1488.18896" height="2104.7244"/>
        <use id="use8" transform="scale(-1,1)" xlink:href="#a" x="0" y="0" width="1488.18896" height="2104.7244"/>
        <g id="a" style="stroke:#ffffff;stroke-width:14.39999962">
          <rect id="rect11" x="28" y="-172" width="26" height="172" transform="matrix(0.87461971,0.48480962,-0.48480962,0.87461971,0,0)" rx="13"/>
          <rect x="-286" y="82" width="96" height="266" rx="48" id="c"/>
          <use id="use14" xlink:href="#c" x="170" y="194" width="1488.18896" height="2104.7244"/>
        </g>
        <g id="b">
          <ellipse id="ellipse17" ry="168" rx="182" cy="82" d="m 182,82 c 0,92.783838 -81.484176,168 -182,168 -100.515824,0 -182,-75.216162 -182,-168 0,-92.783838 81.484176,-168 182,-168 100.515824,0 182,75.216162 182,168 z" cx="0" sodipodi:cx="0" sodipodi:cy="41" sodipodi:rx="91" sodipodi:ry="84"/>
          <rect id="rect19" x="-182" y="40" width="364" height="364" rx="44"/>
        </g>
      </g>
      <g id="g21" transform="matrix(0.11258685,0,0,0.11853756,180.20339,-6.7969046)" style="fill:#ffffff;stroke:#ffffff;stroke-width:14.39999962">
        <path id="path23" d="M -190,89 H 95" inkscape:connector-curvature="0"/>
        <circle id="circle25" r="8" cx="-84" d="m -76,0 c 0,4.418278 -3.581722,8 -8,8 -4.418278,0 -8,-3.581722 -8,-8 0,-4.418278 3.581722,-8 8,-8 4.418278,0 8,3.581722 8,8 z" cy="0" sodipodi:cx="-42" sodipodi:cy="0" sodipodi:rx="4" sodipodi:ry="4"/>
        <circle id="circle27" r="8" cx="84" d="m 92,0 c 0,4.418278 -3.581722,8 -8,8 -4.418278,0 -8,-3.581722 -8,-8 0,-4.418278 3.581722,-8 8,-8 4.418278,0 8,3.581722 8,8 z" cy="0" sodipodi:cx="42" sodipodi:cy="0" sodipodi:rx="4" sodipodi:ry="4"/>
      </g>
    </g>
    <g transform="matrix(-1.1897021,0,0,0.96676088,303.108,-11.4952762)" id="g5516" style="display:inline">
      <g transform="matrix(0.80159266,0,0,0.9561265,174.298982,19.0523948)" id="g2877">
        <rect width="68" height="7.4677414" x="14" y="88.532258" id="rect2879" style="opacity:0.40206185;fill:url(#linearGradient5563);fill-opacity:1;fill-rule:nonzero;stroke:none;stroke-width:2;marker:none;visibility:visible;display:inline;overflow:visible"/>
        <path d="m 14,88.532582 c 0,0 0,7.46733 0,7.46733 -2.4818896,0.014 -6,-1.67305 -6,-3.734146 0,-2.061094 2.7696014,-3.733182 6,-3.733184 z" id="path2881" style="opacity:0.40206185;fill:url(#radialGradient5565);fill-opacity:1;fill-rule:nonzero;stroke:none;stroke-width:2;marker:none;visibility:visible;display:inline;overflow:visible" inkscape:connector-curvature="0"/>
        <path d="m 82,88.532582 c 0,0 0,7.46733 0,7.46733 2.481888,0.014 6,-1.67305 6,-3.734146 0,-2.061094 -2.769602,-3.733182 -6,-3.733184 z" id="path2883" style="opacity:0.40206185;fill:url(#radialGradient5567);fill-opacity:1;fill-rule:nonzero;stroke:none;stroke-width:2;marker:none;visibility:visible;display:inline;overflow:visible" inkscape:connector-curvature="0"/>
      </g>
      <path d="m 180.52128,25.840454 c 16.04058,0 24.0811,0 40.12168,0 2.81388,0.97076 17.93092,12.03028 21.8784,19.68792 0,23.4374 0,38.87482 0,62.31224 -23.33338,0 -38.6667,0 -62.00008,0 0,-30.00006 0,-52.0001 0,-82.00016 z" id="rect2594" style="fill:url(#linearGradient5569);fill-opacity:1;stroke:url(#linearGradient5571);stroke-width:1.9998436;stroke-linecap:butt;stroke-linejoin:round;stroke-miterlimit:4;stroke-opacity:1;stroke-dasharray:none;stroke-dashoffset:0" inkscape:connector-curvature="0"/>
      <path d="m 219.05636,26.469774 c 1.275,8.25012 1.21892,18.06894 1.21892,18.06894 0,0 9.73946,-0.223 21.7705,1.18786 -9.79376,-9.5756 -16.6569,-13.56836 -22.98942,-19.2568 z" id="path8596" style="fill:#000000;fill-opacity:0.32663317;fill-rule:evenodd;stroke:#000000;stroke-width:1;stroke-linecap:butt;stroke-linejoin:round;stroke-miterlimit:4;stroke-opacity:0.16582917;stroke-dasharray:none;display:inline" inkscape:connector-curvature="0"/>
      <path d="m 218.83712,25.856394 c 2.82444,8.245 2.59018,16.5214 2.59018,16.5214 0,0 15.666,1.09462 20.35028,3.18786 0,-3.42228 -18.595,-19.65084 -22.94046,-19.70926 z" id="path12038" style="fill:url(#linearGradient5573);fill-opacity:1;fill-rule:evenodd;stroke:none;display:inline" inkscape:connector-curvature="0"/>
    </g>
    <g id="g3350" transform="matrix(1.2288135,0,0,1,99.959206,27.661016)">
      <rect style="fill:#babdb6;fill-opacity:1;stroke:none;display:inline" id="rect2874" y="18.5084724" x="-63.525422" ry="1.00000012" rx="0.85714286" height="2.0000002" width="48"/>
      <rect style="fill:#babdb6;fill-opacity:1;stroke:none;display:inline" id="rect2890" y="24.508472" x="-63.525422" ry="1.00000012" rx="0.85714286" height="2.0000002" width="48"/>
      <rect style="fill:#babdb6;fill-opacity:1;stroke:none;display:inline" id="rect2892" y="30.508472" x="-63.525422" ry="1.00000012" rx="0.85714286" height="2.0000002" width="48"/>
      <rect style="fill:#babdb6;fill-opacity:1;stroke:none;display:inline" id="rect2894" y="42.50848" x="-63.525422" ry="1.00000012" rx="0.85714286" height="2.0000002" width="48"/>
      <rect style="fill:#babdb6;fill-opacity:1;stroke:none;display:inline" id="rect2898" y="48.508472" x="-63.525422" ry="1.00000012" rx="0.85714286" height="2.0000002" width="48"/>
      <rect style="fill:#babdb6;fill-opacity:1;stroke:none;display:inline" id="rect2900" y="54.508472" x="-63.525422" ry="1.00000012" rx="0.85714286" height="2.0000002" width="48"/>
      <rect style="fill:#babdb6;fill-opacity:1;stroke:none;display:inline" id="rect1984" y="36.508472" x="-63.525422" ry="1.00000012" rx="0.85714286" height="2.0000002" width="48"/>
    </g>
    <path inkscape:connector-curvature="0" style="opacity:0.15;fill:#0c0c0c;fill-opacity:1;fill-rule:evenodd;stroke:none" id="path2422-3" d="m 78.071994,33.042566 c -0.480042,-0.24208 -0.830064,-0.14168 -1.053334,0.0317 l -29.747052,22.964882 -5.474092,4.237266 -0.1715,0.0905 -5.637816,16.343642 16.927026,-0.80845 0.133,-0.10766 5.512598,-4.220128 29.726102,-23.141018 c 0.893106,-0.693534 -0.897906,-4.681842 -4.018836,-8.962702 -2.340708,-3.210624 -4.75594,-5.70179 -6.196084,-6.428064 l 0,0 z"/>
    <g transform="matrix(1.1486611,-0.13956541,0.13493357,1.188091,-16.3299954,-8.6903048)" id="g3336">
      <path style="fill:url(#linearGradient3285-9);fill-opacity:1;stroke:#000000;stroke-width:1.37333978;stroke-linecap:butt;stroke-linejoin:round;stroke-miterlimit:4;stroke-opacity:1;stroke-dasharray:none;stroke-dashoffset:0" id="rect2383" d="m 44.47068,58.627222 c 1.071312,-0.81378 3.91989,0.505508 6.480636,3.022382 2.554622,2.510846 3.838422,5.259422 3.03214,6.327402 -0.003,0.0042 0.06296,0.0548 0.05984,0.05882 L 92.916156,29.44796 C 93.903102,28.468248 92.56304,25.562414 89.921002,22.965644 87.278962,20.368872 84.3305,19.0596506 83.343544,20.03937 L 44.47068,58.627222 z" inkscape:connector-curvature="0"/>
      <path style="opacity:0.8;fill:#ff9de8;fill-opacity:1;stroke:#dd78c5;stroke-width:1.37333978;stroke-linecap:butt;stroke-linejoin:round;stroke-miterlimit:4;stroke-opacity:1;stroke-dasharray:none;stroke-dashoffset:0" id="rect3175" d="m 78.59941,24.748722 c 1.07131,-0.813778 3.919894,0.505514 6.480636,3.022382 2.554622,2.51085 3.838424,5.259422 3.03214,6.327404 -0.003,0.0042 0.06296,0.0548 0.05984,0.05882 l 4.744134,-4.709352 0.09682,-0.09612 c 0.0032,-0.0042 -0.0629,-0.05474 -0.05984,-0.0588 0.806284,-1.067988 -0.477518,-3.816564 -3.032138,-6.327412 -2.560746,-2.51687 -5.409326,-3.8361618 -6.480638,-3.0223834 l -0.09682,0.0961 -4.744134,4.709352 z" inkscape:connector-curvature="0"/>
      <path style="opacity:0.6;fill:#000000;fill-opacity:1;stroke:none" id="path3208" d="m 44.47068,58.627222 c 1.071312,-0.81378 3.91989,0.50551 6.480636,3.022382 2.554622,2.510848 3.838422,5.259422 3.03214,6.327402 -0.003,0.0042 0.06296,0.0548 0.05984,0.05882 l 26.770478,-26.574196 0.09682,-0.09612 c 0.0032,-0.0042 -0.06288,-0.05474 -0.05984,-0.05882 0.806282,-1.067984 -0.47752,-3.816556 -3.03214,-6.327404 -2.560744,-2.516868 -5.409326,-3.836162 -6.480638,-3.022384 l -0.09682,0.09612 -26.770478,26.574198 z" inkscape:connector-curvature="0"/>
      <path style="fill:url(#linearGradient3287-5);fill-opacity:1;stroke:none" id="path3233" d="m 73.28181,30.027334 c 1.071312,-0.813782 3.919894,0.50551 6.480638,3.02238 2.554622,2.51085 3.838424,5.259424 3.032138,6.327404 -0.003,0.0042 0.06296,0.0548 0.05984,0.05882 l 0.484094,-0.480548 c 0.0032,-0.0042 -0.06288,-0.05474 -0.05984,-0.05882 0.806284,-1.06798 -0.477516,-3.816556 -3.03214,-6.327402 -2.560758,-2.516868 -5.409336,-3.836162 -6.48065,-3.022382 l -0.484094,0.480548 z" inkscape:connector-curvature="0"/>
      <path style="fill:url(#linearGradient3289-3);fill-opacity:1;stroke:none" id="path3216" d="m 72.838168,30.467722 c 1.071312,-0.813778 3.919894,0.505514 6.480636,3.022384 2.554624,2.510848 3.838426,5.259418 3.03214,6.3274 -0.003,0.0042 0.06296,0.0548 0.05984,0.05882 l 0.484094,-0.480548 c 0.0032,-0.0042 -0.06292,-0.05472 -0.05984,-0.05882 0.806282,-1.06798 -0.477518,-3.816556 -3.03214,-6.327404 -2.560746,-2.516868 -5.409326,-3.836164 -6.48064,-3.022382 l -0.484092,0.48055 z" inkscape:connector-curvature="0"/>
      <path style="fill:url(#linearGradient3291-1);fill-opacity:1;stroke:none" id="path3248" d="m 74.823466,28.49698 c 1.07131,-0.813776 3.919894,0.505514 6.480636,3.022382 2.55462,2.51085 3.838422,5.259424 3.03214,6.327404 -0.003,0.0042 0.06296,0.0548 0.05984,0.05882 l 0.484094,-0.480546 c 0.0032,-0.0042 -0.06288,-0.05472 -0.05984,-0.05882 0.806284,-1.067982 -0.477516,-3.816554 -3.032142,-6.327402 -2.56074,-2.516872 -5.409318,-3.836162 -6.480636,-3.022384 l -0.484092,0.480546 z" inkscape:connector-curvature="0"/>
      <path style="fill:url(#linearGradient3293-8);fill-opacity:1;stroke:none" id="path3250" d="m 74.379822,28.937372 c 1.071312,-0.813782 3.919896,0.50551 6.480638,3.022382 2.554622,2.510848 3.838424,5.25942 3.032142,6.327402 -0.003,0.0042 0.06296,0.05478 0.05984,0.05882 l 0.484094,-0.48055 c 0.0032,-0.0042 -0.06288,-0.05472 -0.05984,-0.05882 0.806288,-1.067982 -0.477514,-3.816556 -3.032138,-6.327402 -2.560742,-2.51687 -5.409324,-3.836164 -6.480638,-3.022382 l -0.484094,0.480546 z" inkscape:connector-curvature="0"/>
      <path style="fill:url(#linearGradient3295-3);fill-opacity:1;stroke:none" id="path3256" d="m 76.372572,26.959234 c 1.07131,-0.81378 3.91989,0.50551 6.480634,3.022382 2.554622,2.51085 3.838426,5.259422 3.03214,6.327404 -0.003,0.0042 0.06296,0.0548 0.05984,0.05882 l 0.484096,-0.480548 c 0.0032,-0.0042 -0.06288,-0.05474 -0.05984,-0.0588 0.806284,-1.067984 -0.477516,-3.816558 -3.03214,-6.327404 -2.560742,-2.516872 -5.409324,-3.836164 -6.480636,-3.022386 l -0.484094,0.480546 z" inkscape:connector-curvature="0"/>
      <path style="fill:url(#linearGradient3297-2);fill-opacity:1;stroke:none" id="path3258" d="m 75.928928,27.399622 c 1.07131,-0.81378 3.919894,0.505514 6.480638,3.022384 2.55462,2.510848 3.838422,5.25942 3.032138,6.327402 -0.003,0.0042 0.06296,0.0548 0.05984,0.05882 l 0.484092,-0.480544 c 0.0032,-0.0042 -0.0629,-0.05474 -0.05984,-0.05882 0.806284,-1.067984 -0.477518,-3.816558 -3.03214,-6.327404 -2.560742,-2.51687 -5.409322,-3.836164 -6.480634,-3.022382 l -0.484098,0.480544 z" inkscape:connector-curvature="0"/>
      <path style="fill:url(#linearGradient3299-8);fill-opacity:1;fill-rule:evenodd;stroke:url(#linearGradient3301-9);stroke-width:1.37333978;stroke-linecap:butt;stroke-linejoin:miter;stroke-miterlimit:4;stroke-opacity:1;stroke-dasharray:none" id="path3270" d="m 36.599508,75.677924 17.39899,-7.43095 C 54.80478,67.178996 53.502646,64.15807 50.948026,61.64722 48.38728,59.13035 45.404184,57.818888 44.332872,58.632666 l -7.733364,17.045258 z" inkscape:connector-curvature="0"/>
      <path style="fill:#000000;fill-opacity:1;fill-rule:evenodd;stroke:#000000;stroke-width:1.37333978;stroke-linecap:butt;stroke-linejoin:miter;stroke-miterlimit:4;stroke-opacity:1;stroke-dasharray:none" id="path3281" d="m 38.731516,71.06135 -2.132264,4.5987 4.704902,-2.070142 c -0.351376,-0.422798 -0.673986,-0.853704 -1.099756,-1.27218 -0.490174,-0.48178 -0.976098,-0.868926 -1.472882,-1.256378 z" inkscape:connector-curvature="0"/>
    </g>
  </g>
</svg>
